<svg xmlns="http://www.w3.org/2000/svg" viewBox="0 0 118.83 48.47"><defs><style>.cls-1{fill:#ffb339;}.cls-2{fill:#fffeca;}.cls-3{fill:#442a11;}</style></defs><g id="Laag_2" data-name="Laag 2"><g id="objects"><path class="cls-1" d="M98.58,5.29C120.07,12,126.74,26,100.68,37.42,84.74,44.41,42.83,47.78,20.3,47-5.86,46-3.19,28.07,16.64,15l.33.51a39.37,39.37,0,0,1,12.17,16.3,6.9,6.9,0,0,0,3.22-5.35A20.61,20.61,0,0,0,31.71,20c-.75-3.57-1.54-7.23-3.49-10.31L27.91,9a85.41,85.41,0,0,1,8.88-3.25l.2.64a21.39,21.39,0,0,1,8.63,10.05,37.41,37.41,0,0,1,2.81,13.1A23.79,23.79,0,0,0,51.33,3.4l-.12-.86c.92-.14,1.84-.26,2.77-.37,3.12-.37,6.19-.62,9.19-.76v.18A40.25,40.25,0,0,1,73.73,24.07C77,21.86,78.92,18,79.42,14A29.39,29.39,0,0,0,78,2.27l0-.69A102.15,102.15,0,0,1,89,3h0l0,.14a39.25,39.25,0,0,1,5.18,17.17A15,15,0,0,0,98.5,5.73ZM14,25.66a.08.08,0,0,0-.06-.09.08.08,0,0,0-.1.07.08.08,0,0,0,.16,0Zm-4,2.89a.08.08,0,0,0-.07-.1.08.08,0,0,0,0,.16A.08.08,0,0,0,9.92,28.55Z"/><path class="cls-2" d="M51.21,2.54A96.56,96.56,0,0,0,36.79,5.75l.2.64a21.39,21.39,0,0,1,8.63,10.05,37.41,37.41,0,0,1,2.81,13.1A23.79,23.79,0,0,0,51.33,3.4Zm-23,7.19L27.91,9a72.55,72.55,0,0,0-11.27,6l.33.51a39.37,39.37,0,0,1,12.17,16.3,6.9,6.9,0,0,0,3.22-5.35A20.61,20.61,0,0,0,31.71,20C31,16.47,30.17,12.81,28.22,9.73Zm70.28-4,.08-.44A78,78,0,0,0,89,3l0,.14a39.25,39.25,0,0,1,5.18,17.17A15,15,0,0,0,98.5,5.73ZM78.06,1.58a122.13,122.13,0,0,0-14.89-.17v.18A40.25,40.25,0,0,1,73.73,24.07C77,21.86,78.92,18,79.42,14A29.39,29.39,0,0,0,78,2.27Z"/><path class="cls-3" d="M10.36,27.59a.85.85,0,0,0-.89-.05,1.07,1.07,0,1,0,.89.05Zm3.91-2.67a.65.65,0,0,0-.67,0,.83.83,0,1,0,.67,0ZM118.1,17.38c-3-7.56-12.61-11.29-19.75-13.47C84.09-.44,68.69-.71,54,.92,36,3.17,13.51,10,3.07,26.21.4,30.36-1.32,35.82,1.3,40.42,4.51,46.05,12,47.56,17.93,48.06c10.83.9,22,.15,32.79-.62a273.36,273.36,0,0,0,34.79-4.38c9.25-1.87,18.57-4.62,26.19-10.44C116.42,29,120.55,23.53,118.1,17.38ZM97.58,6.21A14.27,14.27,0,0,1,95,17.91a42.22,42.22,0,0,0-4-13.31C93.11,5,95.35,5.56,97.58,6.21ZM77.13,2.77c1.8,6.62,2.54,14.36-2.7,19.4A42.54,42.54,0,0,0,65.37,2.6C69.29,2.48,73.21,2.52,77.13,2.77ZM50.48,3.92a23.39,23.39,0,0,1-1.31,22.85c-1-8-3.73-15.46-10.33-20.32A101,101,0,0,1,50.48,3.92ZM20.59,14a76.3,76.3,0,0,1,6.93-3.51c2.63,4.74,6.12,15.21,2,19.66a42.29,42.29,0,0,0-11.14-14.8C19.1,14.92,19.85,14.47,20.59,14ZM89,39.76c-18.88,4.41-38.77,5.8-58.12,6-9.28.12-34.42.44-27.07-15.7C6.33,24.46,11.36,20,16.6,16.52A40.4,40.4,0,0,1,28.18,32.08a1,1,0,0,0,1.47.6c6.84-4.87,3.17-16.68-.28-22.94q3.47-1.44,7.05-2.56s0,.05.07.07c7.78,4.93,10.35,13.57,10.94,22.29,0,.77,1.13,1.46,1.71.71A25.45,25.45,0,0,0,52.51,3.62L54,3.42q4.4-.5,8.82-.72a40.82,40.82,0,0,1,10,21.64,1,1,0,0,0,1.47.59c7.11-5.4,7-14.07,5-22,3.08.26,6.15.66,9.19,1.2a40,40,0,0,1,4.77,16.15A1,1,0,0,0,94.9,21,16.34,16.34,0,0,0,99.71,6.86a34.54,34.54,0,0,1,12.74,7,13,13,0,0,1,3.4,4.6c-2.55,5.84-13.22,9.49-18.51,11.19C88.16,32.55,78.06,33.39,68.59,35c-1.27.22-.73,2.15.53,1.93,11-1.89,22.85-2.77,33.3-7.07,4.29-1.76,10.72-4.4,14-8.57C116.27,30.84,96.61,38,89,39.76ZM61.59,36.21,57.3,37c-1.26.21-.73,2.14.53,1.93l4.29-.74C63.39,37.92,62.85,36,61.59,36.21Z"/></g></g></svg>