<svg xmlns="http://www.w3.org/2000/svg" viewBox="0 0 72.51 152.92"><defs><style>.cls-1{fill:#4fbf37;}.cls-2{fill:#ffb339;}.cls-3{fill:#fdd782;}.cls-4{fill:#fd3200;}.cls-5{fill:#442a11;}</style></defs><g id="Laag_2" data-name="Laag 2"><g id="objects"><path class="cls-1" d="M56.31,15.28c-.72-.46-1.63-.71-2.12-1.42-.79-1.15,0-2.74-.26-4.12a2.73,2.73,0,0,0-4.46-1.58,5.18,5.18,0,0,0-1.37,2.53h0c-1.15.48-2.45-.6-2.77-1.8a10.61,10.61,0,0,1,.12-3.72,3.82,3.82,0,0,0-1-3.42,3.27,3.27,0,0,0-3.65.16,22.93,22.93,0,0,0-2.87,2.62,4.49,4.49,0,0,1-3.49,1.41C32.59,5.66,31.53,3.84,30,3A4.36,4.36,0,0,0,23.51,6.5c-.07,1,.23,2.07.18,3.11A2.33,2.33,0,0,1,22,12a2.41,2.41,0,0,1-2.16-1.25,16.21,16.21,0,0,0-1.42-2.2,3.29,3.29,0,0,0-5.68,2c-.1,1.33.61,2.56,1,3.84s.31,2.93-.84,3.59c-1.54.89-3.43-.72-5.18-.43S5,20.31,5.69,22.1s2.31,3,3.86,4.12l0,.62c3.7.12,8.69,2.31,13.21,4.87l.13-.23A49.43,49.43,0,0,1,19.4,20.22a3.62,3.62,0,0,1,0-1.5,1.31,1.31,0,0,1,1-1c.7-.14,1.31.48,1.75,1a49.08,49.08,0,0,1,6.32,11l.09,0a11.41,11.41,0,0,1,5.34-6.94,11.54,11.54,0,0,1,13.1,1.64l.54.78a33.1,33.1,0,0,1,5.35-3.11,9.37,9.37,0,0,1,4.41-.88l0-.24A4.06,4.06,0,0,0,56.31,15.28Z"/><path class="cls-2" d="M38.2,138.88,37,138.41c-.37.6-.76,1.18-1.17,1.76C32,145.6,24.62,151.7,19.47,149.72c6.74,3.37,32.56,2.07,41.08-4.3C54.52,149.14,46,145.67,38.2,138.88Z"/><path class="cls-3" d="M64.89,30.55c-1.42-4.78-3.57-9-7.68-9.31a9.37,9.37,0,0,0-4.41.88,33.1,33.1,0,0,0-5.35,3.11c-1.1.74-2.24,1.58-3.39,2.48-4.25,3.33-8.5,7.51-10.27,11.14l-.29.33-.77-.69-.4-.34c-1-.86-2.53-1.95-4.26-3.12s-3.42-2.23-5.33-3.32C18.22,29.15,13.23,27,9.53,26.84c-2.32-.08-4.13.65-5,2.63C-4.9,51.29,8.35,116,14.7,142.76c1,4,2.64,6.11,4.7,6.93l.07,0c5.15,2,12.56-4.12,16.39-9.55.41-.58.8-1.16,1.17-1.76l1.17.47c7.81,6.79,16.32,10.26,22.35,6.54l0,0c3.21-2,5.72-6,7-12.7C74.57,97.4,70.3,48.68,64.89,30.55Z"/><path class="cls-4" d="M46.91,24.45a11.54,11.54,0,0,0-13.1-1.64,11.41,11.41,0,0,0-5.34,6.94l-.09,0a49.08,49.08,0,0,0-6.32-11c-.44-.57-1-1.19-1.75-1a1.31,1.31,0,0,0-1,1,3.62,3.62,0,0,0,0,1.5,49.43,49.43,0,0,0,3.47,11.26l-.13.23c1.91,1.09,3.73,2.23,5.33,3.32s3.21,2.26,4.26,3.12l.4.34.77.69.29-.33c1.77-3.63,6-7.81,10.27-11.14,1.15-.9,2.29-1.74,3.39-2.48Z"/><path class="cls-5" d="M50.36,17.56c.74.62,1.81-.44,1.07-1.06l-.31-.25c-.73-.62-1.8.44-1.06,1.06Zm-41,50a.81.81,0,0,1-.85-.89.83.83,0,0,1,1-.56.75.75,0,0,0,.4-1.45A2.34,2.34,0,0,0,7,66.37,2.31,2.31,0,0,0,9.34,69,.75.75,0,0,0,9.34,67.51ZM25.72,15l.73-.42a.75.75,0,0,0-.75-1.29l-.74.41A.75.75,0,0,0,25.72,15Zm-10.88,19c7.68,4.25,16.08,9,19.75,17.38,3.46,7.93,3.25,17.93,3.51,26.45,0,1,1.53,1,1.5,0-.27-8.86,0-19.5-3.9-27.7-4-8.36-12.34-13.13-20.1-17.42C14.76,32.14,14,33.44,14.84,33.9Zm18.23,96.74-.18-.06c-.92-.28-1.32,1.17-.39,1.45l.17.05A.75.75,0,0,0,33.07,130.64Zm5.08-49.58c0,.64,0,1.28,0,1.92a.75.75,0,0,0,1.5,0c0-.64,0-1.28,0-1.92A.75.75,0,0,0,38.15,81.06ZM27.58,19.83a.75.75,0,0,0,0-1.5A.75.75,0,0,0,27.58,19.83Zm-1.4-4-.19.23c-.62.73.44,1.8,1.06,1.06l.19-.23C27.86,16.15,26.8,15.08,26.18,15.82ZM47.62,20.6c.81.53,1.56-.77.75-1.3a.29.29,0,0,1-.12-.18.75.75,0,0,0-1-.27.76.76,0,0,0-.27,1A1.66,1.66,0,0,0,47.62,20.6Zm-6.89-5.34.14.06a.75.75,0,1,0,.4-1.44l-.14-.06a.75.75,0,1,0-.4,1.44Zm1-2.49c.79.55,1.55-.75.76-1.29l-.45-.32c-.8-.55-1.55.75-.76,1.3ZM9.06,74.25l-.7.68c-.7.67.36,1.73,1.06,1.06l.7-.68C10.82,74.63,9.75,73.57,9.06,74.25Zm22.41,60-.3-.25c-.74-.62-1.8.44-1.06,1.06l.3.25C31.14,135.93,32.21,134.87,31.47,134.25ZM61.7,58.79c.19-.26.37-.53.56-.8.55-.8-.75-1.55-1.3-.76l-.55.81C59.86,58.83,61.16,59.58,61.7,58.79Zm.66,25.59.56-.8c.55-.8-.75-1.55-1.3-.76l-.55.81C60.52,84.42,61.82,85.17,62.36,84.38Zm-.9,9.68a.75.75,0,0,0-.4,1.44,2.63,2.63,0,0,0,3-3.69c-1.06-2.17-3.86-2-5.17-.18-.57.78.73,1.53,1.3.75a1.48,1.48,0,0,1,2.48,0A1.13,1.13,0,0,1,61.46,94.06Zm-6-14.57L54.62,79c-.81-.54-1.56.76-.75,1.29l.81.54C55.49,81.32,56.24,80,55.44,79.49Zm-.52,15.19-.56.8c-.55.8.75,1.55,1.3.76l.55-.81C56.76,94.64,55.46,93.89,54.92,94.68ZM60,72.79c-.57.78.73,1.53,1.3.76a1.48,1.48,0,0,1,2.48,0,1.13,1.13,0,0,1-1.25,1.68.75.75,0,0,0-.4,1.45,2.64,2.64,0,0,0,3-3.7C64.12,70.8,61.32,71,60,72.79ZM51.69,137c0,.13-.1.27-.14.4-.32.91,1.12,1.3,1.44.4,0-.13.1-.27.14-.4C53.46,136.48,52,136.09,51.69,137ZM15.16,83.93c.45-.85-.85-1.61-1.29-.76a1.51,1.51,0,0,1-2.39.63,1.14,1.14,0,0,1,.94-2c1,.08.95-1.42,0-1.5a2.63,2.63,0,0,0-2.29,4.19A3,3,0,0,0,15.16,83.93Zm55.32-29.6C69.79,48.4,69,42.47,67.7,36.63c-1-4.66-2-10.28-5.27-13.92a7.66,7.66,0,0,0-3.49-2.28,5.4,5.4,0,0,0,.27-2.69A5.11,5.11,0,0,0,57,14.23a8.2,8.2,0,0,0-.82-.46,2.63,2.63,0,0,1-.94-.62,2.66,2.66,0,0,1-.08-1.57,7.14,7.14,0,0,0,0-2.07A4,4,0,0,0,48.66,7.2,5.36,5.36,0,0,0,47.2,9.45a1.53,1.53,0,0,1-.69-.9,6.32,6.32,0,0,1,0-2.33c.05-.32.09-.63.12-.94.18-2-.36-3.63-1.53-4.53a4.51,4.51,0,0,0-5.08.09A12.29,12.29,0,0,0,37.9,2.72c-.29.29-.58.59-.89.87a3.46,3.46,0,0,1-2.46,1.1,4.57,4.57,0,0,1-2.06-1.34,10.08,10.08,0,0,0-1.91-1.47,5.6,5.6,0,0,0-8.31,4.53,9,9,0,0,0,.09,1.82,7.66,7.66,0,0,1,.09,1.31c0,.62-.34,1.13-.59,1.17s-.65-.27-.95-.71a7.23,7.23,0,0,1-.45-.76,8,8,0,0,0-1.1-1.61,4.55,4.55,0,0,0-7.84,2.81,7.77,7.77,0,0,0,.69,3.27c.13.34.26.67.36,1,.25.84.21,1.87-.28,2.16s-.95.06-1.86-.21a6.36,6.36,0,0,0-2.89-.38A3.75,3.75,0,0,0,4.89,18.2a5.2,5.2,0,0,0-.37,4.34A8.34,8.34,0,0,0,7,25.85,5.9,5.9,0,0,0,3.81,28.2C.26,33.34.28,42.16.08,48.14A206.19,206.19,0,0,0,1.79,79,565.28,565.28,0,0,0,13.5,143.09c.92,3.35,2.54,5.73,4.66,7a1,1,0,0,0,.61.68c6.08,2.82,14,2.25,20.52,1.7,7.22-.6,15.52-1.64,21.67-5.83a12.43,12.43,0,0,0,2.35-1.81c4.63-4.51,5.58-11.57,6.54-17.63a219.22,219.22,0,0,0,2.36-24.4A304.22,304.22,0,0,0,70.48,54.33ZM6.86,21.65a2.73,2.73,0,0,1,.19-2.2,1.29,1.29,0,0,1,.89-.69,4.41,4.41,0,0,1,1.77.31,4.64,4.64,0,0,0,3.84,0c1.72-1,1.95-3.25,1.41-5-.12-.4-.26-.79-.41-1.18A5.55,5.55,0,0,1,14,10.62a2.12,2.12,0,0,1,1.35-1.79,2.15,2.15,0,0,1,2.18.52,5.77,5.77,0,0,1,.73,1.11,9,9,0,0,0,.56.94,3.58,3.58,0,0,0,3.37,1.78A3.57,3.57,0,0,0,25,9.67a9.68,9.68,0,0,0-.11-1.73,8.23,8.23,0,0,1-.08-1.36,3.12,3.12,0,0,1,4.61-2.52A8.34,8.34,0,0,1,30.81,5.2a6.51,6.51,0,0,0,3.37,2,5.61,5.61,0,0,0,4.51-1.72c.35-.31.67-.64,1-1A10.19,10.19,0,0,1,41.39,3a2.12,2.12,0,0,1,2.22-.22c.65.5.61,1.79.56,2.32,0,.28-.07.56-.1.84a8.21,8.21,0,0,0,0,3.31,4,4,0,0,0,2,2.52,1.92,1.92,0,0,0,.31.11l-.8,2.64A1.25,1.25,0,1,0,48,15.2l1.22-4a4.43,4.43,0,0,1,1-2.12,1.54,1.54,0,0,1,1.46-.27,1.57,1.57,0,0,1,1,1.13,5.24,5.24,0,0,1,0,1.35,4.55,4.55,0,0,0,.5,3.26A4.69,4.69,0,0,0,55,16c.21.11.42.21.61.33a2.8,2.8,0,0,1,.68,3.78c-2.71.13-5.51,1.48-8,3l-.58.37A11.55,11.55,0,0,0,45,21.6,4,4,0,0,0,44.11,19a6.44,6.44,0,0,0-1.49-1.28,5.79,5.79,0,0,0-1.76-.88,3.46,3.46,0,0,0-2.56.37L38,15.07a6.2,6.2,0,0,0-.6-2.05,2.74,2.74,0,0,0-5.14.45A6,6,0,0,0,32,16l.46,6.11-.16.11a3.27,3.27,0,0,0-2.23-1.42,3.81,3.81,0,0,0-2.46.78l-.24.15a1.5,1.5,0,0,1-.59.23,1.24,1.24,0,0,0-1.1-.17c-.83-1.32-1.7-2.62-2.66-3.87s-1.93-1.73-3-1.52a2.57,2.57,0,0,0-1.94,2,5,5,0,0,0,.05,2c.06.33.14.66.21,1a4.15,4.15,0,0,0-1.28.52L15,23.13a4.34,4.34,0,0,0-1.52,1.27,2.88,2.88,0,0,0-.5,1.65,15.72,15.72,0,0,0-2.39-.46,1.09,1.09,0,0,0-.35-.39C8.72,24.08,7.38,23,6.86,21.65Zm29.76,3.11a9.29,9.29,0,0,0-5.22,6,11.67,11.67,0,0,0-.34,4.77c-.53-.41-1.07-.81-1.62-1.19a10.35,10.35,0,0,1,5-10.42A10.38,10.38,0,0,1,45.6,25l-1.32.93A7.57,7.57,0,0,0,36.62,24.76Zm5.6,2.7a38.39,38.39,0,0,0-8.44,9,9.54,9.54,0,0,1,0-5,6.82,6.82,0,0,1,3.77-4.38A5.16,5.16,0,0,1,42.22,27.46Zm-13.84-.8c-.36-.74-.75-1.47-1.14-2.2a3.89,3.89,0,0,0,1.45-.55l.27-.17a2.36,2.36,0,0,1,.88-.42c.09,0,.27.14.58.56A12.92,12.92,0,0,0,28.38,26.66Zm6.21-12.35a.62.62,0,0,1,.3-.38.66.66,0,0,1,.29.29,4.21,4.21,0,0,1,.32,1.24l.8,5.09a13,13,0,0,0-1.39.4l-.39-5.1A4,4,0,0,1,34.59,14.31Zm4.17,5.84a1.21,1.21,0,0,0,.42-.42,1,1,0,0,1,1.07-.46,3.58,3.58,0,0,1,1,.53,4.59,4.59,0,0,1,.95.77h0a13.33,13.33,0,0,0-3.39-.35ZM20.57,19s0,0,0,0a2.51,2.51,0,0,1,.49.52A47.22,47.22,0,0,1,27.12,30a12.75,12.75,0,0,0-.31,2.61C25.88,32,25,31.46,24,30.93A48,48,0,0,1,20.64,20,2.79,2.79,0,0,1,20.57,19Zm0,10.13-.41-.21c-1.21-.6-2.72-1.32-4.34-2a1.18,1.18,0,0,0-.23-.74.42.42,0,0,1,0-.42,2.36,2.36,0,0,1,.71-.51l2.07-1.18c.1-.06.25-.15.36-.2a1,1,0,0,0,.28.18A52.21,52.21,0,0,0,20.56,29.13Zm-4.65,113.3c-3.53-14.94-6.59-30-9-45.15-2.66-16.5-5-33.46-4.25-50.22A69.65,69.65,0,0,1,3.74,36.68c.45-2.33,1-6.79,3.22-8.13,2.82-1.71,7.84.66,10.4,1.8A67.85,67.85,0,0,1,27.5,36.14c8.61,5.84,12.66,13.7,13.77,24,1.25,11.47,1.48,23.24,1.87,34.77.46,13.5.78,28.05-5.72,40.34C33.79,142.1,20,157.15,15.91,142.43ZM39.29,150a66.59,66.59,0,0,1-13.15.24,14.23,14.23,0,0,0,2.06-1A29.61,29.61,0,0,0,37.55,140c3.86,3.24,9.24,6.89,14.6,7.94A65.61,65.61,0,0,1,39.29,150Zm28.15-23.44c-.91,5.73-1.91,14.21-7.26,17.66a1.27,1.27,0,0,0-.23.12l-.13.09a9.54,9.54,0,0,1-2.42,1c-6.63,1.68-13.59-3.4-18.31-7.4a1.18,1.18,0,0,0-.24-.17,48.57,48.57,0,0,0,4.91-12.54c3.48-14.21,2-29.43,1.24-43.87-.62-11.41.36-24.72-4.8-35.27a25.9,25.9,0,0,0-2.6-4.21A40.11,40.11,0,0,1,52.5,29.12c.86-.43.1-1.72-.76-1.29A41.6,41.6,0,0,0,36.63,40.74c-.48-.57-1-1.12-1.52-1.66C38.55,33,45,27.82,51,24.44c4.31-2.42,8.38-2.72,11,2.09A34,34,0,0,1,64.77,35c3.17,13.36,4.31,27.3,4.91,41C70.42,92.79,70.07,109.86,67.44,126.53Zm-3.95-26.29-.8.56c-.79.55,0,1.85.75,1.3l.8-.56C65,101,64.28,99.68,63.49,100.24Zm-1,7a.77.77,0,0,0-.92.52.75.75,0,0,0,.52.92c.47.07,1,.48.8,1a.82.82,0,0,1-1.05.45c-.87-.4-1.64.89-.76,1.3a2.35,2.35,0,0,0,3.21-1.22A2.32,2.32,0,0,0,62.48,107.2ZM17.78,78.65l-.43.88c-.41.87.88,1.63,1.3.76l.42-.88C19.48,78.54,18.19,77.78,17.78,78.65Zm-.08,37.93-.43.88c-.41.87.88,1.63,1.3.76l.42-.88C19.4,116.47,18.11,115.71,17.7,116.58ZM15.77,102a1.51,1.51,0,0,1-2.39.62,1.14,1.14,0,0,1,.94-2c1,.08.95-1.42,0-1.5A2.63,2.63,0,0,0,12,103.29a3,3,0,0,0,5-.59C17.5,101.85,16.21,101.09,15.77,102ZM13,91.41l-.42.88c-.42.87.88,1.63,1.29.76l.42-.88C14.73,91.3,13.44,90.54,13,91.41ZM45.24,134l0,.11c-.23.94,1.22,1.34,1.44.4l0-.11C46.91,133.42,45.47,133,45.24,134ZM22.12,94.31l-.89-.4a.79.79,0,0,0-1,.27.76.76,0,0,0,.27,1l.89.4a.78.78,0,0,0,1-.27A.77.77,0,0,0,22.12,94.31Zm26.55,41-.07.32c-.23.94,1.22,1.34,1.44.4l.08-.32C50.34,134.73,48.9,134.33,48.67,135.27Zm-19.81,1.49a1,1,0,0,1-.23-.24c-.55-.79-1.85,0-1.3.75a3.61,3.61,0,0,0,.77.79.76.76,0,0,0,1-.27A.77.77,0,0,0,28.86,136.76Zm-2.65,1.62c-.62-.74-1.68.33-1.06,1.06l.6.73c.62.75,1.67-.32,1.06-1.06Z"/></g></g></svg>