<svg xmlns="http://www.w3.org/2000/svg" viewBox="0 0 122.66 65.74"><defs><style>.cls-1{fill:#f99507;}.cls-2{fill:#ffb339;}.cls-3{fill:#442a11;}</style></defs><g id="Laag_2" data-name="Laag 2"><g id="objects"><path class="cls-1" d="M43.86,32.54l-.39.59c-1.71,1.27-4.13.95-6.09.12s-3.73-2.12-5.78-2.7a18.15,18.15,0,0,0-7.38-.06L13.57,31.86c-2.47.32-5.06.62-7.39-.26a7.84,7.84,0,0,1-4.91-7.68c.13-1.73.84-3.37,1.13-5.08.48-2.8,0-6,1.82-8.18A6.32,6.32,0,0,1,10,9a24.35,24.35,0,0,1,5.88,2.22,54.35,54.35,0,0,0,25,4.86,11.8,11.8,0,0,0,5.77-1.38,14.43,14.43,0,0,1,2.82-1.79c1.35-.45,2.83,0,4.24-.19,1.92-.2,3.56-1.42,5.18-2.48A42,42,0,0,1,77.19,4C78.28,2.26,81,1.45,83,1.28a19.94,19.94,0,0,1,6.16.82l9,2.18a8.89,8.89,0,0,1,4.51,2c2,2.12,1.54,5.64,2.92,8.25.92,1.76,2.63,3,3.85,4.52,3.17,4,2.93,9.92,2.33,15,1.4.82,1.08,3.23-.09,4.35s-2.79,1.8-3.65,3.17c-1.11,1.76-.75,4.37-2.38,5.66-1.46,1.16-3.66.55-5.36,1.28-1.37.59-2.28,2-3.67,2.51-2.42.92-4.9-1.12-7.45-1.59-2.89-.52-5.72,1-8.62,1.42-5.34.79-10.44-2.13-15-4.94l-9.84-6C51.73,37.55,47.75,35.12,43.86,32.54ZM95.67,13.2a.07.07,0,1,0-.14,0,.07.07,0,0,0,.14,0Zm-4-3.51A.57.57,0,0,0,92,9a.59.59,0,0,0-.77-.3.6.6,0,0,0-.36.75A.59.59,0,0,0,91.63,9.69Zm-6-.48a.07.07,0,1,0-.14,0,.07.07,0,0,0,.05.08A.06.06,0,0,0,85.6,9.21ZM77.53,22.49a.09.09,0,0,0,.07-.1.08.08,0,1,0-.16,0A.07.07,0,0,0,77.53,22.49ZM65.9,18.65a.06.06,0,0,0,0-.09.07.07,0,0,0-.09.05.08.08,0,0,0,0,.09A.07.07,0,0,0,65.9,18.65Z"/><path class="cls-2" d="M91.21,8.65a.6.6,0,0,0-.36.75.59.59,0,0,0,.78.29A.57.57,0,0,0,92,9,.59.59,0,0,0,91.21,8.65Zm-5.8,52.58a1.91,1.91,0,1,0,2.71.5A2,2,0,0,0,85.41,61.23ZM77.5,22.32a.08.08,0,0,0-.06.1.07.07,0,0,0,.09.07.09.09,0,0,0,.07-.1A.08.08,0,0,0,77.5,22.32ZM85.6,9.21a.07.07,0,1,0-.14,0,.07.07,0,0,0,.05.08A.06.06,0,0,0,85.6,9.21Zm-19.83,9.4a.08.08,0,0,0,0,.09.07.07,0,0,0,.08-.05.06.06,0,0,0,0-.09A.07.07,0,0,0,65.77,18.61Zm55.23.12a.54.54,0,0,0-.4.51.3.3,0,0,0,.41.29.56.56,0,0,0,.4-.51A.3.3,0,0,0,121,18.73Zm-7-4.55c-.19,0-.31.31-.28.59s.22.49.41.45a.52.52,0,0,0,.28-.6C114.4,14.34,114.22,14.14,114,14.18Zm-1.56-8.82a1.75,1.75,0,0,0-1,2.24,1.7,1.7,0,1,0,1-2.24ZM103.3,61.7a.91.91,0,1,0,1,1.53.94.94,0,0,0,.3-1.29A.92.92,0,0,0,103.3,61.7ZM95.53,13.16a.07.07,0,0,0,.14,0,.07.07,0,1,0-.14,0Zm-1.27,45c-.27.11-.42.33-.33.51a.52.52,0,0,0,.64.12c.27-.11.42-.33.33-.51A.51.51,0,0,0,94.26,58.11Z"/><path class="cls-3" d="M11.51,24.93c0,.3,0,.6,0,.9-.05,1,1.45,1,1.5,0,0-.3,0-.6,0-.9C13.05,24,11.55,24,11.51,24.93Zm54.34-7.12a.82.82,0,1,0,.65.35A.61.61,0,0,0,65.85,17.81Zm.46,1.29h0l0,0ZM19.19,24.64v.24c0,1,1.54,1,1.5,0v-.24C20.65,23.68,19.15,23.67,19.19,24.64ZM95.47,57.12A1.74,1.74,0,0,0,93.63,57a1.6,1.6,0,0,0-.84,2.06c.76,1.72,3.49.85,3.37-.87a1.07,1.07,0,0,0-.14-.55A1.09,1.09,0,0,0,95.47,57.12Zm-1.81,1.29h0l0,.16Zm20.16-49a2.52,2.52,0,0,0-1.24-4.87.59.59,0,0,0-.31.06,2.53,2.53,0,0,0,1.55,4.81Zm-1.15-3.37c1.17-.33,1.92,1.45.75,1.92S111.51,6.55,112.67,6.08ZM84.83,60.41a2.91,2.91,0,1,0,4.15.82A3,3,0,0,0,84.83,60.41Zm.81,3c-.71-.95.92-2.12,1.61-1.16S86.36,64.36,85.64,63.4Zm19.48-2.32a1.93,1.93,0,0,0-2.33-.25,1.91,1.91,0,1,0,2.66.61A1,1,0,0,0,105.12,61.08ZM7.07,24.17,7,25.52c0,1,1.45,1,1.5,0l.06-1.35C8.61,23.2,7.11,23.21,7.07,24.17Zm8.52,1.11c0,.16,0,.33,0,.49.05,1,1.55,1,1.5,0,0-.16,0-.33,0-.49C17.05,24.32,15.55,24.31,15.59,25.28ZM96.16,43.46l-.06.24a.75.75,0,0,0,1.45.4l0-.24A.75.75,0,0,0,96.16,43.46ZM77.81,21.64a.64.64,0,0,0-.69,0,.83.83,0,1,0,.69,0Zm18.45-8.93a.6.6,0,0,0-.64-.35.82.82,0,1,0,.64.35Zm-.19.94h0l0,0Zm17.07,19.93c.57-5.27.6-11.09-2.67-15.26a22.34,22.34,0,0,0-1.65-1.81A11.23,11.23,0,0,1,106.74,14a12.22,12.22,0,0,1-.95-3.26c-.36-1.86-.73-3.78-2.17-5.27A10,10,0,0,0,98.5,3.06l-9-2.18A20.84,20.84,0,0,0,82.93,0c-2.22.17-5,1-6.43,2.81A42.89,42.89,0,0,0,58.22,9.19l-.52.35a9.78,9.78,0,0,1-4.1,1.94,10.78,10.78,0,0,1-1.5,0,8.07,8.07,0,0,0-3,.25A8.05,8.05,0,0,0,46.86,13c-.28.21-.56.42-.86.61a10.64,10.64,0,0,1-5.16,1.19,53,53,0,0,1-24.42-4.75l-.86-.39a20.4,20.4,0,0,0-5.33-1.92,7.53,7.53,0,0,0-7,2.06c-1.6,1.83-1.75,4.24-1.88,6.36a22.73,22.73,0,0,1-.23,2.44c-.12.65-.3,1.3-.49,2A16.4,16.4,0,0,0,0,23.83a9.06,9.06,0,0,0,5.72,8.94c2.67,1,5.61.63,8,.33l10.64-1.38c2.32-.29,4.71-.6,6.88,0a16.87,16.87,0,0,1,3.27,1.48c.75.4,1.54.82,2.37,1.17,2.76,1.18,5.38,1.11,7.22-.18,3.62,2.36,7.34,4.63,11,6.83l9.84,6C70.08,50.2,75.19,53,80.78,52.15A25.13,25.13,0,0,0,84,51.4a11.38,11.38,0,0,1,5-.68,13.31,13.31,0,0,1,2.43.81,10.6,10.6,0,0,0,3.94,1,5,5,0,0,0,1.75-.32,7.67,7.67,0,0,0,2.27-1.5,6.39,6.39,0,0,1,1.45-1,6.49,6.49,0,0,1,2-.35,6.42,6.42,0,0,0,3.65-1.1,6.33,6.33,0,0,0,2-3.85,7,7,0,0,1,.71-2.13A6.63,6.63,0,0,1,111,40.64a12.7,12.7,0,0,0,1.63-1.28A4.86,4.86,0,0,0,114,35.47,3.35,3.35,0,0,0,113.14,33.58Zm-2.27,4a13.86,13.86,0,0,1-1.34,1A8.47,8.47,0,0,0,107,41a9.34,9.34,0,0,0-1,2.89,4.39,4.39,0,0,1-1.06,2.46,4.29,4.29,0,0,1-2.3.56,8.58,8.58,0,0,0-2.78.55,8.3,8.3,0,0,0-2.08,1.43,5.57,5.57,0,0,1-1.53,1.06c-1.11.42-2.39-.09-3.87-.69a15.14,15.14,0,0,0-2.92-1A8.38,8.38,0,0,0,88,48.13a17.37,17.37,0,0,0-4.67.86,24.26,24.26,0,0,1-2.87.69c-4.76.69-9.44-1.86-14.22-4.78l-9.84-6c-4.27-2.61-8.68-5.3-12.89-8.12a1.25,1.25,0,0,0-1.69,1.79,6.5,6.5,0,0,1-3.92-.49c-.72-.3-1.42-.68-2.16-1.08A19.26,19.26,0,0,0,32,29.34c-2.68-.77-5.45-.41-7.9-.09L13.41,30.62c-2.21.28-4.7.6-6.79-.19A6.57,6.57,0,0,1,2.52,24a14.15,14.15,0,0,1,.57-2.73,21.37,21.37,0,0,0,.54-2.23,25.19,25.19,0,0,0,.27-2.7c.11-1.9.22-3.69,1.26-4.87S8.31,10,9.81,10.23A18.53,18.53,0,0,1,14.5,12l.87.41a55.76,55.76,0,0,0,25.58,5,12.9,12.9,0,0,0,6.37-1.57c.36-.22.7-.48,1-.73a5.93,5.93,0,0,1,1.52-.94A5.89,5.89,0,0,1,52,14a12,12,0,0,0,1.89,0,12,12,0,0,0,5.22-2.34l.51-.34a40.38,40.38,0,0,1,17.73-6,1.25,1.25,0,0,0,.94-.59c.78-1.29,3-2,4.86-2.16a18.81,18.81,0,0,1,5.77.78l9,2.18a7.87,7.87,0,0,1,3.91,1.69c.93,1,1.21,2.45,1.52,4,0,.28.11.56.17.84a1.27,1.27,0,0,0,0,.51,15.11,15.11,0,0,1-.27,8.14c-.48,1.55,1.93,2.2,2.41.67a18.12,18.12,0,0,0,.72-3.75l.65.67a17.7,17.7,0,0,1,1.46,1.59c2.86,3.64,2.65,9.17,2.08,14.1a1.24,1.24,0,0,0,.61,1.22.73.73,0,0,1,.29.59A2.36,2.36,0,0,1,110.87,37.56ZM121,17.48a.83.83,0,0,0-.15,0h0a1.38,1.38,0,0,0-.29.08l-.14,0a1.75,1.75,0,0,0-1,2,1.58,1.58,0,0,0,1.94,1.11A1.85,1.85,0,0,0,122.66,19,1.55,1.55,0,0,0,121,17.48Zm-7-4.55a1.28,1.28,0,0,0-.61.16h0c-1.7.74-.78,3.84,1.1,3.32S115.93,12.9,114,12.93Zm-.15,2.49h0ZM94.37,19.74A1.25,1.25,0,0,0,93,20.85a1.46,1.46,0,0,1-2.65.67,1.25,1.25,0,0,0-2.06,1.42,4,4,0,0,0,3.3,1.71,3.71,3.71,0,0,0,.93-.12,4,4,0,0,0,3-3.42A1.25,1.25,0,0,0,94.37,19.74ZM86.23,8.39a.84.84,0,0,0-.68-.27l-.3.06-.13.05a1,1,0,0,0-.63.67,1.09,1.09,0,0,0,.63,1.27c1,.43,2-1,1.14-1.76ZM84.67,39.58l-.45,1.28c-.31.91,1.14,1.3,1.45.4.15-.43.3-.85.44-1.28C86.43,39.07,85,38.67,84.67,39.58Zm7.86,3.48-.12.48a.75.75,0,0,0,1.45.39l.11-.47A.75.75,0,0,0,92.53,43.06ZM78,13.61a1.25,1.25,0,0,0-1.63.69,1.45,1.45,0,0,1-2.73-.08,1.25,1.25,0,0,0-2.37.8,4,4,0,0,0,3.63,2.69H75a4,4,0,0,0,3.68-2.49A1.24,1.24,0,0,0,78,13.61Zm10.75,28-.3.85c-.31.92,1.13,1.31,1.45.4.1-.28.2-.57.29-.85C90.47,41.06,89,40.66,88.71,41.57Zm4-32.69v0a.5.5,0,0,0,0-.12.31.31,0,0,0,0-.1s0-.05,0-.08l0-.06,0-.06a1.36,1.36,0,0,0-2.38,1.25C90.77,11.17,93,10.36,92.73,8.88Z"/></g></g></svg>