<svg xmlns="http://www.w3.org/2000/svg" viewBox="0 0 122.66 65.74"><defs><style>.cls-1{fill:#f99507;}.cls-2{fill:#ffb339;}.cls-3{fill:#442a11;}</style></defs><g id="Laag_2" data-name="Laag 2"><g id="objects"><path class="cls-1" d="M67,40l-9.84,6c-4.61,2.81-9.71,5.73-15,4.94-2.9-.42-5.73-1.94-8.62-1.42-2.55.47-5,2.51-7.45,1.59-1.39-.52-2.3-1.92-3.67-2.51-1.7-.73-3.9-.12-5.36-1.28-1.63-1.29-1.27-3.9-2.38-5.66-.86-1.37-2.49-2-3.65-3.17s-1.49-3.53-.09-4.35c-.6-5.1-.84-11,2.33-15,1.22-1.56,2.93-2.76,3.85-4.52,1.38-2.61.87-6.13,2.92-8.25a8.89,8.89,0,0,1,4.51-2l9-2.18a19.94,19.94,0,0,1,6.16-.82c2.08.17,4.75,1,5.84,2.76a42,42,0,0,1,18.28,6.2c1.62,1.06,3.26,2.28,5.18,2.48,1.41.15,2.89-.26,4.24.19A14.43,14.43,0,0,1,76,14.7a11.8,11.8,0,0,0,5.77,1.38,54.35,54.35,0,0,0,25-4.86A24.35,24.35,0,0,1,112.64,9a6.32,6.32,0,0,1,5.8,1.66c1.87,2.14,1.34,5.38,1.82,8.18.29,1.71,1,3.35,1.13,5.08a7.84,7.84,0,0,1-4.91,7.68c-2.33.88-4.92.58-7.39.26L98.44,30.49a18.15,18.15,0,0,0-7.38.06c-2,.58-3.82,1.86-5.78,2.7s-4.38,1.15-6.09-.12l-.39-.59C74.91,35.12,70.93,37.55,67,40ZM27.08,13.25a.08.08,0,0,0,.05-.09.07.07,0,0,0-.14,0A.08.08,0,0,0,27.08,13.25ZM31.81,9.4a.6.6,0,0,0-.36-.75.59.59,0,0,0-.77.3.57.57,0,0,0,.35.74A.59.59,0,0,0,31.81,9.4Zm5.34-.15a.07.07,0,0,0,.05-.08.07.07,0,0,0-.14,0A.06.06,0,0,0,37.15,9.25Zm8.07,13.17a.08.08,0,1,0-.16,0,.09.09,0,0,0,.07.1A.07.07,0,0,0,45.22,22.42ZM56.84,18.7a.08.08,0,0,0,0-.09.07.07,0,0,0-.09-.05.06.06,0,0,0,0,.09A.07.07,0,0,0,56.84,18.7Z"/><path class="cls-2" d="M30.68,9a.57.57,0,0,0,.35.74.59.59,0,0,0,.78-.29.6.6,0,0,0-.36-.75A.59.59,0,0,0,30.68,9Zm3.86,52.78a2,2,0,1,0,2.71-.5A2,2,0,0,0,34.54,61.73ZM45.06,22.39a.09.09,0,0,0,.07.1.07.07,0,0,0,.09-.07.08.08,0,1,0-.16,0ZM37.15,9.25a.07.07,0,0,0,.05-.08.07.07,0,0,0-.14,0A.06.06,0,0,0,37.15,9.25ZM56.8,18.56a.06.06,0,0,0,0,.09.07.07,0,0,0,.08.05.08.08,0,0,0,0-.09A.07.07,0,0,0,56.8,18.56ZM1.25,19a.56.56,0,0,0,.4.51.3.3,0,0,0,.41-.29.54.54,0,0,0-.4-.51A.3.3,0,0,0,1.25,19Zm7-4.4a.52.52,0,0,0,.28.6c.19,0,.37-.16.41-.45s-.09-.55-.28-.59S8.26,14.34,8.22,14.62ZM8,6.49A1.7,1.7,0,1,0,11.22,7.6,1.7,1.7,0,1,0,8,6.49ZM18.07,61.94a.94.94,0,0,0,.3,1.29.91.91,0,1,0-.3-1.29Zm9-48.83a.07.07,0,0,0-.05.09.07.07,0,1,0,.14,0A.07.07,0,0,0,27,13.11Zm.72,45.12c-.09.18.06.4.33.51a.52.52,0,0,0,.64-.12c.09-.18-.06-.4-.33-.51A.51.51,0,0,0,27.76,58.23Z"/><path class="cls-3" d="M109.65,24.93c0,.3,0,.6,0,.9,0,1,1.54,1,1.5,0,0-.3,0-.6,0-.9C111.1,24,109.6,24,109.65,24.93ZM56.16,18.16a.81.81,0,1,0,.64-.35A.6.6,0,0,0,56.16,18.16Zm.18.93a0,0,0,0,1,0,0h0ZM102,24.64v.24c0,1,1.45,1,1.5,0v-.24C103.51,23.67,102,23.68,102,24.64Zm-75.33,33a.91.91,0,0,0-.14.55c-.12,1.72,2.6,2.59,3.37.87A1.62,1.62,0,0,0,29,57a1.75,1.75,0,0,0-1.85.09A1.07,1.07,0,0,0,26.64,57.67Zm2.32.89a1.1,1.1,0,0,0,0-.16h0Zm-17-50.68a2.53,2.53,0,0,0-1.52-3.24.61.61,0,0,0-.31-.06A2.52,2.52,0,0,0,8.83,9.45,2.52,2.52,0,0,0,11.91,7.88ZM9.23,8c-1.17-.47-.41-2.25.76-1.92S10.38,8.47,9.23,8ZM33.68,61.23a3,3,0,1,0,4.15-.82A3,3,0,0,0,33.68,61.23Zm1.72,1c.7-1,2.32.21,1.61,1.16S34.81,63.24,35.4,62.24Zm-18.2-.8a2,2,0,1,0,2.67-.61,1.92,1.92,0,0,0-2.33.25A.91.91,0,0,0,17.2,61.44Zm96.89-37.27.06,1.35c0,1,1.54,1,1.5,0l-.06-1.35C115.54,23.21,114,23.2,114.09,24.17Zm-8.53,1.11c0,.16,0,.33,0,.49,0,1,1.46,1,1.5,0,0-.16,0-.33,0-.49C107.1,24.31,105.6,24.32,105.56,25.28ZM25.05,43.86l.06.24c.23.94,1.68.54,1.45-.4l-.06-.24A.75.75,0,0,0,25.05,43.86ZM45,23.22a.83.83,0,0,0,.5-1.55.63.63,0,0,0-.68,0A.82.82,0,0,0,45,23.22ZM27.37,13.93A.82.82,0,0,0,27,12.36a.6.6,0,0,0-.64.35A.82.82,0,0,0,27.37,13.93Zm-.79-.29,0,0h0ZM8.69,35.47a4.86,4.86,0,0,0,1.37,3.89,13.35,13.35,0,0,0,1.62,1.28,6.63,6.63,0,0,1,1.84,1.65,7.29,7.29,0,0,1,.72,2.13,6.33,6.33,0,0,0,2,3.85,6.37,6.37,0,0,0,3.64,1.1,6.5,6.5,0,0,1,2,.35,6.34,6.34,0,0,1,1.44,1,7.8,7.8,0,0,0,2.27,1.5,5,5,0,0,0,1.75.32,10.6,10.6,0,0,0,3.95-1,13.06,13.06,0,0,1,2.43-.81,11.38,11.38,0,0,1,5,.68,25.39,25.39,0,0,0,3.18.75c5.6.82,10.7-1.95,15.89-5.11l9.84-6c3.61-2.2,7.32-4.47,10.94-6.83,1.84,1.29,4.47,1.36,7.23.18.83-.35,1.61-.77,2.37-1.17a16.8,16.8,0,0,1,3.26-1.48c2.17-.62,4.57-.31,6.88,0l10.65,1.38c2.37.3,5.32.68,8-.33a9,9,0,0,0,5.71-8.94,15.71,15.71,0,0,0-.66-3.22,19.58,19.58,0,0,1-.48-2c-.13-.77-.18-1.58-.24-2.44-.13-2.12-.28-4.53-1.87-6.36a7.54,7.54,0,0,0-6.95-2.06,20.47,20.47,0,0,0-5.34,1.92l-.85.39a53.07,53.07,0,0,1-24.42,4.75,10.68,10.68,0,0,1-5.17-1.19c-.29-.19-.57-.4-.86-.61a8,8,0,0,0-2.22-1.31,8.09,8.09,0,0,0-3-.25,10.79,10.79,0,0,1-1.5,0A9.88,9.88,0,0,1,65,9.54l-.52-.35A42.85,42.85,0,0,0,46.16,2.85C44.69,1,41.94.21,39.73,0a20.81,20.81,0,0,0-6.55.84l-9,2.18A9.91,9.91,0,0,0,19,5.45c-1.44,1.49-1.82,3.41-2.18,5.27A11.53,11.53,0,0,1,15.91,14a11.17,11.17,0,0,1-2.07,2.53,20.73,20.73,0,0,0-1.66,1.81C8.91,22.49,9,28.31,9.52,33.58A3.35,3.35,0,0,0,8.69,35.47Zm2.48.3a.76.76,0,0,1,.3-.59A1.27,1.27,0,0,0,12.08,34C11.5,29,11.3,23.5,14.15,19.86a17.86,17.86,0,0,1,1.47-1.59l.65-.67A17.49,17.49,0,0,0,17,21.35c.47,1.53,2.88.88,2.41-.67a15,15,0,0,1-.27-8.14,1.49,1.49,0,0,0,0-.51c.06-.28.11-.56.17-.84a7.81,7.81,0,0,1,1.52-4,7.83,7.83,0,0,1,3.91-1.69l9-2.18a18.89,18.89,0,0,1,5.77-.78c1.86.14,4.08.87,4.87,2.16a1.25,1.25,0,0,0,.93.59,40.34,40.34,0,0,1,17.73,6l.51.34A12,12,0,0,0,68.79,14a12,12,0,0,0,1.89,0,5.87,5.87,0,0,1,2.09.12,5.61,5.61,0,0,1,1.52.94c.34.25.68.51,1,.73a12.91,12.91,0,0,0,6.38,1.57,55.74,55.74,0,0,0,25.57-5l.88-.41a18.47,18.47,0,0,1,4.68-1.72c1.5-.25,3.51-.06,4.65,1.25s1.15,3,1.27,4.87a22.86,22.86,0,0,0,.27,2.7c.13.77.34,1.52.53,2.23a13.48,13.48,0,0,1,.58,2.73A6.59,6.59,0,0,1,116,30.43c-2.08.79-4.58.47-6.78.19L98.6,29.25c-2.45-.32-5.22-.68-7.89.09A19,19,0,0,0,87,31a23,23,0,0,1-2.17,1.08,6.47,6.47,0,0,1-3.91.49,1.25,1.25,0,0,0-1.69-1.79C75,33.61,70.56,36.3,66.3,38.91l-9.84,6c-4.78,2.92-9.47,5.47-14.22,4.78A23.35,23.35,0,0,1,39.37,49a17.51,17.51,0,0,0-4.67-.86,8.3,8.3,0,0,0-1.48.13,14.91,14.91,0,0,0-2.92,1c-1.48.6-2.76,1.11-3.87.69a5.42,5.42,0,0,1-1.53-1.06,8.49,8.49,0,0,0-2.08-1.43A8.63,8.63,0,0,0,20,46.87a4.29,4.29,0,0,1-2.3-.56,4.33,4.33,0,0,1-1.07-2.46,9.31,9.31,0,0,0-1-2.89,8.71,8.71,0,0,0-2.51-2.36,11.77,11.77,0,0,1-1.34-1A2.36,2.36,0,0,1,11.17,35.77ZM0,19a1.84,1.84,0,0,0,1.32,1.72,1.58,1.58,0,0,0,1.94-1.11,1.76,1.76,0,0,0-1-2l-.13,0a1.67,1.67,0,0,0-.3-.08H1.81a.83.83,0,0,0-.15,0A1.55,1.55,0,0,0,0,19Zm8.16-2.6c1.88.52,2.8-2.58,1.1-3.32h0a1.28,1.28,0,0,0-.61-.16C6.72,12.9,6.35,15.92,8.16,16.42Zm.47-1h0Zm18.55,5.68a4,4,0,0,0,3,3.42,3.79,3.79,0,0,0,.94.12,4.05,4.05,0,0,0,3.3-1.71,1.25,1.25,0,1,0-2.06-1.42,1.46,1.46,0,0,1-2.66-.67,1.25,1.25,0,0,0-2.48.26ZM36.4,8.41c-.91.76.1,2.19,1.14,1.76a1.09,1.09,0,0,0,.62-1.27,1,1,0,0,0-.62-.67l-.14-.05a1.36,1.36,0,0,0-.29-.06.84.84,0,0,0-.68.27ZM36.54,40c.15.43.3.85.44,1.28.32.9,1.77.51,1.45-.4L38,39.58C37.67,38.67,36.23,39.07,36.54,40Zm-7.86,3.48.12.47a.75.75,0,0,0,1.45-.39l-.12-.48A.75.75,0,0,0,28.68,43.46ZM44,15.23a4,4,0,0,0,3.68,2.49h.11A4,4,0,0,0,51.43,15a1.25,1.25,0,0,0-2.37-.8,1.54,1.54,0,0,1-1.34,1,1.56,1.56,0,0,1-1.4-.92,1.25,1.25,0,0,0-2.32.93ZM32.5,42l.3.85c.31.91,1.76.52,1.44-.4L34,41.57C33.63,40.66,32.18,41.06,32.5,42Zm0-32.28a1.36,1.36,0,0,0-2.38-1.25.21.21,0,0,1,0,.06l0,.06a.26.26,0,0,0,0,.08.93.93,0,0,0-.05.1s0,.08,0,.12v0A1.36,1.36,0,0,0,32.49,9.69Z"/></g></g></svg>