<svg xmlns="http://www.w3.org/2000/svg" viewBox="0 0 89.37 79.26"><defs><style>.cls-1{fill:#f99507;}.cls-2{fill:#442a11;}</style></defs><g id="Laag_2" data-name="Laag 2"><g id="objects"><path class="cls-1" d="M70.12,11.94l0,.63c4.17,5.26,9.92,15,14.09,20.29,2.17,2.73,3.85,5.86,3.89,9.35-1.94.85-4.82.16-6.57-1s-3.2-2.8-5.07-3.81c-1.69-.91-5.29-4.59-7-5.45a18.5,18.5,0,0,1,2,12.5,9.45,9.45,0,0,0-.39,4.17c.49,2,2.55,3.52,2.3,5.54-.17,1.32-1.3,2.32-1.7,3.58-.5,1.58.19,3.36-.38,4.92a6.38,6.38,0,0,1-1.68,2.23c-2.09,2.06-4.4,4-6,6.45-1.45,2.27-3,2.65-5.49,3.68a7.34,7.34,0,0,1-5.22.19c-3.6-1.1-6.66-3.68-9.42-6.14a15.3,15.3,0,0,0-3.06-2.39,10.48,10.48,0,0,0-5.35-.82,5.46,5.46,0,0,1-3.38-.45,5.65,5.65,0,0,1-1.5-1.88,17.46,17.46,0,0,0-5.8-6.12C21.63,55.63,8.7,44.42,6,42.53c-2.14-1.51-4.47-3.35-4.75-6C.94,33.5,3.57,31,4.61,28.06c.6-1.69.68-3.57,1.53-5.16,1-1.77,3.09-3.64,5.1-3.71.61-2.2,3-4.53,5.25-4.57a21.47,21.47,0,0,0,3.1.11,27.87,27.87,0,0,0,3-1.06,5,5,0,0,1,5.39,2c1,1.59,11.35,13,12.52,14.51A15,15,0,0,0,43.6,32.6,9,9,0,0,1,45.78,35a10,10,0,0,1,.92-3.19c.84-1.82,2-3.48,2.72-5.35.77-2.05.94-4.3,1.77-6.33a20.79,20.79,0,0,1,3.22-4.94c1.35-1.7.43-8.81,2-10.27a20.59,20.59,0,0,1,4-2.83A7.31,7.31,0,0,1,64.63,1c2.46.26,4.52,2.62,6,4.61,1.11,1.18,2.54,2.54,3.65,3.72.45.47.93,1.09.7,1.7s-1.06.77-1.74.8Zm-12,32.47a.07.07,0,0,0,0-.09.08.08,0,0,0-.09,0,.07.07,0,0,0,0,.09A.06.06,0,0,0,58.17,44.41Zm-4.24-9a.08.08,0,0,0,0-.11.09.09,0,0,0-.11,0,.08.08,0,1,0,.12.09ZM33,50.11a.07.07,0,0,0,0-.09A.06.06,0,0,0,33,50a.06.06,0,0,0,0,.08A.07.07,0,0,0,33,50.11Zm-4.67-10.3a.07.07,0,0,0,0-.1.08.08,0,1,0-.09.12A.07.07,0,0,0,28.35,39.81Zm-14,2.81a.07.07,0,0,0,0-.09.07.07,0,0,0-.09,0,.07.07,0,0,0,0,.12Zm-3.19-3.81a.54.54,0,0,0-.29-.7.52.52,0,0,0-.72.22.54.54,0,0,0,.28.71A.55.55,0,0,0,11.16,38.81ZM10.8,33.3s0,0,0-.09a.08.08,0,0,0-.09,0,.07.07,0,0,0,0,.09A.06.06,0,0,0,10.8,33.3Z"/><path class="cls-2" d="M11.51,32.92a.81.81,0,0,0-1.54.21.65.65,0,0,0,.2.67A.82.82,0,0,0,11.51,32.92Zm-.26,4.53a1.3,1.3,0,0,0-1.65.38l0,0s-.06,0-.08.08a.78.78,0,0,0-.05.14l0,0a.08.08,0,0,0,0,0,.79.79,0,0,0,0,.13,1.3,1.3,0,1,0,1.87-.84Zm14-13.27.84-.92c.65-.71-.41-1.77-1.06-1.06l-.84.92C23.5,23.83,24.55,24.89,25.21,24.18Zm5.25,52a1.73,1.73,0,0,0-2.09.37,1.69,1.69,0,0,0,0,2.33,1,1,0,0,0,.5.29l.05,0C30.56,79.84,32.12,77.11,30.46,76.14ZM22.67,43.36a1.25,1.25,0,1,0,.88,2.34,1.25,1.25,0,0,1,1.53,1.77,1.25,1.25,0,0,0,1.1,1.85,1.23,1.23,0,0,0,1.09-.65,3.74,3.74,0,0,0-4.6-5.31Zm-9.38-1a.83.83,0,0,0,.27.89,1.06,1.06,0,1,0-.27-.89ZM44.34,8.12a2.83,2.83,0,0,0-.15-3.95,2.83,2.83,0,0,0-3.79,4.2A2.83,2.83,0,0,0,44.34,8.12ZM42.78,5.58c.84.56-.2,2-1,1.38S41.94,5,42.78,5.58Zm-2,8.66a1.18,1.18,0,0,0,.65.55c1.48.71,3.38-1.35,2.07-2.66S39.87,12.62,40.77,14.24ZM16.58,65.81A2.39,2.39,0,1,0,17.44,69,2.38,2.38,0,0,0,16.58,65.81ZM15,68.7c-.9-.55-.15-2.08.81-1.59S16,69.16,15,68.7Zm17.3-56.84s0,.05.07.07A1.87,1.87,0,0,0,35,11.44a1.83,1.83,0,0,0-2.85-2.3,1.89,1.89,0,0,0,.07,2.63A1,1,0,0,0,32.31,11.86ZM26,68a1.75,1.75,0,0,0-2.24.14,1.54,1.54,0,0,0-.09,2.06.9.9,0,0,0,.4.37l.17.06h0A1.71,1.71,0,0,0,26.39,70,1.52,1.52,0,0,0,26,68Zm2.07-43-.56.61c-.66.71.4,1.77,1.06,1.06l.56-.61C29.8,25.27,28.74,24.2,28.09,24.92Zm27.25-.19h0a1.25,1.25,0,0,0,0,2.5h0a1.25,1.25,0,0,1,.81,2.19,1.25,1.25,0,1,0,1.62,1.9,3.74,3.74,0,0,0-2.43-6.59ZM27.55,40.1a.69.69,0,0,0,.23.33.85.85,0,0,0,.17.08l.08,0h.08a.81.81,0,1,0-.56-.45Zm39.9-22.53-.9.86c-.7.67.37,1.73,1.06,1.06l.9-.86C69.2,18,68.14,16.9,67.45,17.57Zm2.92,2.89-.59.58c-.7.67.36,1.73,1.06,1.06l.6-.58C72.13,20.85,71.07,19.79,70.37,20.46ZM81.54,27c-3.18-4.67-6.17-9.47-9.55-14,3.5-.46,5.86-1.7,2-5.8-4.84-5.1-8.41-9.92-15.53-5.4C52.65,5.47,55.36,11.09,52,16.28c-2.5,3.83-2.91,8.15-4.94,12.2a32.92,32.92,0,0,0-1.77,3.91c-1.78-1.8-4-3.17-5.66-5.11-2.32-2.66-4.67-5.29-7-8-1.46-1.68-2.87-4-4.57-5.44-3.26-2.77-7.88-1.09-11.56-.52s-4.27,2.72-6.79,4.85C8.48,19.24,7,19.64,6,21c-1.34,1.69-1.58,3.46-2.19,5.48C2.75,29.86-.4,33,0,36.73c.4,3.35,3.25,5.25,5.71,7.14,5.42,4.15,10.43,8.81,15.84,13,.72.55,1.45,1.06,2.18,1.6,2.67,2,3.87,4.26,6,6.71,2.64,3,5.62,1.1,9.06,2.2,4.56,1.46,7.63,6.61,12.23,8.46a11.62,11.62,0,0,0,10.83-1.13c2-1.22,2.89-3.08,4.39-4.81s4.07-3.37,5.35-5.43c1.1-1.75.82-3.19,1.07-5.11.31-2.41,2.13-3.89,1.8-6.37-.36-2.71-2.29-4.34-2-7.53.19-2.28.67-4.35.41-6.69a19.7,19.7,0,0,0-.63-3.2c4.83,4.08,9.84,9.56,16.18,7.87a1.26,1.26,0,0,0,.92-1.21C88.9,36,84.89,31.9,81.54,27Zm3.91,13.37c-2.36,1.76-5-1.86-7-3.23-2.8-1.94-5.28-4.39-8.17-6.19A22.86,22.86,0,0,0,67,26.62c-1.12-1.15-2.89.62-1.76,1.77a17.75,17.75,0,0,1,5.33,12.48c0,3.28-1.52,6.19-.16,9.33,1.19,2.78,1.38,2.56.5,6.27-.23,1-.46,1.86-.66,2.86-1,4.72-4.54,7.84-7.67,11.34-5.19,5.81-11.92,2.79-17-1.47-2.38-2-4.22-4-7.41-4.53-1.2-.2-2.52.16-3.67-.07-2.68-.54-3.38-2.25-4.84-4.12A27.11,27.11,0,0,0,24,55.53c-4.52-3.34-8.73-7.13-13.06-10.7q-2-1.66-4.06-3.25c-2.58-2-4.55-4.41-3.65-8.1.41-1.67,1.95-3.3,2.56-4.94.48-1.31.55-2.79,1.08-4.07,1.57-3.84,2.78-3,5.29-4.41.26-.14,1.18-1.84.86-1.65,1.74-1.6,4.62-1.8,6.61-2.43,2.72-.87,4.84-1.34,7.46.6,3.23,2.4,6,7,8.67,10.07a65,65,0,0,0,4.34,4.89c1.95,1.8,4.07,2.47,4.61,4.59a10,10,0,0,0,.12,1.07,9.75,9.75,0,0,1-.52,3c-.44,1.39-1.46,2.62-1.91,4.05-1.26,4.08.66,5.88,3.73,8.11,1.31.95,2.56-1.22,1.27-2.16-3.62-2.63-3.16-4.75-.93-8.74,1.35-2.42,1.79-4.38.75-6.49.25-2.35,1.68-4.37,2.71-6.54a37.45,37.45,0,0,0,1.79-5.65c1-3.61,4-6,4.63-9.67.65-3.94-.2-8.39,4.8-10,4.74-1.5,6.43,1,9.22,4,.88.95,2.07,1.39,1.53,2.72s-2.31.91-3.71,1c-1.6.07-1.61,2.57,0,2.5l1,0a1.35,1.35,0,0,0,.14.22c5,6.51,9.23,13.66,14.09,20.3C84.63,35.5,87.5,38.84,85.45,40.36Zm-11-14-.18.14a.75.75,0,0,0,0,1.06.76.76,0,0,0,1.06,0l.18-.14a.75.75,0,0,0,0-1.06A.76.76,0,0,0,74.42,26.39Zm-.51-3a.77.77,0,0,0-1.06,0l-.35.28a.75.75,0,0,0,1.06,1.06c.12-.09.24-.18.35-.28A.75.75,0,0,0,73.91,23.37Zm-43.18,4.3-.33.3c-.72.65.35,1.71,1.06,1.06l.33-.3C32.51,28.08,31.45,27,30.73,27.67Zm2.64,4.13.17-.15c.71-.65-.35-1.71-1.06-1.06l-.17.15C31.59,31.39,32.66,32.45,33.37,31.8Zm19.76,3.89a.65.65,0,0,0,.24.33.53.53,0,0,0,.17.08l.08,0h.07a.82.82,0,1,0-.56-.45ZM32.2,49.93a.63.63,0,0,0,.2.67.81.81,0,1,0-.2-.67Zm25.15-5.7a.64.64,0,0,0,.2.67.81.81,0,1,0-.2-.67Z"/></g></g></svg>