<svg xmlns="http://www.w3.org/2000/svg" viewBox="0 0 46.05 132.15"><defs><style>.cls-1{fill:#c8da53;}.cls-2{fill:#fd3200;}.cls-3{fill:#ffe706;}.cls-4{fill:#442a11;}</style></defs><g id="Laag_2" data-name="Laag 2"><g id="objects"><path class="cls-1" d="M32.5,77.83c-.24-4.66-6.18-4.69-8.34-1.38a6.37,6.37,0,0,0-.5.92l.08,0c2.57-.25,6.28,1.47,8.18,3.22l.23.06A8.71,8.71,0,0,0,32.5,77.83Z"/><path class="cls-2" d="M24.86,89.54c3-1.83,6.23-5.17,7.29-8.85l-.23-.06c-1.9-1.75-5.61-3.47-8.18-3.22l-.08,0c-1,2.13-.89,4.57-1.94,6.66-1.19,2.36-3.06,2.93-5.35,3.72-2.9,1-1.28,3.16,1.14,3.58A10.81,10.81,0,0,0,24.86,89.54ZM1.64,95.93H1.47v25.52c0,3.71,9.65,9.45,21.55,9.45,16.87,0,21.54-5.74,21.54-9.45V95h0A55,55,0,0,1,1.64,95.93ZM44.56,41.57c0-3.16-3.38-6-8.62-7.72H34.36V40c0,1.92-2.55,4.79-8.77,5.41a23,23,0,0,1-2.57.13c-6.26,0-11.34-3.38-11.34-5.54V33.79H10.27c-5.34,1.76-8.8,4.59-8.8,7.78a1.42,1.42,0,0,0,0,.29h0V69.42h.17c1,.4,5,2.48,6.12,2.21.84-.22,2.79-2.91,3.74-3.52A23,23,0,0,1,24,64.86a23.18,23.18,0,0,1,10.09,2.53c.88.45,4.19,3.36,5,3.46,1.44.17,4.21-1.78,5.41-2.33h0V41.86h0A2.81,2.81,0,0,0,44.56,41.57Z"/><path class="cls-3" d="M23,45.55a23,23,0,0,0,2.57-.13c6.22-.62,8.77-3.49,8.77-5.41V29.06c0-2.35-2.32-4.38-5.76-5.46C27.53,17.28,25.44,6,24.14,2a1.18,1.18,0,0,0-2.25,0C20.6,6,18.5,17.3,17.43,23.61c-3.43,1.07-5.75,3.11-5.75,5.45V40C11.68,42.17,16.76,45.55,23,45.55Zm21.51,23c-1.2.55-4,2.5-5.41,2.33-.8-.1-4.11-3-5-3.46A23.18,23.18,0,0,0,24,64.86,23,23,0,0,0,11.5,68.11c-.95.61-2.9,3.3-3.74,3.52-1.08.27-5.12-1.81-6.12-2.21H1.47V95.93h.17A55,55,0,0,0,44.53,95h0V68.52ZM32.15,80.69c-1.06,3.68-4.29,7-7.29,8.85a10.81,10.81,0,0,1-7.35,1.79c-2.42-.42-4-2.59-1.14-3.58,2.29-.79,4.16-1.36,5.35-3.72,1.05-2.09,1-4.53,1.94-6.66a6.37,6.37,0,0,1,.5-.92c2.16-3.31,8.1-3.28,8.34,1.38A8.71,8.71,0,0,1,32.15,80.69Z"/><path class="cls-4" d="M31.11,74a25.08,25.08,0,0,0,.66-3.56c.11-.95-1.39-.95-1.5,0a21.88,21.88,0,0,1-.57,3,6.68,6.68,0,0,0-6.18,2.6c-1.87,3.4-1.21,8.17-5.14,10.13-1.42.71-4.56,1-4.27,3.31.2,1.57,2.07,2.32,3.4,2.57,3.3.63,6.77-1,9.32-3,3.45-2.64,8.86-9.22,5.6-13.82A4.53,4.53,0,0,0,31.11,74Zm-.29,8.06c-1.73,3.68-5.66,7.33-9.68,8.28-.91.22-4.22.84-4.7-.18s1.4-2.06,1.86-2.33A11.67,11.67,0,0,0,21.24,86c2-2.14,2-5.2,3-7.86a11.5,11.5,0,0,1,7,2.87A8.5,8.5,0,0,1,30.82,82.08Zm.83-2.63A13.23,13.23,0,0,0,25,76.67a4.44,4.44,0,0,1,4.94-1.53C31.67,75.88,32,77.69,31.65,79.45Zm-25.41-22H6A.75.75,0,0,0,6,59h.23A.75.75,0,0,0,6.24,57.48Zm0,3.23H6a.75.75,0,0,0,0,1.5h.23A.75.75,0,0,0,6.24,60.71ZM38.89,84.33h-.77a1.25,1.25,0,0,0,0,2.5h.77A1.25,1.25,0,0,0,38.89,84.33ZM9.06,84.09l-.88.11a1.3,1.3,0,0,0-1.25,1.25A1.25,1.25,0,0,0,8.18,86.7l.88-.11a1.28,1.28,0,0,0,1.25-1.25A1.26,1.26,0,0,0,9.06,84.09ZM6.62,55.67a.77.77,0,0,0-.53-.93l-.57-.23A.75.75,0,0,0,5.12,56l.58.23A.76.76,0,0,0,6.62,55.67Zm39.2,56.86V41.85s0-.07,0-.1,0-.12,0-.18c-.2-5-5.48-7.51-9.54-8.93a1.52,1.52,0,0,0-.54-.07c-.07-1.16-.13-2.3-.13-3.37a.13.13,0,0,0,0-.06.25.25,0,0,0,0-.09c-.12-3.31-3-5.28-5.87-6.37a153.2,153.2,0,0,0-4.39-21,1.43,1.43,0,0,0-.15-.33h0a1.09,1.09,0,0,0-.13-.17.21.21,0,0,1,0-.06C20-4.38,18.29,12,17.88,14.18q-.82,4.23-1.54,8.49c-2.87,1.08-5.79,3.06-5.91,6.38,0,0,0,.06,0,.09s0,0,0,.06c0,1.06-.06,2.18-.12,3.32a1.24,1.24,0,0,0-.37.06c-4.11,1.41-9.51,4-9.71,9a.55.55,0,0,0,0,.18.34.34,0,0,0,0,.1V107.1c0,4.61-.51,9.55,0,14.15,1,8.74,16.2,10.84,22.79,10.9s20.3-.66,22.57-9.07C46.46,119.85,45.82,115.81,45.82,112.53ZM18.44,25.14c.37-2.29.78-4.57,1.2-6.86.56-3,1.14-6.07,1.78-9.09.12-.55,1.35-5.11,1.73-6.11a148.88,148.88,0,0,1,3.25,15.2c.31,1.67.59,3.34.88,5a1.32,1.32,0,0,0,.17,1c.05.3.11.59.16.88.08.52.58,1.95.39,2.45-.48,1.22-3.64,1.14-5,1.14s-4.5.08-5-1.14C17.85,27.09,18.35,25.66,18.44,25.14Zm-5.51,3.91c.06-1.63,1.44-2.74,2.92-3.47,0,.1,0,.2,0,.3-.31,2-.54,3.07,1.32,4.27,2.72,1.75,9.71,1.88,12.27-.29,1.5-1.28,1.09-2.5.81-4.28,1.48.74,2.85,1.84,2.91,3.47,0,0,0,0,0,.07s0,.05,0,.08V30c-2.26,6-17.92,6-20.18,0V29.2a.19.19,0,0,0,0-.08A.17.17,0,0,0,12.93,29.05Zm17,6.25a10.79,10.79,0,0,0,3.2-2V38c0,4.15-3,5.53-6.88,6.08-.18-2.55-.37-5.09-.55-7.64a17.52,17.52,0,0,0,2.74-.57c0,1.32.11,2.65.25,4,.11.95,1.61,1,1.5,0C30,38.31,29.93,36.81,29.91,35.3Zm-5.17,8.91a23.23,23.23,0,0,1-3.33,0q-.45-3.84-.58-7.71a20.93,20.93,0,0,0,3.36.08Q24.48,40.39,24.74,44.21ZM19.89,44a13.67,13.67,0,0,1-3.28-.92.73.73,0,0,0,.06-.3V35.52a16,16,0,0,0,2.66.72Q19.45,40.14,19.89,44Zm-4.72-9.17v7.42A5.05,5.05,0,0,1,12.93,38V33.3A10,10,0,0,0,15.17,34.85Zm28.15,84c0,5.53-3.08,8-8.65,9.53a40.89,40.89,0,0,1-23.35-.7c-3.25-1.16-8-3.05-8.59-6.8-.73-4.33,0-9.41,0-13.78V97.37a56.91,56.91,0,0,0,40.59-.78Zm0-24.39a55,55,0,0,1-40.59.79V71.07c1.77.92,3.9,2,5.54,1.42,1.39-.48,2.21-2.2,3.27-3.09,3.07-2.57,7.82-3.48,11.7-3.53a20.4,20.4,0,0,1,10.65,2.55c1.4.86,2.68,2.55,4.25,3.09,1.85.63,3.54-.21,5.18-1.15Zm0-52.61v1c-1.27,3.82-7.23,5.51-10.53,6.33a1,1,0,0,0,.53,1.93c3.14-.78,7.41-2.16,10-4.73V68c-1.69.9-3.38,1.74-5.3,1-1.21-.48-2.24-1.84-3.38-2.5a23,23,0,0,0-12.21-2.65,22.22,22.22,0,0,0-10.72,3c-1.25.79-2.05,2.18-3.24,2.92-1.93,1.21-3.91,0-5.74-.94V46.6C8.2,52.49,22,52.49,28.08,52c1.27-.11,1.28-2.11,0-2a45.69,45.69,0,0,1-15.42-1C9.33,48.14,4,46.43,2.73,42.7v-.85a.88.88,0,0,0,0-.16.5.5,0,0,1,0-.12c.14-3.51,4.55-5.41,7.46-6.43a23.86,23.86,0,0,0,.26,5C11.54,46,20.7,47.09,25.29,46.69c3.93-.35,9.33-1.76,10.28-6.23a22.08,22.08,0,0,0,.3-5.32c2.86,1,7.31,2.92,7.45,6.43,0,0,0,.08,0,.12S43.32,41.8,43.32,41.85ZM38.56,79.42l-2,.55a1.25,1.25,0,0,0,.66,2.41l2-.55A1.25,1.25,0,0,0,38.56,79.42ZM9,82a1.25,1.25,0,0,0,0-2.5H7.63a1.25,1.25,0,0,0,0,2.5ZM6.24,110.27H5.9a.75.75,0,0,0,0,1.5h.34A.75.75,0,0,0,6.24,110.27Zm0-6.72-.81-.1a.75.75,0,0,0-.75.75.76.76,0,0,0,.75.75l.81.1A.76.76,0,0,0,7,104.3.77.77,0,0,0,6.25,103.55ZM5.78,108H6a.75.75,0,0,0,0-1.5H5.78A.75.75,0,0,0,5.78,108Z"/></g></g></svg>