<svg xmlns="http://www.w3.org/2000/svg" viewBox="0 0 84.52 105.17"><defs><style>.cls-1{fill:#966656;}.cls-2{fill:#abdbff;}.cls-3{fill:#2bb1cc;}.cls-4{fill:#442a11;}</style></defs><g id="Laag_2" data-name="Laag 2"><g id="objects"><path class="cls-1" d="M74.19,58.16l.19.43C68.71,61,59.23,61.84,48.75,60.43,36.88,58.83,27,54.8,22.82,50.35l.58-.53c5.81-3.34,12.76-4.28,19.45-3.77S56,48.43,62.43,50.42a33.52,33.52,0,0,1,6.74,2.66A11.78,11.78,0,0,1,74.19,58.16ZM49.88,52.73a.09.09,0,0,0,.08-.09s-.05-.09-.09-.08a.08.08,0,0,0-.08.09A.08.08,0,0,0,49.88,52.73Zm-4.75,1.72s.09-.05.08-.09a.09.09,0,0,0-.09-.09.11.11,0,0,0-.08.1A.11.11,0,0,0,45.13,54.45Z"/><path class="cls-2" d="M45.13,54.45s.09-.05.08-.09a.09.09,0,0,0-.09-.09.11.11,0,0,0-.08.1A.11.11,0,0,0,45.13,54.45Zm4.75-1.72a.09.09,0,0,0,.08-.09s-.05-.09-.09-.08a.08.08,0,0,0-.08.09A.08.08,0,0,0,49.88,52.73ZM75,68.22c-10.29,3.68-21.64,2.27-32.41.36A61.37,61.37,0,0,1,31.11,65.7c-4.19-1.63-9.14-4.54-11.49-8.52l-.43,0a43.58,43.58,0,0,0,.48,9C22,68.57,24.85,71.55,28,72.65a79.88,79.88,0,0,0,9.81,3.24,81.08,81.08,0,0,0,24.91,1.34,27.66,27.66,0,0,0,5.06-.71A50.15,50.15,0,0,0,74,73.66l.16.08a39,39,0,0,0,2.6-5.92ZM61.4,85.83l-.13-.34a32.42,32.42,0,0,1-16.09,1.43,43.51,43.51,0,0,1-13.46-3.69l-.06.13c-3.46,0-14.78.58-12.28,6.36,2.32,5.34,15.85,6.52,20.37,7.11,8.15,1,17.88,1.79,25.83-.87C75.07,92.77,67.89,87.64,61.4,85.83Z"/><path class="cls-3" d="M78.41,87.6a33.72,33.72,0,0,0-5.86-3c-1-.42-2-.64-3.06-1-.77-.28-1.53-.59-2.3-.86l-.69-.08a26.48,26.48,0,0,0,7.62-8.92L74,73.66a50.15,50.15,0,0,1-6.19,2.86,27.66,27.66,0,0,1-5.06.71A81.08,81.08,0,0,1,37.8,75.89,79.88,79.88,0,0,1,28,72.65c-3.14-1.1-6-4.08-8.32-6.44.07.46.16.91.25,1.35l-.33.07c-4.84,1.82-11.36-2.15-11.75-7.4-.43-5.66,5.57-8.72,10.06-6.44l1.51.15c-.11,1.11-.18,2.18-.22,3.22l.43,0c2.35,4,7.3,6.89,11.49,8.52a61.37,61.37,0,0,0,11.51,2.88C53.39,70.49,64.74,71.9,75,68.22l1.69-.4a65.52,65.52,0,0,0,3.1-14.63c.83-6.2-11.73-13-28-15.21-.89-.12-1.77-.22-2.64-.31C34,36.15,21.49,39.37,20.7,45.23c-.25,1.26-.47,2.48-.65,3.66h0l-.2,0C11,39.82.36,52.64,1.29,61.47c1,9,11.1,16.09,19.6,11.73l.72-.33A20.31,20.31,0,0,0,25.75,79l-.55.3-.28,0a68.58,68.58,0,0,0-6.93,1,32.93,32.93,0,0,0-6.11,2c-2.34,1.07-5.36,2.87-5.59,5.74-.54,6.82,16.23,13.72,37.45,15.41s38.87-2.47,39.42-9.29C83.39,91.31,80.6,89,78.41,87.6Zm-55-37.78c5.81-3.34,12.76-4.28,19.45-3.77S56,48.43,62.43,50.42a33.52,33.52,0,0,1,6.74,2.66,11.78,11.78,0,0,1,5,5.08l.19.43C68.71,61,59.23,61.84,48.75,60.43,36.88,58.83,27,54.8,22.82,50.35ZM65.58,96c-7.95,2.66-17.68,1.92-25.83.87-4.52-.59-18-1.77-20.37-7.11-2.5-5.78,8.82-6.36,12.28-6.36l.06-.13a43.51,43.51,0,0,0,13.46,3.69,32.42,32.42,0,0,0,16.09-1.43l.13.34C67.89,87.64,75.07,92.77,65.58,96Z"/><path class="cls-4" d="M74.27,20.25c-2.41,1.2-5,2.36-8.26,3.63a22.83,22.83,0,0,0-6,3.17,10.35,10.35,0,0,0-3.92,6,1.25,1.25,0,0,0,1,1.47l.24,0a1.25,1.25,0,0,0,1.23-1,8,8,0,0,1,3-4.5,21,21,0,0,1,5.32-2.8c3.3-1.3,6-2.49,8.46-3.73,3.11-1.55,5-3.66,5.66-6.24a7.4,7.4,0,0,0-2.41-7.42,7.57,7.57,0,0,0-7.89-1.27C68,8.71,66,12,66.64,14.49c.23.9,1.16,3,4.87,2.59a1.25,1.25,0,0,0,1.12-1.37,1.28,1.28,0,0,0-1.37-1.12c-.89.1-2,0-2.2-.72-.29-1.15,1-3.3,2.66-4a5.1,5.1,0,0,1,5.3.87,4.82,4.82,0,0,1,1.6,4.91C78.16,17.48,76.7,19,74.27,20.25Zm-37.83,30c-.87,1,.54,2.36,1.41,1.41a1,1,0,0,1,1.68.21c.45,1.19,2.39.67,1.93-.53A3,3,0,0,0,36.44,50.23Zm32.67,31.9C77,75.18,79.71,64.12,81,54a6.3,6.3,0,0,0,0-2.57c-.69-3.75-4.52-6.4-7.58-8.15-6.48-3.7-14-5.46-21.31-6.53h-.17l-.17,0-1.56-.19A19.34,19.34,0,0,1,52,26.69a39.33,39.33,0,0,1,3.5-5.28C58.76,17,62.43,12,61,6.61A8.81,8.81,0,0,0,55.13.33a7.57,7.57,0,0,0-7.38,1.74c-2.21,2-3.07,4.5-2.35,6.88a5.13,5.13,0,0,0,4,3.7A4.62,4.62,0,0,0,54,10.35,1.25,1.25,0,1,0,51.94,9a2.28,2.28,0,0,1-2.13,1.21,2.68,2.68,0,0,1-2-1.95c-.43-1.42.17-3,1.63-4.31a5.06,5.06,0,0,1,5-1.2,6.32,6.32,0,0,1,4.2,4.51c1.1,4.28-2.06,8.55-5.11,12.69a40.8,40.8,0,0,0-3.72,5.65,21.41,21.41,0,0,0-2.1,10.71c-8.72-.85-20.6-1-26.4,5.22a6.57,6.57,0,0,0-1.76,3.31l0,.08-.33,1.83C10.9,41.07,1.53,49,.16,58.29-1.52,69.73,10.68,78.61,21,74.48a22.29,22.29,0,0,0,2.06,3.29c.13.17.27.33.41.5-7.29,1.14-24,4.87-16.81,14.32,2.89,3.78,8.05,5.78,12.36,7.32a94.82,94.82,0,0,0,22.86,4.7,102.12,102.12,0,0,0,24.21-.33c5.08-.72,11.16-1.78,15.3-5.11C91,91.43,76.09,84.82,69.11,82.13ZM22,45.4c.56-4.2,7.38-5.54,10.72-6.14a58.6,58.6,0,0,1,15.43-.41,9,9,0,0,0,3.76,5.36,1.25,1.25,0,0,0,1.34-2.12,6.2,6.2,0,0,1-2.4-3l.77.08a64,64,0,0,1,18.22,5c3,1.43,8.76,4.26,8.78,8.23,0,2.19-1.71,3.67-3.86,4.68C70,49.63,58.36,47.74,50.33,46.12,41,44.24,31.57,44.41,23.05,48.87A4.66,4.66,0,0,1,22,45.4ZM72.84,57.93a37,37,0,0,1-5,1.22,61.43,61.43,0,0,1-18.9,0,61.64,61.64,0,0,1-18.22-5,28.63,28.63,0,0,1-6.21-3.76c7.93-4,16.73-4.08,25.32-2.34C57,49.51,68.41,51.41,72.84,57.93ZM21.13,50.08a22,22,0,0,0,7.1,5.63c11.17,5.81,25.41,7.79,37.83,6.2,3.11-.39,8.38-1.38,11.79-3.73a59,59,0,0,1-2.28,9.19.83.83,0,0,0-.81-.12c-9.87,3.25-20,2.38-30.08.68C36,66.45,25.77,64.56,20.48,56.67l-.06-.07C20.56,54.4,20.81,52.21,21.13,50.08ZM2.52,59.37c.61-7.86,9-16.12,16.18-9.85-.15,1-.29,2.06-.41,3.1-5.33-2.23-11.85,1-11.72,7.24C6.7,65.94,13.29,70.21,19,69.07a26.41,26.41,0,0,0,1,3.16C11.64,75.67,1.82,68.43,2.52,59.37Zm15.91,7.26c-3.93.74-8.49-1.82-9.25-5.9-.87-4.67,4-7.69,8.09-5.86a1.3,1.3,0,0,0,.79.1A45.85,45.85,0,0,0,18.43,66.63Zm2.39-.7a37.77,37.77,0,0,1-.49-6.23c5.45,6.25,14.07,8.42,22,9.84,10.82,1.93,21.87,3.14,32.5-.23a37,37,0,0,1-1.67,3.61,35.45,35.45,0,0,1-14.32,3.61,80.71,80.71,0,0,1-13.46-.41C36.12,75.06,27.55,72.52,20.82,65.93Zm.78,3.4c6.22,5.14,13.59,7.44,21.89,8.55a82.61,82.61,0,0,0,17.29.52A32.37,32.37,0,0,0,71.33,76a24,24,0,0,1-5.63,5.74c-6.53,4.68-14.76,5-22.4,3.69-6.77-1.13-13.83-3.36-18.17-9A21.44,21.44,0,0,1,21.6,69.33ZM61.18,86.8c2.49.77,10.35,3.3,6.58,7.09-2.34,2.35-8.82,2.6-11.7,2.79-6.38.42-12.77-.38-19.08-1.19-4.61-.6-12-1.1-15.42-4.62-5.31-5.43,6-6.42,9.74-6.5a42.42,42.42,0,0,0,12.22,3.56C49.45,88.84,55.61,88.79,61.18,86.8ZM74.39,99.88c-9.64,3.26-20.62,3.19-30.65,2.4s-21.12-2.51-30.08-7.41c-3.12-1.71-8.18-4.89-4.93-9s11.75-4.73,16.46-5.35a1.07,1.07,0,0,0,.32-.08,21.71,21.71,0,0,0,2.55,2c-4.5.31-10.23,1.48-10,6,.35,6.91,12.62,8.12,17.45,8.78,10,1.38,22.64,3.63,32.08-1.06,7.35-3.65,1.25-8.36-3.75-10.55a22.6,22.6,0,0,0,3-1.76l0,0c4.92,1.82,12.15,3.35,14.27,8.7C82.78,96.86,77.79,98.73,74.39,99.88ZM55.64,54.28c-.86.95.55,2.37,1.41,1.41a1.41,1.41,0,0,1,2.53.94,1,1,0,0,0,2,0A3.41,3.41,0,0,0,55.64,54.28Zm-5.58-2.45a.62.62,0,0,0-.69.16.83.83,0,1,0,.69-.16Zm-4.81,2a.41.41,0,0,0-.46.1.58.58,0,1,0,.46-.1Z"/></g></g></svg>