<svg xmlns="http://www.w3.org/2000/svg" viewBox="0 0 105.91 93.98"><defs><style>.cls-1{fill:#b79991;}.cls-2{fill:#966656;}.cls-3{fill:#442a11;}</style></defs><g id="Laag_2" data-name="Laag 2"><g id="objects"><path class="cls-1" d="M46.24,29.92l.13,0a4.79,4.79,0,0,0,2.82-.53,2.78,2.78,0,0,0,1.65-3.06A1.52,1.52,0,0,0,49,24.91a3.62,3.62,0,0,0-.53.17,5.65,5.65,0,0,0-1.29.89l-1.7,1.19a2.89,2.89,0,0,0-.73.64.88.88,0,0,0-.09.86A2.09,2.09,0,0,0,46.24,29.92Zm13,47.68A4,4,0,0,0,62,79c3.54.68,8.94-1.59,5-3.49C64.38,74.32,58,75.16,59.26,77.6Zm8.53-15.09c-.5.61-1,1.19-.9,1.89.34,1.87,5.08,2.62,7.32,1.49A2.8,2.8,0,0,0,76,63.28c-.09-1.18-1.24-2.39-3.12-2.81a4.78,4.78,0,0,0-4.12.72C68.26,61.6,68.15,62.07,67.79,62.51ZM78.4,77.82l.12.07a4.72,4.72,0,0,0,2.79.64A2.78,2.78,0,0,0,84,76.38a1.52,1.52,0,0,0-1.15-2.08,5,5,0,0,0-.56-.06,5.33,5.33,0,0,0-1.54.31c-.67.15-1.35.27-2,.41a2.9,2.9,0,0,0-.93.3.88.88,0,0,0-.42.76A2.11,2.11,0,0,0,78.4,77.82ZM37.64,20.65a2.76,2.76,0,0,0,.58-3.09c-.55-1-2.09-1.7-4-1.33a4.76,4.76,0,0,0-3.49,2.29,7.9,7.9,0,0,0-.34,1.6c-.22.75-.47,1.5-.08,2.08C31.39,23.78,36,22.58,37.64,20.65Zm66.2,50.19-.12,0c.55,2.92-.94,6-3.16,7.92-2.73,2.44-6.57,3.69-10,4.64a39.37,39.37,0,0,0-6.37,2c-1.63.77-3.22,1.77-5,2s-3.71-.52-5.55-.29S69.93,88.6,68,88.37a9.25,9.25,0,0,1-3.17-1.32A35.79,35.79,0,0,0,59,84.75l-6.35-2.09a6.47,6.47,0,0,1-3.57-2.13c-.67-1-.93-2.5-2.09-2.81a4.73,4.73,0,0,0-2.25.41,4.84,4.84,0,0,1-4.58-1.81,14.19,14.19,0,0,1-2.32-4.59C37.23,70,35.36,69,34,67.69l-.18,0c-.83,2.91,0,4.46,2,7.88,1.47,2.5,2.37,6.37,5.08,7.66,1.26.59,2.76-.21,4.14.7s.76,2.65,2.06,3.68c2.34,1.86,9.58,2.23,12.84,2.3,2.36.06,3.4,1.9,5.39,2.49,3.32,1,6-.24,9.18-.61,2.81-.33,6.23.05,8.94-.48,2.31-.46,3.5-1.69,5.62-2.16,2.34-.51,3.26.17,5.4-.82,0,0,4-2.8,4.08-2.84,2.56-2.61,6.06-8.07,6-11.27A11.36,11.36,0,0,0,103.84,70.84ZM55.44,58.23c-4.33.44-4.86,4.73.21,4.25,1.74-.16,3.29-.81,3.44-1.91S57.7,58,55.44,58.23ZM41.09,48.68c2.53-1.26,4.75-3,7.19-4.46s5.74-2.44,8-4c1.94-1.33,2.54-2.94,4.3-4.22,1.94-1.39,3-1.14,4.62-2.9,0,0,2.59-4.17,2.61-4.23a26.31,26.31,0,0,0,1.62-8,9.43,9.43,0,0,0-1.61-5.74c-.26-.4-.54-.77-.82-1.14A9.12,9.12,0,0,1,67,22a11.68,11.68,0,0,1-5.26,5.8,10.13,10.13,0,0,0-3.91,3.32,43.11,43.11,0,0,1-3.23,3.55c-1.19,1.34-2.24,2.89-3.81,3.77s-3.61,1-5.21,2c-1.21.72-2.08,1.86-3.22,2.66a10.84,10.84,0,0,1-3.86,1.36L28.05,47c-1.8.44-3.88.82-5.34-.31S20.86,42.89,19,42.18a4.08,4.08,0,0,0-3.32.54c-1.92,1-3.39,1.93-5.53.86a13.73,13.73,0,0,1-3.54-3.09c-1.4-1.49-3.85-3-5.38-4.32,0,.93.07,1.85.16,2.74.29,2.87,3.07,4.22,4.84,6.12,1.52,1.63,2.34,5.18,4.6,5.86,2.09.64,4-1.76,6.21-1.66,1.94.09,3.25,2.09,5.1,2.71a7.68,7.68,0,0,0,3.81,0L31.06,51c1.1-.19,2.28-.36,3.46-.55A23,23,0,0,0,41.09,48.68Zm-9.44-11.1c3.52-.78,7.57-5,3.17-5.17C32,32.3,26.5,35.6,28.6,37.35A3.9,3.9,0,0,0,31.65,37.58ZM19.26,24.93c1.53-.85,2.7-2.06,2.4-3.13-.34-1.22-2.3-1.79-4.28-.69C13.58,23.23,14.8,27.38,19.26,24.93Z"/><path class="cls-2" d="M81.31,34c.22,0,.37-.18.34-.32a.39.39,0,0,0-.46-.2c-.22,0-.37.17-.33.31S81.09,34.07,81.31,34Zm-39,9c1.14-.8,2-1.94,3.22-2.66,1.6-.95,3.59-1,5.21-2s2.62-2.43,3.81-3.77a43.11,43.11,0,0,0,3.23-3.55A10.13,10.13,0,0,1,61.7,27.8,11.68,11.68,0,0,0,67,22,9.12,9.12,0,0,0,67,14l-.35-.46L65.5,12A13.2,13.2,0,0,1,64.1,10c-.77-1.5-.52-2.73-.62-4.3-.07-1.18-1.43-1.8-2.43-2.29a11.56,11.56,0,0,0-5.22-1.57c-1,0-2,.34-3,.46a15.7,15.7,0,0,1-3.62-.16c-2.17-.25-4.38-.67-6.53-.84a20,20,0,0,0-4.87.56A37.42,37.42,0,0,0,28,4.76a69.74,69.74,0,0,0-8,4.71c-1.27.83-3,1.13-4.32,1.84A10.68,10.68,0,0,0,12,14.25a8.67,8.67,0,0,1-2.23,2.57c-1,.57-2.35.55-3.09,1.43s-.4,2.6-1,3.74-1.8,1.4-2.6,2.23a6.07,6.07,0,0,0-1.3,3.67,62.68,62.68,0,0,0-.46,8.28c1.53,1.35,4,2.83,5.38,4.32a13.73,13.73,0,0,0,3.54,3.09c2.14,1.07,3.61.16,5.53-.86A4.08,4.08,0,0,1,19,42.18c1.83.71,2.13,3.27,3.68,4.47s3.54.75,5.34.31l10.41-2.54A10.84,10.84,0,0,0,42.32,43.06ZM44.7,27.8a2.89,2.89,0,0,1,.73-.64L47.13,26a5.65,5.65,0,0,1,1.29-.89,3.62,3.62,0,0,1,.53-.17,1.52,1.52,0,0,1,1.89,1.45,2.78,2.78,0,0,1-1.65,3.06,4.79,4.79,0,0,1-2.82.53l-.13,0a2.09,2.09,0,0,1-1.63-1.26A.88.88,0,0,1,44.7,27.8ZM19.26,24.93c-4.46,2.45-5.68-1.7-1.88-3.82,2-1.1,3.94-.53,4.28.69C22,22.87,20.79,24.08,19.26,24.93ZM31.65,37.58a3.9,3.9,0,0,1-3-.23C26.5,35.6,32,32.3,34.82,32.41,39.22,32.56,35.17,36.8,31.65,37.58ZM30.33,22.2c-.39-.58-.14-1.33.08-2.08a7.9,7.9,0,0,1,.34-1.6,4.76,4.76,0,0,1,3.49-2.29c1.89-.37,3.43.28,4,1.33a2.76,2.76,0,0,1-.58,3.09C36,22.58,31.39,23.78,30.33,22.2Zm60.11,15a1.07,1.07,0,1,0-.72-2A1.09,1.09,0,0,0,89,36.53,1.1,1.1,0,0,0,90.44,37.17ZM76.19,31a1.4,1.4,0,1,0-1.83-.83A1.41,1.41,0,0,0,76.19,31Zm10.42.35c.22,0,.37-.18.33-.32s-.23-.24-.45-.21-.37.18-.33.32S86.39,31.37,86.61,31.34ZM14,61.93c-.21,0-.36.17-.33.32s.24.23.45.2.37-.17.34-.31A.4.4,0,0,0,14,61.93Zm89.39,6.42c0-1.84,1.24-3.53.12-5.34-1-1.62-3.64-2.37-4.86-3.93S98,56.29,96,55.18c-1.36-.77-3.55-.55-4.93-1.33-1.64-.92-1.8-2.38-3.55-3.28-3.61-1.84-11.66-3.3-15.86-3.11-4.53.2-12.34,1-16.41,2.6-3.66,1.45-4.72,4.39-8.19,5.84C44,57.22,40.45,57,37.83,59.16,35.58,61,35.55,63.31,34.45,66c-.25.62-.45,1.18-.6,1.69l.18,0c1.33,1.33,3.2,2.27,3.84,4a14.19,14.19,0,0,0,2.32,4.59,4.84,4.84,0,0,0,4.58,1.81A4.73,4.73,0,0,1,47,77.72c1.16.31,1.42,1.81,2.09,2.81a6.47,6.47,0,0,0,3.57,2.13L59,84.75a35.79,35.79,0,0,1,5.84,2.3A9.25,9.25,0,0,0,68,88.37c1.89.23,3.65-1,5.55-1.23s3.7.48,5.55.29,3.38-1.18,5-2a39.37,39.37,0,0,1,6.37-2c3.47-1,7.31-2.2,10-4.64,2.22-2,3.71-5,3.16-7.92l.12,0A7.34,7.34,0,0,1,103.36,68.35ZM55.65,62.48c-5.07.48-4.54-3.81-.21-4.25,2.26-.22,3.82,1.09,3.65,2.34S57.39,62.32,55.65,62.48ZM62,79a4,4,0,0,1-2.71-1.43c-1.23-2.44,5.12-3.28,7.68-2.06C70.91,77.44,65.51,79.71,62,79ZM74.21,65.89c-2.24,1.13-7,.38-7.32-1.49-.13-.7.4-1.28.9-1.89.36-.44.47-.91.95-1.32a4.78,4.78,0,0,1,4.12-.72c1.88.42,3,1.63,3.12,2.81A2.8,2.8,0,0,1,74.21,65.89ZM84,76.38a2.78,2.78,0,0,1-2.73,2.15,4.72,4.72,0,0,1-2.79-.64l-.12-.07a2.11,2.11,0,0,1-1-1.8.88.88,0,0,1,.42-.76,2.9,2.9,0,0,1,.93-.3c.68-.14,1.36-.26,2-.41a5.33,5.33,0,0,1,1.54-.31,5,5,0,0,1,.56.06A1.52,1.52,0,0,1,84,76.38ZM21.71,64.29a.07.07,0,0,0-.07.07.07.07,0,0,0,.07.06.06.06,0,0,0,.06-.06A.07.07,0,0,0,21.71,64.29Zm-.47,8.64a1.4,1.4,0,1,0,1.84.83A1.42,1.42,0,0,0,21.24,72.93Z"/><path class="cls-3" d="M29.64,18.67c-.57,2.19-1,4.81,1.93,5.21a8.35,8.35,0,0,0,6.79-2.52s0-.05,0-.08l.11-.12c1.72-2.36.87-5.3-2.11-5.92C33.94,14.72,30.34,16,29.64,18.67Zm1.67,1.94c.4-1.73.83-2.81,2.73-3.31,2.08-.55,4.33.47,2.84,2.7a6.51,6.51,0,0,1-3.36,1.78,4.33,4.33,0,0,1-1.68.13C31,21.74,31.12,21.45,31.31,20.61ZM55,23.4h.1a6.33,6.33,0,0,0,4.07-1.65c1.33-1.27,1.58-3,.58-4.06a1.25,1.25,0,0,0-1.89,1.63,1.37,1.37,0,0,1-.41.62,3.9,3.9,0,0,1-2.39,1A1.25,1.25,0,1,0,55,23.4ZM35.7,27.55c1.37.26,2.71-1.74,1.07-2.36a.59.59,0,0,0-.43,0A1.77,1.77,0,0,0,35,26,1,1,0,0,0,35.7,27.55Zm52.66,9.29s0,0,0,.07a1.87,1.87,0,0,0,3.45-1.42,1.87,1.87,0,0,0-3.52,1.24C88.32,36.78,88.35,36.8,88.36,36.84Zm2.09-.77a.37.37,0,0,1-.3.4.34.34,0,0,1-.4-.18C89.67,35.85,90.36,35.62,90.45,36.07ZM37.17,11.88a1.1,1.1,0,0,0,1.62-.66,1,1,0,0,0-.46-1.13,1.05,1.05,0,0,0-.62-.14.83.83,0,0,0-.22,0h0l-.1,0s-.1,0-.14.06l0,0a1.07,1.07,0,0,0-.16.14,1,1,0,0,0-.33.51A1,1,0,0,0,37.17,11.88ZM26.85,27.3a1.08,1.08,0,0,0-.62-.14.78.78,0,0,0-.22,0h0l-.09,0c-.05,0-.1,0-.15.06l0,0-.17.14a1,1,0,0,0-.32.51,1,1,0,0,0,.46,1.13,1.1,1.1,0,0,0,1.62-.66A1.05,1.05,0,0,0,26.85,27.3ZM21,72a2.46,2.46,0,0,0-1.65,2.78.56.56,0,0,0,.05.25A2.45,2.45,0,1,0,21,72Zm.32,2.5c-.13-.47.53-.92.82-.45S21.5,74.92,21.3,74.47ZM14,60.68A1.62,1.62,0,0,0,12.43,62l0,.17a.13.13,0,0,1,0,.06s0,.07,0,.11h0a1.08,1.08,0,0,0,.24.62c.91,1.34,3.48.57,3-1.18A1.64,1.64,0,0,0,14,60.68Zm21.67-24c1.36-1.07,3.35-3.63,1-4.89-2.93-1.58-12.48,2.79-8.78,6.25C30.06,39.86,33.77,38.17,35.65,36.7Zm-4.44-2.18a6.66,6.66,0,0,1,4-1.09c.67.09.68,0,.38.54a4.92,4.92,0,0,1-1.36,1.33A7.6,7.6,0,0,1,32,36.46c-.6.2-2.11.65-2.66.19C28.63,36,30.77,34.77,31.21,34.52Zm-9.5,30.65a.82.82,0,0,0,.79-.61.74.74,0,0,0-.19-.71l0,0a.69.69,0,0,0-.13-.11.82.82,0,0,0-.2-.12l0,0h0a.73.73,0,0,0-.34,0h0l0,0a.82.82,0,0,0-.2.12l-.12.1,0,0a.72.72,0,0,0-.19.71A.82.82,0,0,0,21.71,65.17ZM79.62,34a1.08,1.08,0,0,0,.24.62c.91,1.35,3.48.57,3-1.18a1.61,1.61,0,0,0-1.65-1.12,1.59,1.59,0,0,0-1.55,1.33l0,.17s0,0,0,.06,0,.08,0,.11ZM52.34,8.73a.85.85,0,0,0,1.25-.52.76.76,0,0,0-.34-.84.75.75,0,0,0-.43-.11.9.9,0,0,0-.23,0h0a.58.58,0,0,0-.51.46s-.06.08-.07.14A.8.8,0,0,0,52.34,8.73Zm.16-.08h0ZM59.77,29l-.88.71a.76.76,0,0,0,0,1.06.75.75,0,0,0,1.06,0c.3-.23.59-.47.88-.71a.75.75,0,0,0,0-1.06A.77.77,0,0,0,59.77,29ZM73.4,30.43a2.56,2.56,0,1,0-.05-.25A.56.56,0,0,0,73.4,30.43Zm2.74-1c.28.47-.62.9-.82.45S75.85,29,76.14,29.45ZM45.74,9c1.38.26,2.72-1.74,1.08-2.36a.59.59,0,0,0-.43,0A1.77,1.77,0,0,0,45,7.42,1,1,0,0,0,45.74,9ZM85.19,31.3a.89.89,0,0,0,.09.29l0,.05c.7,1.25,3,.64,2.61-.89a1.36,1.36,0,0,0-1.41-.93,1.33,1.33,0,0,0-1.26,1,1.06,1.06,0,0,0,0,.19c0,.05,0,.09,0,.14s0,0,0,.06A.52.52,0,0,0,85.19,31.3Zm-39.08-.39a.66.66,0,0,0,.14,0l.13,0c2,.22,4.6-.79,5.31-2.89.51-1.5,0-3.65-1.69-4.11a3.43,3.43,0,0,0-2.76.67,30.81,30.81,0,0,0-2.92,2.14C42.58,28.34,44.2,30.57,46.11,30.91ZM47,27.32c.5-.36,1.93-1.83,2.62-1.4.49.31.32,1.35.11,1.75C49.11,28.73,47.62,29,46.5,29c-.36-.07-.93-.25-.89-.6S46.71,27.49,47,27.32Zm2.19-11.58C49,14.48,47,15,47.22,16.28c.46,3.22,5,2.07,6.16,0a2.44,2.44,0,0,0-.6-3.34,3.84,3.84,0,0,0-3.73,0c-1.17.53-.16,2.26,1,1.73.69-.31,2.44-.3,1.43.85C51,16.09,49.32,16.91,49.15,15.74Zm-5,5.83a.74.74,0,0,0,0-.76.81.81,0,0,0-.94-.35.28.28,0,0,0-.12,0l-.12,0h0l-.06.05a.61.61,0,0,0-.28.42.72.72,0,0,0,.07.59A.85.85,0,0,0,44.14,21.57Zm-.26,49a.74.74,0,0,0,0-.76.87.87,0,0,0-.53-.39H43a.82.82,0,0,0-.52.39.72.72,0,0,0,0,.76A.85.85,0,0,0,43.88,70.53Zm15.95-2.76a1,1,0,0,0,0,1,1.11,1.11,0,0,0,1.89,0,1,1,0,0,0,0-1,1.2,1.2,0,0,0-.68-.51H61a.79.79,0,0,0-.22,0h-.25A1.14,1.14,0,0,0,59.83,67.77Zm-6-4.34c2,.32,5.56-.08,6.21-2.42.72-2.63-2.53-3.92-4.58-3.77-1.76.2-3.89,1-4.35,2.92S52.21,63.18,53.82,63.43Zm-.73-3a3,3,0,0,1,2.36-1.23c.55,0,3.21.21,2.58,1.36-.28.53-1.31.71-1.84.81a5.67,5.67,0,0,1-2.21,0,1.61,1.61,0,0,1-.9-.48C53,60.87,53,60.71,53.09,60.47ZM58.4,78.11c1.29,2.54,5.82,2.3,8.06,1.57,1.89-.62,4.11-2.5,2-4.34C66.19,73.32,56.37,73.29,58.4,78.11Zm4.25-2.06a7.74,7.74,0,0,1,3.67.31c.19.08.75.27.86.49a.77.77,0,0,0,.11.16s-.08,0-.14.14c-.28.48-1.45.68-1.94.8-1.24.28-4.37.57-5.08-.85C59.87,76.48,62.33,76.09,62.65,76.05Zm9-6.3-.07,0a.6.6,0,0,1-.08-.08s-.06,0-.08,0l-.09,0a1.75,1.75,0,0,0-1.66.11,1,1,0,0,0-.08,1.71,1.72,1.72,0,0,0,1.84,0,1,1,0,0,0,.33-1.55.34.34,0,0,0-.08-.09ZM67.11,57.19A4.77,4.77,0,0,0,71.5,57c1.14-.61.13-2.34-1-1.73-.68.37-3.26.74-2.83-.7.37-1.21,2.38-1.24,3.2-.59,1,.78,2.43-.62,1.42-1.42-2-1.6-5.83-1.26-6.58,1.6A2.75,2.75,0,0,0,67.11,57.19ZM46.71,70.36c-.19,1.41,1.16,2.4,2.36,2.78a3.76,3.76,0,0,0,4.41-1.4,1,1,0,0,0-1.72-1c-.45.79-1.65.72-2.38.4-.21-.09-.58-.27-.67-.5,0,0,0,0,0,0a.19.19,0,0,0,0-.06,3,3,0,0,1,2.93-.77c1.17.51,2.19-1.21,1-1.73C50.82,67.25,47,67.92,46.71,70.36Zm-.69-7a1.72,1.72,0,0,0,1.84.05,1,1,0,0,0,.33-1.55l-.08-.09,0-.05-.06,0a.34.34,0,0,1-.09-.08s-.06,0-.08,0l-.09,0a1.75,1.75,0,0,0-1.66.11A1,1,0,0,0,46,63.37ZM95.68,72a1.25,1.25,0,0,0-2.39.74,1.31,1.31,0,0,1-.62.41,3.86,3.86,0,0,1-2.58-.08,1.25,1.25,0,0,0-1,2.27,5.87,5.87,0,0,0,2.43.5,6.3,6.3,0,0,0,2-.34C95.26,74.84,96.16,73.37,95.68,72Zm9.52-1a8,8,0,0,1-.59-2.59,7.74,7.74,0,0,1,.27-1.56,5.42,5.42,0,0,0-.33-4.46,8.37,8.37,0,0,0-2.91-2.49,8,8,0,0,1-2-1.55A4.24,4.24,0,0,1,99,57a4.73,4.73,0,0,0-2.33-2.93,8,8,0,0,0-2.88-.81,7,7,0,0,1-2-.52A4.43,4.43,0,0,1,90.4,51.5a6.54,6.54,0,0,0-2.28-2c-4-2-12.25-3.42-16.48-3.25-1.16.06-11.46.57-16.82,2.69a14.1,14.1,0,0,0-4.64,3.25,11.57,11.57,0,0,1-3.56,2.6,20.63,20.63,0,0,1-3.51,1,13.52,13.52,0,0,0-6.06,2.44,9.69,9.69,0,0,0-3,5.2,20.58,20.58,0,0,1-.72,2.08c-1.88,4.57-1,6.46,1.52,10.68.38.65.73,1.43,1.11,2.26,1,2.24,2.16,4.78,4.51,5.9a5.09,5.09,0,0,0,2.37.36,2.7,2.7,0,0,1,1.62.26c.31.21.4.46.58,1.15a4.14,4.14,0,0,0,1.38,2.46C48.8,90.45,55.11,91,60,91.12a4.54,4.54,0,0,1,2.56,1.1A8.75,8.75,0,0,0,65,93.55,10.44,10.44,0,0,0,68,94a20.76,20.76,0,0,0,4.16-.55c.82-.17,1.68-.34,2.54-.45a37.61,37.61,0,0,1,3.79-.15,28.92,28.92,0,0,0,5.24-.34,12.61,12.61,0,0,0,3.31-1.24,9.5,9.5,0,0,1,2.34-.92,8.81,8.81,0,0,1,2.12-.2,7.63,7.63,0,0,0,3.54-.71,1.28,1.28,0,0,0,.25-.15L97.17,88c2.24-1.55,2.24-1.55,2.35-1.66,2.7-2.76,6.42-8.52,6.39-12.16A10.1,10.1,0,0,0,105.2,71Zm-10.77,12a18.66,18.66,0,0,0,7.81-4.89,26.79,26.79,0,0,1-4.43,6.44c-.27.19-1.18.83-2.06,1.43l-1.33.92c-.15.11-.3.21-.45.33a5.31,5.31,0,0,1-2.47.46A10.5,10.5,0,0,0,86,89a10.21,10.21,0,0,1-2.67,1,26.78,26.78,0,0,1-4.77.3,38.76,38.76,0,0,0-4.07.17c-1,.11-1.88.3-2.75.48-2.08.42-3.87.79-5.93.17a6.47,6.47,0,0,1-1.78-1,6.87,6.87,0,0,0-3.93-1.54c-6.17-.15-10.69-.91-12.1-2-.28-.23-.37-.54-.52-1.13a4,4,0,0,0-1.63-2.62,4.89,4.89,0,0,0-3-.67,3,3,0,0,1-1.24-.12c-1.52-.72-2.43-2.73-3.3-4.67A26.43,26.43,0,0,0,37,74.88c-2.24-3.82-2.84-4.85-1.35-8.45.33-.81.56-1.57.79-2.3.51-1.63.91-2.92,2.22-4a11.52,11.52,0,0,1,5-1.93,22.85,22.85,0,0,0,3.93-1.13A13.93,13.93,0,0,0,51.9,54a11.59,11.59,0,0,1,3.84-2.74c4-1.61,12-2.34,16-2.52,3.81-.17,11.76,1.2,15.23,3A4.17,4.17,0,0,1,88.43,53a6.62,6.62,0,0,0,2.06,1.9,8.39,8.39,0,0,0,2.9.82,6.25,6.25,0,0,1,2,.51,2.38,2.38,0,0,1,1.21,1.6,6.62,6.62,0,0,0,1,2A9.88,9.88,0,0,0,100.32,62a6.76,6.76,0,0,1,2.1,1.68c.45.72.31,1.41,0,2.56a10.23,10.23,0,0,0-.34,2.11,10.08,10.08,0,0,0,.73,3.44l.19.57c-.21,4.78-4.74,7.66-9,9.16C93.13,81.82,93.52,83.27,94.43,82.94Zm-26.77-22c-1.48,1.84-2.77,4.16-.15,5.62a8.5,8.5,0,0,0,7.21.22c2.33-1.36,3.09-4.09.91-6S69.49,58.62,67.66,60.91Zm6,4.12a6.4,6.4,0,0,1-3.6.27A5.47,5.47,0,0,1,68.94,65c-1-.42-1.16-.55-.44-1.77a3.43,3.43,0,0,1,4.09-1.78C74.61,61.89,75.94,63.71,73.71,65ZM91.25,82.35l-1.09.3a.75.75,0,0,0,.4,1.45l1.09-.31A.75.75,0,0,0,91.25,82.35Zm-3.62,1a48.27,48.27,0,0,0-5.32,2.18c-3.18,1.46-5.49.5-8.72.84s-4.2,1.75-7.83.28c-1.8-.74-3.47-1.62-5.33-2.26-2.08-.72-4.19-1.35-6.28-2.06s-3.37-1-4.84-3c-.4-.54-.49-1.24-1-1.71-.89-.77-1.29-.57-2.37-.59-2.63,0-3.85.56-5.67-1.91a13.71,13.71,0,0,1-1.63-3.59c-.33-.9-1.78-.51-1.45.4,1.52,4.13,3.12,6.62,7.62,6.95a2.76,2.76,0,0,1,1.52.17c1-.22,1.57.13,1.73,1,.59.56.72,1.27,1.41,1.85,1.81,1.51,4.73,2,6.87,2.7,3.19,1,6.14,2.26,9.21,3.61a6.86,6.86,0,0,0,5,.58,21.94,21.94,0,0,1,5.9-.81,18.48,18.48,0,0,0,3,.13c3-.36,5.83-2.39,8.68-3.32C88.94,84.53,88.55,83.08,87.63,83.38ZM17.6,37.3A3.71,3.71,0,0,0,21,34.17c.15-1.28-1.85-1.27-2,0-.1.85-1.4,1.22-2.1,1.18-.21,0-.61,0-.77-.21.06.08,0,0,0-.09a3,3,0,0,1,2.48-1.83,1,1,0,0,0,0-2c-2,0-5.11,2.26-4.41,4.54C14.63,37.15,16.35,37.47,17.6,37.3Zm-6.74-7.7c1.38.26,2.72-1.74,1.08-2.37a.64.64,0,0,0-.43,0,1.72,1.72,0,0,0-1.38.83A1,1,0,0,0,10.86,29.6Zm0,6.56a.6.6,0,0,0-.23,0h0a.59.59,0,0,0-.51.47.33.33,0,0,0-.07.13.77.77,0,0,0,.34.85.85.85,0,0,0,1.25-.51.77.77,0,0,0-.34-.85A.7.7,0,0,0,10.88,36.16Zm-.34,1.38h0ZM34.72,51.72h0a24.42,24.42,0,0,0,6.93-1.92,39.88,39.88,0,0,0,4.4-2.67c.93-.62,1.89-1.27,2.86-1.83a34.37,34.37,0,0,1,3.43-1.65A29.22,29.22,0,0,0,57,41.24a12.44,12.44,0,0,0,2.54-2.44A9.73,9.73,0,0,1,61.32,37a9.26,9.26,0,0,1,1.86-1,7.76,7.76,0,0,0,3-2.07,2,2,0,0,0,.17-.23c.1-.18.62-1,1.17-1.9,1.45-2.34,1.45-2.34,1.51-2.49a27.61,27.61,0,0,0,1.69-8.36,10.68,10.68,0,0,0-1.81-6.49c-.39-.6-.82-1.16-1.23-1.69L66.5,11.28a12.31,12.31,0,0,1-1.29-1.87,5.19,5.19,0,0,1-.44-2.59c0-.39,0-.8,0-1.23-.11-1.86-1.94-2.75-3-3.28l-.1-.05C60,1.48,58,.46,55.8.57a12.29,12.29,0,0,0-2,.26c-.38.08-.77.15-1.16.2A15.25,15.25,0,0,1,49.32.87C48.48.78,47.63.65,46.78.53c-1.32-.2-2.69-.4-4-.5a17.58,17.58,0,0,0-4.55.45L37.55.6a38.47,38.47,0,0,0-10.11,3,73.71,73.71,0,0,0-8.17,4.8,10,10,0,0,1-2.13.92,17.48,17.48,0,0,0-2.08.85A12.16,12.16,0,0,0,11,13.49c-.19.25-.37.51-.54.77a5,5,0,0,1-1.32,1.48,4.88,4.88,0,0,1-1,.37,4.66,4.66,0,0,0-2.41,1.34,4.61,4.61,0,0,0-.91,2.66,3.53,3.53,0,0,1-.27,1.27,3.51,3.51,0,0,1-1.09.94,7.5,7.5,0,0,0-1.32,1A7.26,7.26,0,0,0,.48,27.75,53.43,53.43,0,0,0,.18,39c.26,2.58,2.05,4.1,3.63,5.44a16.55,16.55,0,0,1,1.54,1.41A11.05,11.05,0,0,1,6.67,48c.89,1.67,1.91,3.55,3.83,4.13,1.61.49,3-.22,4.25-.84A4.76,4.76,0,0,1,17,50.48a4.56,4.56,0,0,1,2.26,1.17,9,9,0,0,0,2.5,1.48,6.15,6.15,0,0,0,2,.3,14.22,14.22,0,0,0,2.47-.28l5.08-.89c.68-.12,1.39-.23,2.11-.33ZM30.85,49.8l-5.08.89a6.91,6.91,0,0,1-3.19.07,7.07,7.07,0,0,1-1.82-1.11A6.59,6.59,0,0,0,17.13,48h-.2a7.33,7.33,0,0,0-3.3,1,3.78,3.78,0,0,1-2.41.68c-.93-.28-1.65-1.63-2.35-2.92a12.26,12.26,0,0,0-1.69-2.6,18.85,18.85,0,0,0-1.75-1.61C4,41.38,2.82,40.35,2.66,38.78A51.89,51.89,0,0,1,3,28a5.18,5.18,0,0,1,1-2.94,6.68,6.68,0,0,1,.92-.7A5.37,5.37,0,0,0,6.71,22.6a5.6,5.6,0,0,0,.58-2.22,2.81,2.81,0,0,1,.33-1.32,2.68,2.68,0,0,1,1.21-.55,7.63,7.63,0,0,0,1.54-.6,6.88,6.88,0,0,0,2.14-2.24L13,15a9.56,9.56,0,0,1,3.25-2.58A14.29,14.29,0,0,1,18,11.71a11.42,11.42,0,0,0,2.68-1.2,71.09,71.09,0,0,1,7.89-4.63A35.56,35.56,0,0,1,38,3.06l.66-.12a15.3,15.3,0,0,1,3.88-.42c1.27.1,2.6.29,3.88.48.87.13,1.74.26,2.61.36a16.82,16.82,0,0,0,3.9.15c.46,0,.91-.14,1.36-.22a10.57,10.57,0,0,1,1.58-.23,10.84,10.84,0,0,1,4.64,1.45l.1,0c.56.27,1.6.78,1.63,1.19s0,.74,0,1.08A7.36,7.36,0,0,0,63,10.54a14.3,14.3,0,0,0,1.53,2.27l1.15,1.49c.39.49.78,1,1.12,1.51.06.09.09.19.15.28,1,4.16-1.88,8.16-5,11-.7.66.36,1.71,1.07,1.06a18.27,18.27,0,0,0,5.14-7.6,1.62,1.62,0,0,1,0,.22,25.11,25.11,0,0,1-1.49,7.5c-.17.29-.77,1.24-1.33,2.16s-.84,1.35-1.08,1.79h0a5.34,5.34,0,0,1-2.13,1.44A12.15,12.15,0,0,0,59.86,35a12,12,0,0,0-2.23,2.21,10.27,10.27,0,0,1-2.05,2,27.64,27.64,0,0,1-4.25,2.17,36.67,36.67,0,0,0-3.67,1.78c-1,.6-2,1.27-3,1.91a38.16,38.16,0,0,1-4.12,2.51,22.38,22.38,0,0,1-6.21,1.69l-1.32.2ZM52,38.49c2.22-1.64,3.82-4.18,5.9-6,.72-.64-.34-1.7-1.06-1.06-1.82,1.61-3.22,3.52-5,5.18-2,1.88-4.5,1.87-6.73,3.16-2,1.15-3,2.81-5.38,3.57s-4.95,1.21-7.38,1.81l-3.25.79c-2.1.5-5.11.66-6.89-.93-.91-.82-1.06-2.3-2.16-3.05a3.92,3.92,0,0,0-3.52-.42c-.64.18-1.19.63-1.81.84-3.36,1.17-5.59-.25-7.6-2.4-.66-.7-1.72.36-1.06,1.06,1.44,1.55,3.05,3.4,5.28,3.73,3,.43,5.84-3.43,8.72-.51,1.32,1.35,1.35,2.91,3.34,3.65s4.22-.07,6.09-.52c5.1-1.22,10.78-1.74,14.89-5.14C46.76,40.31,49.66,40.24,52,38.49ZM27.2,15.42a4.51,4.51,0,0,0,4.31-1.74c.79-1-.62-2.43-1.41-1.42-.48.61-2.91,2.19-3,.54-.05-1.31,1.75-2,2.8-1.73a1,1,0,0,0,.53-1.92c-2.44-.64-5.58,1.18-5.31,3.94A2.66,2.66,0,0,0,27.2,15.42ZM18.06,26.51C20,26,23,24.2,22.68,21.85c-.37-2.8-4-2.55-5.8-1.6-1.5.87-3.08,2.5-2.71,4.4S16.47,26.93,18.06,26.51ZM17.89,22a2.94,2.94,0,0,1,2.2-.37c.42.13.7.35.56.79-.19.61-1,1.13-1.52,1.45a5.32,5.32,0,0,1-1.95.81c-.63.09-1.1-.06-1.06-.59C16.19,23.11,17.14,22.41,17.89,22Zm72.5,46.2a2.44,2.44,0,0,0,.92-3,3.6,3.6,0,0,0-3.45-1.84,1,1,0,0,0,0,2c.6,0,2.42.51,1.29,1.25-.54.35-2.72.58-2.45-.51.31-1.25-1.62-1.79-1.93-.53C84,68.76,88.29,69.68,90.39,68.18ZM78.85,68l0,0a.8.8,0,0,0-.34.85.85.85,0,0,0,1.28.48.8.8,0,0,0,.35-.85.77.77,0,0,0-.61-.59A.6.6,0,0,0,78.85,68Zm.26-10.43a1,1,0,0,0,0-1,1.2,1.2,0,0,0-.68-.51h-.06a.79.79,0,0,0-.22,0H77.9a1.14,1.14,0,0,0-.68.51,1,1,0,0,0,0,1A1.11,1.11,0,0,0,79.11,57.57Zm7.12.78a1.7,1.7,0,0,0,1.84,0,1,1,0,0,0,.33-1.55l-.08-.09,0,0-.07,0a.71.71,0,0,0-.09-.07s0,0-.07,0l-.09,0a1.75,1.75,0,0,0-1.66.11A1,1,0,0,0,86.23,58.35ZM78,78.76a1.59,1.59,0,0,0,.27.12c1.85.92,4.42,1,5.89-.63,1-1.17,1.42-3.3.08-4.39a3.33,3.33,0,0,0-2.62-.55,18.43,18.43,0,0,0-3.9.91C75.55,75.12,76.47,77.73,78,78.76Zm2.55-3.14c.57-.12,2.3-.84,2.56.06.16.57-.43,1.32-.85,1.57A3.45,3.45,0,0,1,79,77C77.5,76,79.85,75.78,80.56,75.62Zm13.3-14.88a.72.72,0,0,0,0-.76.91.91,0,0,0-.53-.39h-.39a.83.83,0,0,0-.53.4.7.7,0,0,0,0,.75A.85.85,0,0,0,93.86,60.74Z"/></g></g></svg>