<svg xmlns="http://www.w3.org/2000/svg" viewBox="0 0 45.28 50"><defs><style>.cls-1{fill:#ff92c4;}.cls-2{fill:#fd3200;}.cls-3{fill:#ffe706;}.cls-4{fill:#442a11;}</style></defs><g id="Laag_2" data-name="Laag 2"><g id="Layer_1" data-name="Layer 1"><path class="cls-1" d="M25.24,29.09c-1.2-.9-2.36-1.95-4.11-1.75a12.58,12.58,0,0,0-2.61.76,8.71,8.71,0,0,1-1.58.4,3.48,3.48,0,0,1-1.3-.07,9.72,9.72,0,0,1-3-1.7A5.6,5.6,0,0,0,11.09,26a7.34,7.34,0,0,0-3.66,0c-.42.1-.87.22-1.33.32a4.59,4.59,0,0,1-3.55-.14c-2-1.17-2.5-4.24-.68-5.75,1.34-1.1,3.25-.45,4-2.17,3.37-7.45,9.87-10.4,15.2-10.21h0c-.24,4.23,6.34,4.26,7.67,1.47l.07,0A18.66,18.66,0,0,1,40.56,22.94c.17.73.11,2.6,2.07,3.68,3.64,2,1.77,7.12-3.09,6.44a7.19,7.19,0,0,1-1.47-.38A12.77,12.77,0,0,1,35,30.79,7.91,7.91,0,0,0,33.69,30a5.05,5.05,0,0,0-4.33.07l-.21.06C27.48,30.61,26.35,29.9,25.24,29.09ZM31,14a.08.08,0,0,0-.05-.08.07.07,0,0,0-.08.05.09.09,0,0,0,.05.08A.08.08,0,0,0,31,14Zm-1.43,3.44a.42.42,0,1,0-.53-.65.42.42,0,1,0,.53.65Zm-2.29-3.25a.08.08,0,0,0-.06-.08s-.06,0-.07,0,0,.08.05.08A.07.07,0,0,0,27.29,14.21ZM26,16.88A.07.07,0,0,0,26,16.8a.07.07,0,0,0-.07.06,0,0,0,0,0,0,.07S26,16.92,26,16.88Zm-2,4.41a.08.08,0,0,0-.06-.08s-.06,0-.07.05a.06.06,0,0,0,0,.08A.07.07,0,0,0,24.07,21.29ZM22.3,14.94a.42.42,0,1,0-.61,0A.43.43,0,0,0,22.3,14.94Zm-4.11-3.07a.42.42,0,1,0-.53-.64.42.42,0,1,0,.53.64Zm.14,4.77s0-.08,0-.08a.06.06,0,0,0-.07.05.06.06,0,0,0,0,.08S18.33,16.67,18.33,16.64Z"/><path class="cls-2" d="M28.62,6.94C27.1,4,21.76,4,21.19,7.67a3.27,3.27,0,0,0,0,.44c-.24,4.23,6.34,4.26,7.67,1.47A2.9,2.9,0,0,0,28.62,6.94Z"/><path class="cls-3" d="M27.21,14.26a.07.07,0,0,0,.08,0,.08.08,0,0,0-.06-.08s-.06,0-.07,0S27.17,14.26,27.21,14.26Zm2.37,3.2a.42.42,0,1,0-.53-.65.42.42,0,1,0,.53.65ZM26,16.93s.08,0,.08-.05A.07.07,0,0,0,26,16.8a.07.07,0,0,0-.07.06A0,0,0,0,0,26,16.93Zm5-2.86a.07.07,0,1,0,0-.13.07.07,0,0,0-.08.05A.09.09,0,0,0,30.93,14.07Zm4,16.72A7.91,7.91,0,0,0,33.69,30a5.05,5.05,0,0,0-4.33.07l-.21.06c-1.67.52-2.8-.19-3.91-1s-2.36-1.95-4.11-1.75a12.58,12.58,0,0,0-2.61.76,8.71,8.71,0,0,1-1.58.4,3.48,3.48,0,0,1-1.3-.07,9.72,9.72,0,0,1-3-1.7A5.6,5.6,0,0,0,11.09,26a7.34,7.34,0,0,0-3.66,0c-.42.1-.87.22-1.33.32l.09.4c0,3.69,0,7.39,0,11.08,0,1.22-.11,2.5,0,3.71.15,1.52,1.47,2.55,2.74,3.35l.53.34a24.94,24.94,0,0,0,3,1.52,26.61,26.61,0,0,0,4.48,1.55,28.25,28.25,0,0,0,4.26.79,27.36,27.36,0,0,0,4.14.1,19.82,19.82,0,0,0,4-.66l.46-.13a3.67,3.67,0,0,0,2.74-2.15c.61-1.46,1.19-2.94,1.79-4.41L38,32.93l.09-.25A12.77,12.77,0,0,1,35,30.79ZM24,21.34a.07.07,0,0,0,.08-.05.08.08,0,0,0-.06-.08s-.06,0-.07.05A.06.06,0,0,0,24,21.34Zm-5.78-4.73a.06.06,0,0,0,0,.08s.08,0,.08-.05,0-.08,0-.08A.06.06,0,0,0,18.21,16.61Zm0-4.74a.42.42,0,1,0-.53-.64.42.42,0,1,0,.53.64Zm4.11,3.07a.42.42,0,1,0-.61,0A.43.43,0,0,0,22.3,14.94Z"/><path class="cls-4" d="M27.46,13.75a.36.36,0,0,0-.41,0,.51.51,0,1,0,.41,0Zm-1.24,2.67a.38.38,0,0,0-.42,0,.51.51,0,1,0,.42,0Zm3.8.18s0-.05,0-.07c-.76-.75-2.05.31-1.37,1.16a.9.9,0,0,0,1.44-1.07Zm1.16-3.05a.36.36,0,0,0-.41,0,.51.51,0,0,0,.1,1A.51.51,0,0,0,31.18,13.55ZM43,26a3.21,3.21,0,0,1-1.62-2.69c0-.2-.06-.37-.09-.5A19.32,19.32,0,0,0,29.72,9.15a3.92,3.92,0,0,0-.44-2.55,4.41,4.41,0,0,0-1.71-1.77,10.1,10.1,0,0,1,2.87-3.49.76.76,0,0,0,.14-1,.75.75,0,0,0-1-.14A11.36,11.36,0,0,0,26.2,4.26,5.47,5.47,0,0,0,24,4.15,4,4,0,0,0,20.5,7.36C15.52,7.42,8.76,10.19,5.22,18c-.29.64-.77.78-1.67,1a4.89,4.89,0,0,0-2.15.92A4,4,0,0,0,0,23.34a4.54,4.54,0,0,0,2.16,3.54,4.59,4.59,0,0,0,3.27.41l0,10.58q0,.59,0,1.2a20.1,20.1,0,0,0,0,2.57c.21,2.18,2.27,3.43,3.63,4.25A29.13,29.13,0,0,0,23.86,50a21.64,21.64,0,0,0,6.19-.85,4.41,4.41,0,0,0,3.21-2.58c.41-1,.81-2,1.2-3l4-10a8.47,8.47,0,0,0,.93.2,6.75,6.75,0,0,0,1,.07,4.69,4.69,0,0,0,4.66-3.06A4,4,0,0,0,43,26ZM21.93,7.78a2.61,2.61,0,0,1,2.29-2.16,4,4,0,0,1,.6,0A3.46,3.46,0,0,1,28,7.28a2,2,0,0,1-.17,2.49,4.42,4.42,0,0,1-4.64.59A2.22,2.22,0,0,1,21.93,7.78ZM9,44a3.83,3.83,0,0,1-2-2.55,20.88,20.88,0,0,1,0-2.38c0-.42,0-.84,0-1.25L6.93,27l.66-.16a7.09,7.09,0,0,1,2.91-.15Zm.91.58-.06,0q.78-8.84,1.55-17.67a6,6,0,0,1,.82.44l.59.41a9.07,9.07,0,0,0,2.32,1.29q-1.23,8.46-2.87,16.83A25.2,25.2,0,0,1,9.88,44.62Zm3.19,1.63q1.66-8.47,2.9-17a4.25,4.25,0,0,0,1.07,0,10.52,10.52,0,0,0,2.22-.61l.39-.14c-1.2,6.3-2.2,12.65-3,19A28,28,0,0,1,13.07,46.25Zm4.43,1.48q1.21-9.63,3-19.17a.51.51,0,0,0-.06-.33,6.31,6.31,0,0,1,.73-.15c1.29-.14,2.2.54,3.24,1.34l.2.15a166.26,166.26,0,0,0-3.82,18.76A27.72,27.72,0,0,1,17.5,47.73Zm4.22.69a164.56,164.56,0,0,1,3.71-18.29,4.47,4.47,0,0,0,3.21.84Q27,39.78,25,48.49A25.46,25.46,0,0,1,21.72,48.42Zm4.19,0Q28,39.61,29.59,30.74h0a4.48,4.48,0,0,1,3.48-.21C31.69,36.3,30.38,42.1,29,47.89A20,20,0,0,1,25.91,48.42Zm7.17-5.36c-.4,1-.79,2-1.2,2.94A2.69,2.69,0,0,1,30,47.6c1.33-5.55,2.59-11.11,3.93-16.66.2.13.4.27.62.44a16.12,16.12,0,0,0,2.59,1.69ZM43.67,30.34c-.4,1.21-1.8,2.3-4,2a8.79,8.79,0,0,1-4.22-2.13c-2.35-1.79-4-1.69-6.32-.86-1.58.56-2.54-.17-3.76-1.1A5.8,5.8,0,0,0,21,26.6a10.49,10.49,0,0,0-2.28.62,8.86,8.86,0,0,1-1.91.54c-1.25.15-2.12-.45-3.21-1.22L13,26.11a6.92,6.92,0,0,0-5.75-.78l-.84.21c-1.25.31-2.53.64-3.5.06A3,3,0,0,1,1.5,23.22a2.46,2.46,0,0,1,.85-2.15,3.65,3.65,0,0,1,1.54-.62,3.38,3.38,0,0,0,2.69-1.83c3.23-7.13,9.31-9.69,13.85-9.77a3.6,3.6,0,0,0,2,2.84,5.6,5.6,0,0,0,2.51.56,5.53,5.53,0,0,0,3.87-1.43c.1-.1.18-.21.27-.31A17.84,17.84,0,0,1,39.83,23.13c0,.1,0,.22.07.37a4.64,4.64,0,0,0,2.37,3.77A2.51,2.51,0,0,1,43.67,30.34ZM18.51,16.17a.38.38,0,0,0-.42,0,.51.51,0,0,0,.11,1A.52.52,0,0,0,18.51,16.17ZM18.63,11a.25.25,0,0,0,0-.07c-.76-.75-2.05.31-1.36,1.17A.9.9,0,0,0,18.66,11Zm5.61,9.82a.35.35,0,0,0-.41,0,.51.51,0,1,0,.41,0Zm-1.5-6.75a.21.21,0,0,0,0-.06c-.76-.76-2.05.31-1.37,1.16a.9.9,0,0,0,1.44-1.07Z"/></g></g></svg>