<svg xmlns="http://www.w3.org/2000/svg" viewBox="0 0 50 30.86"><defs><style>.cls-1{fill:#e5ab3e;}.cls-2{fill:#ffe706;}.cls-3{fill:#442a11;}</style></defs><g id="Laag_2" data-name="Laag 2"><g id="Layer_1" data-name="Layer 1"><path class="cls-1" d="M48,9.55l-.26-.06c-.29,1.29-1.77,1.71-2.95,2.85s-1.45,2.92-3,3.62c-1.83.8-4.37-.68-6.31.32-2.24,1.15-2.49,4.25-3.66,6.21-4.09,6.87-7.31-5.82-12.4-2.53-2.09,1.33-3,4.8-5.92,4.69s-4.09-3.9-5.93-5.79c-2.45-2.51-4.63-1.71-6.22-4h0c-1.55,4.44-.06,10,3.88,12.57,5.59,3.67,13.67,2.93,20,2.07,6.51-.87,14-2.55,19.57-6.22A10.51,10.51,0,0,0,48,9.55Z"/><path class="cls-2" d="M47.53,7.74C46.25,4.12,40,1.53,36.61,1.08,26.5-.26,11.29,1.86,3.69,9.39,2.37,10.7.19,13.2,1.29,14.82h0c1.59,2.33,3.77,1.53,6.22,4,1.84,1.89,2.92,5.68,5.93,5.79s3.83-3.36,5.92-4.69c5.09-3.29,8.31,9.4,12.4,2.53,1.17-2,1.42-5.06,3.66-6.21,1.94-1,4.48.48,6.31-.32,1.59-.7,1.85-2.49,3-3.62s2.66-1.56,2.95-2.85A3.19,3.19,0,0,0,47.53,7.74Zm-28,4.41V12C22.06,9.4,29.72,8.4,32.66,10.24l.07.28A39.73,39.73,0,0,1,19.53,12.15Z"/><path class="cls-3" d="M39.21,10.29l.52.51c.39.37,1-.22.6-.6l-.53-.5C39.41,9.33,38.81,9.92,39.21,10.29Zm3-.71a1.2,1.2,0,0,0,1.26-1c0-.69-.65-1.06-1.26-1.09a1.18,1.18,0,0,0-1.25,1A1.18,1.18,0,0,0,42.25,9.58Zm0-1.54c.28,0,.7.14.7.49s-.42.48-.7.48-.69-.15-.69-.48S42,8.05,42.25,8ZM11.38,13.46v.46a.42.42,0,0,0,.84,0v-.46A.42.42,0,0,0,11.38,13.46ZM34,5.78a1.25,1.25,0,0,0,1.29-1.09,1.3,1.3,0,0,0-2.59-.05A1.24,1.24,0,0,0,34,5.78Zm0-1.72c.32,0,.73.19.73.58s-.41.58-.73.58-.74-.2-.74-.58S33.66,4.07,34,4.06Zm3.58,8.32v.89a.42.42,0,0,0,.84,0v-.89A.42.42,0,0,0,37.57,12.38ZM21.8,14.8a.43.43,0,0,0-.59,0,.43.43,0,0,0,0,.6l.46.37a.42.42,0,0,0,.6-.59Zm6.49,3.95-.37.61c-.29.46.44.89.72.42l.38-.6C29.3,18.72,28.57,18.29,28.29,18.75Zm.51-4.53-.12,0-.12,0a1.13,1.13,0,0,0,.12,2.24,1.1,1.1,0,0,0,1.06-1.08A1.11,1.11,0,0,0,28.8,14.22Zm-.12,1.68c-.66,0-.65-1.1,0-1.14S29.34,15.9,28.68,15.9ZM14,16.29a1.15,1.15,0,0,0-1.18,1.05,1.19,1.19,0,0,0,2.36,0A1.13,1.13,0,0,0,14,16.29Zm0,1.54c-.27,0-.61-.18-.61-.49s.34-.47.61-.49.62.16.62.49S14.28,17.83,14,17.83Zm27.29,3.53a.43.43,0,0,0-.6,0,.45.45,0,0,0,0,.6l.24.29a.43.43,0,0,0,.6,0,.45.45,0,0,0,0-.6ZM43,20.24a.43.43,0,0,0-.59,0,.43.43,0,0,0,0,.6l.17.14a.43.43,0,0,0,.59,0,.43.43,0,0,0,0-.6ZM4.46,13.52c.4.36,1-.24.59-.59l-.37-.33c-.41-.35-1,.24-.6.6ZM48.6,9.19a.74.74,0,0,0-.12-.13,4.63,4.63,0,0,0-.29-1.55C46.72,3.35,40,.81,36.7.38a53.63,53.63,0,0,0-17.64.84C14.32,2.25,7.71,4.41,3.2,8.89c-3.05,3-3.2,4.9-2.66,6C-1,19.71.83,25.38,4.79,28c3.32,2.17,7.4,2.88,11.74,2.88a67.1,67.1,0,0,0,8.75-.7C34,29,40.46,26.92,45.15,23.82A11.21,11.21,0,0,0,48.6,9.19ZM4.19,9.88c5.88-5.83,17-8.48,26.46-8.48a45.65,45.65,0,0,1,5.87.37c3.57.47,9.24,3.06,10.35,6.21.55,1.58,0,2-1.19,2.78a9.56,9.56,0,0,0-1.38,1.07,7.41,7.41,0,0,0-1.25,1.71,3.69,3.69,0,0,1-1.6,1.78,5.15,5.15,0,0,1-2.58,0,6.18,6.18,0,0,0-3.76.29c-1.74.9-2.43,2.75-3,4.38a13.65,13.65,0,0,1-.91,2.09c-.64,1.07-1.26,1.65-1.85,1.72-.95.12-2.09-1-3.29-2.17-1.87-1.85-4.2-4.15-7-2.31a9,9,0,0,0-2.16,2.23C15.83,22.89,15,24,13.47,24c-1.69-.06-2.7-1.63-3.76-3.29A14.74,14.74,0,0,0,8,18.37a9.07,9.07,0,0,0-3.61-2.23A4.78,4.78,0,0,1,2,14.6a.72.72,0,0,0-.25-.42C1.46,13.28,2.34,11.71,4.19,9.88ZM44.38,22.65c-4.51,3-10.81,5-19.28,6.12-7.13,1-14.43,1.38-19.54-2C2.34,24.69.76,20.25,1.63,16.23A7.63,7.63,0,0,0,3.9,17.45,7.62,7.62,0,0,1,7,19.35a13.39,13.39,0,0,1,1.52,2.07c1.16,1.8,2.47,3.84,4.89,3.93h.16c2.13,0,3.31-1.54,4.36-2.9a7.69,7.69,0,0,1,1.81-1.9c1.77-1.15,3.18,0,5.3,2.12,1.45,1.43,2.81,2.78,4.45,2.57,1.05-.13,2-.92,2.88-2.39a15.06,15.06,0,0,0,1-2.32c.57-1.53,1.1-3,2.37-3.63a5.1,5.1,0,0,1,2.93-.14A6.16,6.16,0,0,0,42,16.6a5,5,0,0,0,2.24-2.35,6.48,6.48,0,0,1,1-1.41,9.51,9.51,0,0,1,1.21-.93,7,7,0,0,0,1.37-1.12A9.82,9.82,0,0,1,44.38,22.65Zm.13-3.95-.11-.05c-.51-.19-.73.63-.23.82l.11,0C44.79,19.7,45,18.88,44.51,18.7Zm-36-4.83a1,1,0,0,0,1-.85,1,1,0,1,0-1,.85Zm0-1.21c.18,0,.42.11.42.32s-.24.33-.42.33-.43-.11-.43-.33S8.35,12.67,8.54,12.66Zm4.4-1.1a21,21,0,0,0,8.29,1.32c7,0,15.39-1.85,18-5.57a.7.7,0,1,0-1.15-.8,10.2,10.2,0,0,1-5,3.14h0c-3.21-2-11.07-1-13.91,1.75a16,16,0,0,1-5.58-1.11.7.7,0,0,0-.93.34A.69.69,0,0,0,12.94,11.56Zm18-1.27a41.54,41.54,0,0,1-9.39,1.16A15.84,15.84,0,0,1,30.89,10.29ZM24.1,5c.39.37,1-.22.59-.6l-.52-.5c-.39-.37-1,.22-.6.6Zm-12,3.12.33-.38c.35-.4-.24-1-.6-.59l-.32.37C11.1,7.92,11.69,8.52,12.05,8.11Zm15.37-.84V6.54a.42.42,0,0,0-.84,0v.73A.42.42,0,0,0,27.42,7.27Zm-6.2.61V7a.42.42,0,0,0-.84,0v.89A.42.42,0,0,0,21.22,7.88ZM17,7A1.06,1.06,0,0,0,18.1,6a1.11,1.11,0,0,0-2.2,0A1,1,0,0,0,17,7Zm0-1.33c.22,0,.54.11.54.38s-.32.39-.54.39-.54-.12-.54-.39S16.78,5.63,17,5.62Zm11.68-.76a.42.42,0,0,0,.57-.15,1.26,1.26,0,0,1,.5-.38c.48-.23.06-1-.43-.72a2,2,0,0,0-.79.68A.42.42,0,0,0,28.68,4.86Z"/></g></g></svg>