<svg xmlns="http://www.w3.org/2000/svg" viewBox="0 0 50 31.52"><defs><style>.cls-1{fill:#e5ab3e;}.cls-2{fill:#ff92c4;}.cls-3{fill:#ffe706;}.cls-4{fill:#442a11;}</style></defs><g id="Laag_2" data-name="Laag 2"><g id="Layer_1" data-name="Layer 1"><path class="cls-1" d="M48.28,12.45l-.12,0c-.28.73-1.13,1.17-2.34,1.42-2.46.49-2.17,2.09-2.82,4-.59,1.74-2.35,3.39-4.34,2.5s-3.42-3.24-5.39-4.4c-3.92-2.3-5.63,6.62-9.14,3.43-1.34-1.21-2-2.86-4.19-2.47-1.52.27-2.59,1.51-3.67,2.47-2.71,2.4-5.46,1.87-7-1.38a15.41,15.41,0,0,0-2.37-4.2C5.73,12.63,4,12.15,3,11a3,3,0,0,1-.59-.88l-.23.09C-9.65,34.69,58.13,39.63,48.28,12.45Z"/><path class="cls-2" d="M47.81,10.31a2.45,2.45,0,0,1,.35,2.1c-.28.73-1.13,1.17-2.34,1.42-2.46.49-2.17,2.09-2.82,4-.59,1.74-2.35,3.39-4.34,2.5s-3.42-3.24-5.39-4.4c-3.92-2.3-5.63,6.62-9.14,3.43-1.34-1.21-2-2.86-4.19-2.47-1.52.27-2.59,1.51-3.67,2.47-2.71,2.4-5.46,1.87-7-1.38a15.41,15.41,0,0,0-2.37-4.2C5.73,12.63,4,12.15,3,11a3,3,0,0,1-.59-.88c-1.22-2.86,4-5.58,6.22-6.59A35,35,0,0,1,22.89.71c5.15,0,10.6.39,15.45,2.19C42.07,4.3,45.9,6.81,47.81,10.31ZM39,12.06a.86.86,0,0,0,0-1.71A.86.86,0,0,0,39,12.06Zm-5-2.35a.87.87,0,1,0,0-1.73A.87.87,0,1,0,34.05,9.71Zm-2.56-4.4c1.28,0,1.28-1.54,0-1.54S30.22,5.31,31.49,5.31ZM26.85,9.46c1.27,0,1.27-1.55,0-1.55S25.59,9.46,26.85,9.46ZM23.75,14a.78.78,0,1,0,0-1.54A.78.78,0,1,0,23.75,14Zm-.33-8.51c1,0,1.11-1.34,0-1.34A.68.68,0,1,0,23.42,5.48Zm-5.35,4a.61.61,0,1,0,0-1.22A.61.61,0,1,0,18.07,9.45Zm-5,4.15a.78.78,0,1,0,0-1.54A.78.78,0,1,0,13.08,13.6Zm-.58-7a.87.87,0,1,0,0-1.73A.87.87,0,1,0,12.5,6.64Z"/><path class="cls-3" d="M23.42,4.14a.68.68,0,1,0,0,1.34C24.45,5.48,24.53,4.14,23.42,4.14ZM18.07,8.23a.61.61,0,1,0,0,1.22A.61.61,0,1,0,18.07,8.23ZM12.5,4.91a.87.87,0,1,0,0,1.73A.87.87,0,1,0,12.5,4.91Zm11.25,7.54a.78.78,0,1,0,0,1.54A.78.78,0,1,0,23.75,12.45Zm-10.67-.39a.78.78,0,1,0,0,1.54A.78.78,0,1,0,13.08,12.06ZM26.85,7.91c-1.26,0-1.26,1.55,0,1.55S28.12,7.91,26.85,7.91ZM39,10.35a.86.86,0,0,0,0,1.71A.86.86,0,0,0,39,10.35ZM34.05,8a.87.87,0,1,0,0,1.73A.87.87,0,1,0,34.05,8ZM31.49,3.77c-1.27,0-1.27,1.54,0,1.54S32.77,3.77,31.49,3.77Z"/><path class="cls-4" d="M34.05,10a1.22,1.22,0,0,0,1.3-1.12,1.31,1.31,0,0,0-2.6,0A1.22,1.22,0,0,0,34.05,10Zm0-1.73c.91,0,.92,1.17,0,1.17S33.14,8.28,34.05,8.26ZM26.86,9.74A1.15,1.15,0,0,0,28.1,8.68a1.26,1.26,0,0,0-2.49,0A1.15,1.15,0,0,0,26.86,9.74Zm0-1.55c.3,0,.65.15.66.49s-.36.5-.66.5-.65-.14-.66-.47S26.54,8.2,26.86,8.19Zm4.63-2.6a1.15,1.15,0,0,0,1.25-1,1.17,1.17,0,0,0-1.25-1.06,1.15,1.15,0,0,0-1.24,1.06A1.14,1.14,0,0,0,31.49,5.59Zm0-1.54c.31,0,.66.14.66.49S31.8,5,31.49,5s-.64-.14-.66-.47S31.18,4.05,31.49,4.05ZM39,12.34a1.14,1.14,0,0,0,0-2.27A1.14,1.14,0,0,0,39,12.34Zm0-1.71c.67,0,.67,1.14,0,1.14S38.34,10.66,39,10.63ZM12.5,6.93A1.21,1.21,0,0,0,13.79,5.8,1.21,1.21,0,0,0,12.5,4.63,1.22,1.22,0,0,0,11.2,5.8,1.23,1.23,0,0,0,12.5,6.93Zm0-1.74c.91,0,.92,1.17,0,1.17S11.59,5.22,12.5,5.19Zm30,17.94c-.37-.41-1,.19-.61.59l.14.16c.37.41,1-.19.62-.6ZM40.72,24c-.27-.48-1-.05-.75.42l.18.31c.28.48,1,.05.75-.42Zm3.54-2-.1,0a.43.43,0,0,0-.44.73l.09,0A.43.43,0,0,0,44.26,22ZM49,12.23A3.57,3.57,0,0,0,48.46,10C46.7,6.75,43.1,3.93,38.6,2.25,34.39.68,29.24,0,22.88,0A35.39,35.39,0,0,0,8.26,2.85C5.46,4.13,2,6.18,1.52,8.59a2.7,2.7,0,0,0,0,1.2l-.05.07c-3.5,7.28-.09,12.19,3.39,15,5.32,4.34,14.11,6.63,22.51,6.63,6.5,0,12.78-1.37,17.05-4.21C48.1,24.85,51.87,20.25,49,12.23Zm-46-3.36c.3-1.42,2.47-3.15,6-4.75a33.77,33.77,0,0,1,14-2.71h.69a41.8,41.8,0,0,1,14.5,2.15c4.17,1.56,7.49,4.14,9.09,7.08a1.79,1.79,0,0,1,.29,1.57c-.2.41-.81.73-1.79.92-2.37.48-2.71,1.93-3.05,3.33a11.42,11.42,0,0,1-.32,1.17,3.52,3.52,0,0,1-1.78,2.11,1.9,1.9,0,0,1-1.55,0,9.7,9.7,0,0,1-2.76-2.2,13.27,13.27,0,0,0-2.56-2.16c-2.46-1.45-4.27.61-5.59,2.12-.81.92-1.64,1.86-2.37,1.9a1.58,1.58,0,0,1-1.06-.5A9.83,9.83,0,0,1,23.8,18c-.89-1-1.9-2.15-4-1.78a7,7,0,0,0-3.46,2.12l-.57.53a4,4,0,0,1-3.3,1.26,4,4,0,0,1-2.6-2.42c-.16-.34-.32-.69-.47-1a11.23,11.23,0,0,0-2-3.34A9.68,9.68,0,0,0,5.31,11.8a7.81,7.81,0,0,1-1.82-1.32A1.81,1.81,0,0,1,2.94,8.87ZM43.59,26.15C34.43,32.26,14.65,31,5.8,23.81,2.86,21.41,0,17.35,2.38,11.39l0,0A9,9,0,0,0,4.55,13a8.53,8.53,0,0,1,1.78,1.28,10,10,0,0,1,1.74,2.94c.16.37.32.73.5,1.09A5.28,5.28,0,0,0,12.2,21.5a3.84,3.84,0,0,0,.76.07,5.86,5.86,0,0,0,3.8-1.67l.6-.55a5.69,5.69,0,0,1,2.71-1.75c1.22-.21,1.73.3,2.62,1.31a12.17,12.17,0,0,0,.94,1,3,3,0,0,0,2.14.89c1.36-.07,2.39-1.26,3.4-2.4,1.58-1.8,2.46-2.57,3.72-1.83a12.2,12.2,0,0,1,2.27,1.94,10.9,10.9,0,0,0,3.2,2.5,3.36,3.36,0,0,0,2.74,0,5,5,0,0,0,2.59-3c.15-.46.26-.9.35-1.29.32-1.32.47-2,1.93-2.27a5.2,5.2,0,0,0,2-.76C49.46,19,48,23.23,43.59,26.15Zm-21-12.9a1.18,1.18,0,1,0,1.18-1.08A1.12,1.12,0,0,0,22.57,13.25Zm1.18.46c-.76,0-.76-1,0-1S24.52,13.71,23.75,13.71Zm-.29-8a1,1,0,0,0,1.06-1,1.1,1.1,0,0,0-2.18,0A1,1,0,0,0,23.46,5.76Zm0-1.34c.24,0,.51.1.51.37a.44.44,0,0,1-.47.41C22.8,5.23,22.76,4.44,23.42,4.42ZM11.9,12.86a1.11,1.11,0,0,0,1.18,1,1.12,1.12,0,0,0,1.18-1,1.12,1.12,0,0,0-1.18-1.08A1.11,1.11,0,0,0,11.9,12.86Zm1.18.46c-.77,0-.76-1,0-1S13.84,13.32,13.08,13.32Zm5-3.59a.89.89,0,1,0,0-1.78.94.94,0,0,0-1,.89A.93.93,0,0,0,18.1,9.73Zm0-1.21c.49,0,.52.62,0,.65S17.54,8.53,18.07,8.52Z"/></g></g></svg>