<svg xmlns="http://www.w3.org/2000/svg" viewBox="0 0 88.22 101.23"><defs><style>.cls-1{fill:#fd3200;}.cls-2{fill:#ffe706;}.cls-3{fill:#fffeca;}.cls-4{fill:#442a11;}</style></defs><g id="Laag_2" data-name="Laag 2"><g id="objects"><path class="cls-1" d="M15.06,77,17.35,93.5c0,3.52,13.45,6.37,30.05,6.37S77.46,97,77.46,93.5L79.6,75.68l-.16,0A87.59,87.59,0,0,1,15.06,77Zm62-38.2a18.91,18.91,0,0,1-2.75.56,11.94,11.94,0,0,0-4.07,1.15,18,18,0,0,0-3.14,2.19c-1,.83-1.89,1.74-2.77,2.65-.64.65-1.28,1.35-1.93,2a20.82,20.82,0,0,1-4.69,4c-.33.19-.66.37-1,.54a18.86,18.86,0,0,1-4.85,1.63A16.7,16.7,0,0,1,49,54c-.35,0-.7,0-1,0a19,19,0,0,1-7-1.46c-.36-.14-.71-.3-1.05-.47a13.17,13.17,0,0,1-3.58-2.79c-1.07-1.1-2.08-2.29-3.2-3.31a20.47,20.47,0,0,0-5.58-3.6c-1.49-.67-3-1.2-4.61-1.73l-2.4-.79-1.63-.57c-2.42-.88-8.92-1.71-9.79-4.75L13.57,66.3l.4-.06a82.32,82.32,0,0,0,66.68,0h.08l3.83-32C83.93,36.91,79.09,38.2,77,38.82Z"/><path class="cls-2" d="M46.67,47c.48,2.38.92,4.62,1.32,6.6V54c.34,0,.69,0,1,0a16.7,16.7,0,0,0,2.82-.33A18.86,18.86,0,0,0,56.69,52l-.53-1.27-1.27-6.51.47-.09,4.45-19.56L64.48,4l-4.4-2.15L56.58,4,51.46,26.54c-1.73-8.9-3.12-16-3.12-16l-5-1.23-3.52,3.79s2.61,13,5.14,25.6ZM33.16,45.92c1.12,1,2.13,2.21,3.2,3.31l.56-.39c.15-11.67.38-30,.38-30l-3.81-2-3.57,2-.83-.05c.42-7,.75-12.44.75-12.44l-.08-.51L25,4.58,23,40.59c1.58.53,3.12,1.06,4.61,1.73A20.47,20.47,0,0,1,33.16,45.92ZM81.37,9.11l-4.61,4.47s-.16,1.7-.43,4.36l-.6-15.42L72.07,1.25l-4,3s-.62,23.52-1,37.91l0,.61a18,18,0,0,1,3.14-2.19,11.94,11.94,0,0,1,4.07-1.15A18.91,18.91,0,0,0,77,38.82c2-.62,6.89-1.91,7.52-4.57l.07-.58a.76.76,0,0,1,0,.15h.19C85.76,23.5,87,10.41,87,10.41ZM20.57,39.8c-.47-1.42-1-2.95-1.48-4.53C15.19,23.27,10.21,8,10.21,8l-4.69-.8L1.25,9.92s4.44,13.28,8,23.81l-.15.05.1.7c.87,3,7.37,3.87,9.79,4.75ZM14,66.24l-.4.06L15.06,77a87.59,87.59,0,0,0,64.38-1.36l.16,0,1.13-9.44h-.08A82.32,82.32,0,0,1,14,66.24Z"/><path class="cls-3" d="M9.15,34.48l-.1-.7A2.28,2.28,0,0,0,9.15,34.48Zm10.39.64-.45.15c.52,1.58,1,3.11,1.48,4.53l2.4.79L25,4.58,20.77,5.77ZM45,38.67h0L41.34,51.58l-.35.91A19,19,0,0,0,48,54V53.6c-.4-2-.84-4.22-1.32-6.6ZM59.81,24.56,55.36,44.12l-.47.09,1.27,6.51L56.69,52c.34-.17.67-.35,1-.54a20.82,20.82,0,0,0,4.69-4L62,47.05C61.07,37.45,59.81,24.56,59.81,24.56Zm24.75,9.69a1.54,1.54,0,0,0,.06-.43.76.76,0,0,0,0-.15Z"/><path class="cls-4" d="M7.94,34.86c.41-1.13-1.14-.38,0,0ZM87.26,9.2l-5.6-1.31a1.27,1.27,0,0,0-1.15.32L77.32,11.3,77,2.48a1.25,1.25,0,0,0-.84-1.13L72.48.07a1.24,1.24,0,0,0-1.15.17l-4,3a1.26,1.26,0,0,0-.51,1l-1,37.91s0,.06,0,.1c-1,.87-1.87,1.82-2.76,2.77l-2-20.31L65.69,4.32A1.24,1.24,0,0,0,65,2.92L60.64.76a1.25,1.25,0,0,0-1.2.05L55.93,2.93a1.27,1.27,0,0,0-.57.79L51.55,20.49l-2-10.22a1.28,1.28,0,0,0-.93-1l-5-1.23a1.24,1.24,0,0,0-1.22.37l-3.52,3.79a1.24,1.24,0,0,0-.31,1.09L43.7,38.59l-3.38,12a23.07,23.07,0,0,1-2.2-1.5,1,1,0,0,0,.05-.23l.38-30a1.26,1.26,0,0,0-.66-1.12l-3.8-2a1.25,1.25,0,0,0-1.2,0L30.44,17l.65-10.7a1.25,1.25,0,0,0-.1-.55,1.25,1.25,0,0,0-.93-1.25L25.34,3.37a1.34,1.34,0,0,0-.63,0L20.44,4.57a1.25,1.25,0,0,0-.92,1.15l-1,23.77L11.4,7.6a1.23,1.23,0,0,0-1-.84L5.72,6a1.2,1.2,0,0,0-.88.18L.58,8.87a1.25,1.25,0,0,0-.52,1.45L7.84,33.6a1.39,1.39,0,0,0,.35,1l0,.11a1.6,1.6,0,0,0,.11.19,1.83,1.83,0,0,1-.4-.09h0a6.71,6.71,0,0,0,.3,2.1q.51,3.7,1,7.43l3.06,22,2.88,20.68c.33,2.42.14,6.43,1.77,8.46s5.3,2.81,7.62,3.37a91.58,91.58,0,0,0,19,2.14c9.86.26,22.62.69,31.73-3.84,3.33-1.66,3.35-3.8,3.74-7Q80.21,81,81.3,71.87l4.48-37.28a1.19,1.19,0,0,0,.27-.64l2.17-23.42A1.26,1.26,0,0,0,87.26,9.2Zm-18-4.35,2-1.46c0,3.44,0,12.07.06,18.59a.75.75,0,0,0,.75.74h0a.73.73,0,0,0,.74-.75c-.06-6.92-.06-16.21-.06-19.15l1.75.61.57,14.48-2,20.54a16.33,16.33,0,0,0-4.72,1.84Zm-11.59,0,1.17-.71L56.37,15.92a.76.76,0,0,0,.58.89l.16,0a.75.75,0,0,0,.73-.6L60.51,3.48,63,4.73,55.2,39.22l-1.05-5.39,2.52-12a.75.75,0,1,0-1.47-.31L53.41,30l-.68-3.48ZM60.8,47.33c-.51.51-1,1-1.59,1.48a15.49,15.49,0,0,1-1.89,1.35l-1-5.24a1.25,1.25,0,0,0,.28-.52l2.73-12,1.45,14.81A.83.83,0,0,0,60.8,47.33ZM41.21,13.46l1.82-2,2.43,12.73a.75.75,0,0,0,.74.61l.14,0a.74.74,0,0,0,.59-.87l-2.5-13.1,2.83.7,3,15.22h0L54.93,51a1.37,1.37,0,0,0,.15.35,16.79,16.79,0,0,1-2.75.93L49.27,36.17a.75.75,0,1,0-1.48.28l3.07,16.06a17.58,17.58,0,0,1-1.78.17Zm5.31,39.16-.45-.06.24-1ZM44.78,44l.84,4.16-1,4.19a12.78,12.78,0,0,1-2-.61Zm-14.51-24a.81.81,0,0,0,.25-.08L32.05,19,31,36.68a.76.76,0,0,0,.71.8h0a.75.75,0,0,0,.75-.7L33.6,18.26,36,19.57l-.35,27.5C34.48,46,33.27,44.91,32,43.89l.2-3.14a.76.76,0,0,0-.71-.8.74.74,0,0,0-.79.7l-.14,2.14c-.52-.38-1.06-.73-1.62-1.06ZM25.71,6l2.85.71-2,33.79c-.9-.36-1.81-.7-2.73-1ZM20.79,35.18,22,6.74l2.22-.62L22.31,39l-.77-.25-1-3A1.27,1.27,0,0,0,20.79,35.18ZM10.6,34,2.74,10.45,5,9l6.85,21a.75.75,0,0,0,.71.52.67.67,0,0,0,.24,0,.76.76,0,0,0,.48-.94L6.45,8.62l2.81.48,9.36,28.74-.84-.25c-2.05-.61-5.86-1-7.13-3.06A1.34,1.34,0,0,0,10.6,34ZM77.58,82c-.38,3.18,0,8.16-1.33,11.12-.94,2.14-4,2.68-6.14,3.23a85.52,85.52,0,0,1-18.94,2.19,129,129,0,0,1-17.9-.7C30.14,97.52,21.19,97.08,19,94c-1.39-2-1.18-5.9-1.51-8.24l-1-7.2a89.74,89.74,0,0,0,61.64-1.35C78,78.83,77.77,80.44,77.58,82ZM78.43,75a88,88,0,0,1-62.21,1.38L15,67.74a84.34,84.34,0,0,0,64.26.12C79,70.24,78.71,72.61,78.43,75ZM80,62.11l-.42,3.5a82.22,82.22,0,0,1-64.85-.13q-1.92-13.85-3.85-27.7a9.66,9.66,0,0,0,1.2.69A72.29,72.29,0,0,0,20,41a1.26,1.26,0,0,0,.56.17l1.14.36a38.71,38.71,0,0,1,7.56,3.12c2.77,1.66,4.5,3.9,6.79,6a17.1,17.1,0,0,0,9.87,4.42A20.15,20.15,0,0,0,57,53.24c4.07-2,6.59-5.6,9.84-8.6,4.33-4,9.12-3.69,14.18-5.83a16.48,16.48,0,0,0,1.88-.94Zm3.68-29.28a1.12,1.12,0,0,0-.22.52c-.28,1.56-1.64,2.57-3.28,3.26l.61-6.83a.74.74,0,0,0-.68-.81.72.72,0,0,0-.81.68l-.68,7.51c-1,.31-2.08.53-3,.71L78,14.16l3-2.86L79.65,25.38a.76.76,0,0,0,.68.82h.07a.76.76,0,0,0,.75-.68l1.33-14.87,3.15.74Zm-35.34-1.7L48,29.59a.75.75,0,1,0-1.47.28l.29,1.54a.75.75,0,0,0,.74.61h.14A.76.76,0,0,0,48.31,31.13Zm23.85-3.22a.76.76,0,0,0-.73.77c0,.52,0,.93.06,1.21a.75.75,0,0,0,.75.7h.05a.75.75,0,0,0,.7-.8c0-.27,0-.66-.06-1.16A.76.76,0,0,0,72.16,27.91ZM75,55.36l-.21,0c-1,.17-.55,1.62.4,1.45l.21,0C76.33,56.64,75.93,55.19,75,55.36Zm-2.67,31-.27,0a.76.76,0,0,0-.52.93.77.77,0,0,0,.92.52l.27,0a.76.76,0,0,0,.52-.93A.77.77,0,0,0,72.31,86.36Zm-59-51.8a.74.74,0,0,0,.71.52.91.91,0,0,0,.23,0,.75.75,0,0,0,.48-.95l-.39-1.19a.75.75,0,0,0-1.42.46ZM72,85.55h.75a.75.75,0,0,0,0-1.5H72A.75.75,0,0,0,72,85.55Zm.48,4h-.22a.75.75,0,0,0,0,1.5h.22A.75.75,0,0,0,72.46,89.6ZM75,59.13a.75.75,0,0,0-.61,1.35,1,1,0,0,0,.6.15.78.78,0,0,0,.75-.75A.75.75,0,0,0,75,59.13Z"/></g></g></svg>