<svg xmlns="http://www.w3.org/2000/svg" viewBox="0 0 101.13 117.05"><defs><style>.cls-1{fill:#966656;}.cls-2{fill:#4fbf37;}.cls-3{fill:#fffeca;}.cls-4{fill:#e5ab3e;}.cls-5{fill:#ff6700;}.cls-6{fill:#c8da53;}.cls-7{fill:#fd3200;}.cls-8{fill:#e0aa5c;}.cls-9{fill:#442a11;}</style></defs><g id="Laag_2" data-name="Laag 2"><g id="objects"><path class="cls-1" d="M98.39,61.68c-.37-1.77-1.82-4.83-4-4.83L94,56.19q-.41.29-.84.54l-.35-.08a6.25,6.25,0,0,1-2.53,3.67A11.32,11.32,0,0,1,85.6,62.1l-.33-.29-.07.08c-2.22,2.22-5.4,3.19-8.51,3.62A32.75,32.75,0,0,1,60,63.43l0,.1a19.2,19.2,0,0,1-21.4-.6l-.06-.53q-2.51.27-5,.3v.23a36.5,36.5,0,0,1-16.48,4,12.7,12.7,0,0,1-4.47-.61,5.61,5.61,0,0,1-3.31-2.91,4.83,4.83,0,0,1,.11-3.8l-.2-.09C3.92,58,2.58,66.48,5.21,69.33a7.62,7.62,0,0,0,1.63,1.31,16.19,16.19,0,0,0,3.31,1.42c9.26,3,19.19,3.14,28.93,3.22,16.22.13,32.59.24,48.43-3.24a21.24,21.24,0,0,0,7.17-2.63,9.27,9.27,0,0,0,1.63-1.31A7.37,7.37,0,0,0,98.39,61.68Z"/><path class="cls-2" d="M51.38,53.09a10.4,10.4,0,0,1,1.51,1.6c.29.35.58.71.89,1a4.14,4.14,0,0,0,3.1,1.53,3.7,3.7,0,0,0,1.5-.5c.47-.27.91-.6,1.36-.9a3.44,3.44,0,0,1,3-.74c1.57.59,2.14,3.08,3.81,3,.94,0,1.6-.91,2-1.73s.93-1.75,1.81-2.06c1.51-.51,3,1.12,4.57,1,1.82-.15,2.65-2.38,4.25-3.25s3.75-.11,5.55.58a11.29,11.29,0,0,0,1.46.46,4.1,4.1,0,0,0,4-.64,3,3,0,0,0,.42-.52,4.12,4.12,0,0,0,.42-.84c.54-1.39.65-3.07,1.82-4s3-.56,4.32-1.36c1.55-1,1.71-3.35.6-4.79a5.4,5.4,0,0,0-4.91-1.74l-.1,0C87,51.64,58,51.34,48.66,51L47.07,51l0,.52a4.87,4.87,0,0,1,1.13.16A10.13,10.13,0,0,1,51.38,53.09Zm48.4,19.77c-.78-1.91-2.93-3.63-5-3.23l-.15-.22A21.24,21.24,0,0,1,87.51,72c-15.84,3.48-32.21,3.37-48.43,3.24-9.74-.08-19.67-.18-28.93-3.22a16.19,16.19,0,0,1-3.31-1.42l-.09.13c-2.87-.32-7.29,2-5.21,5.06,1,1.47,2.68,1.1,4.21,1.66s2,1.64,2.5,3.09a5.27,5.27,0,0,0,.85,1.59c1.37,1.68,3.53,1.4,6.16.61,1.67-.5,3.45-1.19,5.16-.39,1.25.59,1.84,1.9,3,2.54,1.62.86,2.57-.07,4.16-.39,1.95-.4,2.41.39,3.43,1.77,2.52,3.43,3.26-.06,5.61-1.06,1.82-.78,3.12.7,4.61,1.36a4,4,0,0,0,4.59-.93c2.82-2.49,5.47-5.44,9.38-3.05,1.47.9,3,2.08,4.7,1.94,2.67-.2,4.32-3.46,7-3.72,3-.29,5.48,3.26,8.35,2.48C77,82.86,78,81,79.44,79.9c1.92-1.37,4.54-1.18,6.82-.57s4.5,1.58,6.86,1.6a7.41,7.41,0,0,0,1.15-.08,7.09,7.09,0,0,0,4.38-2.23A5.67,5.67,0,0,0,99.78,72.86Z"/><path class="cls-3" d="M94.27,80.85a7.41,7.41,0,0,1-1.15.08c-2.36,0-4.59-1-6.86-1.6s-4.9-.8-6.82.57C78,81,77,82.86,75.28,83.33c-2.87.78-5.39-2.77-8.35-2.48-2.67.26-4.32,3.52-7,3.72-1.72.14-3.23-1-4.7-1.94-3.91-2.39-6.56.56-9.38,3.05a4,4,0,0,1-4.59.93c-1.49-.66-2.79-2.14-4.61-1.36-2.35,1-3.09,4.49-5.61,1.06-1-1.38-1.48-2.17-3.43-1.77-1.59.32-2.54,1.25-4.16.39-1.2-.64-1.79-2-3-2.54-1.71-.8-3.49-.11-5.16.39-2.63.79-4.79,1.07-6.16-.61l-.77.51a5.76,5.76,0,0,0-.83,1.23l1,.06a7.17,7.17,0,0,0,3.78,3.78,19.84,19.84,0,0,0,5.27,1.41,182.34,182.34,0,0,0,56,.71C81,88.78,88.84,87,94.09,81.57l.26-.15Z"/><path class="cls-4" d="M14.94,45.45c7,3.4,15.31,4.59,23.4,5.12,3,.2,5.91.31,8.73.41l1.59.05c9.34.31,38.3.61,44.13-11.79a11.21,11.21,0,0,0,1-5.39c-.43-9-8.93-18-15.81-23.11A48.7,48.7,0,0,0,54.92,1.6c-17-2.06-34.67,5.22-43.17,20.57C8.3,28.39,6.05,35,8.91,40.17A13.08,13.08,0,0,0,14.94,45.45ZM96.33,89.54c-.13-2-.26-6.35-2-8.12l-.26.15C88.84,87,81,88.78,73.56,89.87a182.34,182.34,0,0,1-56-.71,19.84,19.84,0,0,1-5.27-1.41A7.17,7.17,0,0,1,8.5,84l-1-.06C6,86.86,6,91.72,6.33,94.51c.5,4.46.81,8.59,3.67,12.32,5,6.54,13.92,7.18,21.52,7.91,15.78,1.53,32.15,1.6,47.79-1.24,3.17-.58,6.41-1.3,9.13-3a17,17,0,0,0,6.6-8.87A31.2,31.2,0,0,0,96.33,89.54Z"/><path class="cls-5" d="M86.18,53.36l.06-.22a11.29,11.29,0,0,1-1.46-.46c-1.8-.69-3.86-1.49-5.55-.58S76.8,55.2,75,55.35c-1.58.13-3.06-1.5-4.57-1-.88.31-1.36,1.24-1.81,2.06s-1.11,1.69-2,1.73c-1.67.05-2.24-2.44-3.81-3a3.44,3.44,0,0,0-3,.74c-.45.3-.89.63-1.36.9a3.7,3.7,0,0,1-1.5.5,4.14,4.14,0,0,1-3.1-1.53c-.31-.33-.6-.69-.89-1a10.4,10.4,0,0,0-1.51-1.6,10.13,10.13,0,0,0-3.2-1.43,4.87,4.87,0,0,0-1.13-.16l0-.52c-2.82-.1-5.76-.21-8.73-.41l-.05.74A5.73,5.73,0,0,0,34.74,53a17.58,17.58,0,0,1-3.27,2.65,3.47,3.47,0,0,1-3.94-.23c-.88-.85-1.09-2.34-2.18-2.89s-2.25.06-3.21.69a6.23,6.23,0,0,1-2.32,1.15,1.58,1.58,0,0,1-.38,0l0,.53a3.78,3.78,0,0,0-.41,3,4.64,4.64,0,0,0,.42,1,6.27,6.27,0,0,0,3.24,2.64,10.76,10.76,0,0,0,1.56.47,22.79,22.79,0,0,0,2.61.38,54.67,54.67,0,0,0,6.52.25q2.53,0,5-.3c.45,0,.89-.09,1.33-.15a25.71,25.71,0,0,0,6.26-1.47l.12.31a7.93,7.93,0,0,0,9.31.26l.16-.2a14.33,14.33,0,0,0,2.54,1.49c.58.28,1.18.54,1.78.79a32.75,32.75,0,0,0,16.73,2.08c3.11-.43,6.29-1.4,8.51-3.62l.07-.08A7,7,0,0,0,86.18,53.36Z"/><path class="cls-6" d="M14.94,45.45a13.08,13.08,0,0,1-6-5.28l-.36.21c-2.72-.6-6.05,2.91-6.32,5.69h0a2,2,0,0,1,1.92-1.84A3.27,3.27,0,0,1,6.85,46c.59,1,.9,2.06,1.41,3.06a3.82,3.82,0,0,0,2.44,2.15,4.47,4.47,0,0,0,1.81-.12,4.66,4.66,0,0,1,2.36-.15c1.73.54,2.34,3,4.11,3.38l.11,0,.35,0a1.58,1.58,0,0,0,.38,0,6.23,6.23,0,0,0,2.32-1.15c1-.63,2.18-1.22,3.21-.69s1.3,2,2.18,2.89a3.47,3.47,0,0,0,3.94.23A17.58,17.58,0,0,0,34.74,53a5.73,5.73,0,0,1,3.55-1.65l.05-.74C30.25,50,21.91,48.85,14.94,45.45Z"/><path class="cls-7" d="M24.29,62.07l0,.07a16.17,16.17,0,0,1-9.06,1.15c-1-.16-2.13-.6-2.27-1.58s.6-1.55,1.31-2A10.75,10.75,0,0,1,18.75,58l.32,0a3.78,3.78,0,0,1,.41-3l0-.53-.35,0-.11,0c-1.77-.37-2.38-2.84-4.11-3.38a4.66,4.66,0,0,0-2.36.15v0a16.65,16.65,0,0,1-7.15,1.82c-.91,0-2,0-2.5.76a2.77,2.77,0,0,0,0,2.51,51.88,51.88,0,0,0,12.69-1,10.28,10.28,0,0,0-4.3,1.88,6.61,6.61,0,0,0-2,2.59,4.83,4.83,0,0,0-.11,3.8,5.61,5.61,0,0,0,3.31,2.91,12.7,12.7,0,0,0,4.47.61,36.5,36.5,0,0,0,16.48-4V62.7a54.67,54.67,0,0,1-6.52-.25A22.79,22.79,0,0,1,24.29,62.07Zm-7.2-7.17-1.5.27C16.09,55.05,16.59,55,17.09,54.9Zm41.09,7.74a14.33,14.33,0,0,1-2.54-1.49l-.16.2a7.93,7.93,0,0,1-9.31-.26l-.12-.31a25.71,25.71,0,0,1-6.26,1.47c-.44.06-.88.11-1.33.15l.06.53a19.2,19.2,0,0,0,21.4.6l0-.1C59.36,63.18,58.76,62.92,58.18,62.64Z"/><path class="cls-8" d="M15.59,55.17l1.5-.27C16.59,55,16.09,55.05,15.59,55.17ZM98.1,49.63a2.17,2.17,0,0,0-1.85,0l-5.18,1.53h0a4.12,4.12,0,0,1-.42.84,3,3,0,0,1-.42.52,4.1,4.1,0,0,1-4,.64l-.06.22a7,7,0,0,1-.91,8.45l.33.29a11.32,11.32,0,0,0,4.65-1.78,6.25,6.25,0,0,0,2.53-3.67l.35.08q.44-.25.84-.54a15.43,15.43,0,0,0,3.92-3.81A3.58,3.58,0,0,0,98.56,51,1.42,1.42,0,0,0,98.1,49.63ZM19.49,59a4.64,4.64,0,0,1-.42-1l-.32,0a10.75,10.75,0,0,0-4.5,1.71c-.71.47-1.42,1.18-1.31,2s1.3,1.42,2.27,1.58a16.17,16.17,0,0,0,9.06-1.15l0-.07a10.76,10.76,0,0,1-1.56-.47A6.27,6.27,0,0,1,19.49,59Z"/><path class="cls-9" d="M52.8,9.85c1.3.2,3-.87,2.37-2.36A.77.77,0,0,0,54.25,7a.75.75,0,0,0-.52.92c.3.77-1.64.56-.95,0s-.34-1.7-1.06-1.06a1.69,1.69,0,0,0-.5,1.9A2,2,0,0,0,52.8,9.85ZM46.36,25.64l.65,0c1,.06,1-1.44,0-1.5l-.65,0C45.39,24.07,45.4,25.57,46.36,25.64ZM59.2,18.29c1.3.2,3-.87,2.37-2.35a.76.76,0,0,0-.92-.53.75.75,0,0,0-.52.92c.3.77-1.64.57-1,0s-.34-1.69-1.06-1.06a1.73,1.73,0,0,0-.5,1.91A2,2,0,0,0,59.2,18.29ZM39.15,55.13l.48.19a1,1,0,0,0,.37.08,1,1,0,0,0,.38-1.93l-.49-.19a1,1,0,1,0-.74,1.85ZM47.24,14l.64.09a.79.79,0,0,0,.93-.52.76.76,0,0,0-.53-.93l-.64-.09a.77.77,0,0,0-.92.52A.76.76,0,0,0,47.24,14Zm-8.56-.11c1.3.21,3-.87,2.38-2.35a.77.77,0,0,0-.93-.52.76.76,0,0,0-.52.92c.3.77-1.63.56-1,0s-.33-1.7-1.06-1.06a1.69,1.69,0,0,0-.49,1.9A1.92,1.92,0,0,0,38.68,13.92ZM64.86,11c.68.69,1.74-.37,1.07-1.06l-.4-.41c-.68-.69-1.74.37-1.06,1.06Zm-14,9.44.56-.33a.75.75,0,0,0-.76-1.29l-.56.33A.75.75,0,0,0,50.81,20.48ZM83,35.93c.53.81,1.83.06,1.3-.75l-.38-.58c-.53-.8-1.83-.05-1.3.76C82.71,35.55,82.84,35.74,83,35.93Zm-48,20a1,1,0,0,0,.95.68.91.91,0,0,0,.32-.06,1,1,0,0,0,.63-1.26l-.1-.29a1,1,0,1,0-1.89.64ZM86.09,33.63h.09a.75.75,0,0,0,0-1.5h-.09A.75.75,0,0,0,86.09,33.63ZM78.92,57.41h.66a1,1,0,1,0,0-2h-.66a1,1,0,1,0,0,2Zm-2.67,2.2a1.63,1.63,0,0,0,.31,0,1,1,0,0,0,.75-1.2,1.21,1.21,0,1,0-2.42.19A1.41,1.41,0,0,0,76.25,59.61ZM65.48,18.28a.75.75,0,0,0,.76,1.3l.56-.33A.75.75,0,0,0,66,18Zm6.21,40.13v-.28a1,1,0,1,0-2,0v.28a1,1,0,0,0,2,0ZM59.86,22.7c-.68-.69-1.74.37-1.06,1.06l.39.41c.68.69,1.74-.37,1.06-1.06ZM73.2,21.29c1.3.2,3-.87,2.38-2.35a.75.75,0,1,0-1.45.4c.31.76-1.63.56-.94-.05s-.34-1.69-1.06-1.06a1.7,1.7,0,0,0-.5,1.91A1.93,1.93,0,0,0,73.2,21.29ZM80.45,38a.75.75,0,0,0,1.3-.76l-.39-.67a.75.75,0,0,0-1.29.76ZM38.91,17.68l-.56.33a.75.75,0,0,0,.75,1.29l.56-.33A.75.75,0,0,0,38.91,17.68ZM21.31,77.91a8.2,8.2,0,0,0-5.1-.62c-.31.06-.63.15-1,.23a3.53,3.53,0,0,1-2.45.14,3.36,3.36,0,0,1-.94-1.12l-.25-.38a3.27,3.27,0,0,0-2.69-1.75h0a1,1,0,0,0,0,2c.29,0,.67.32,1,.87l.22.34a5,5,0,0,0,1.62,1.77,3.41,3.41,0,0,0,1.75.45,9.05,9.05,0,0,0,2.22-.38c.29-.08.57-.16.85-.21a6.14,6.14,0,0,1,3.85.47,1,1,0,0,0,.84-1.81ZM77,103.34c0,.21,0,.41,0,.62a.75.75,0,0,0,1.5,0c0-.21,0-.41,0-.62C78.43,102.38,76.93,102.38,77,103.34Zm3.87-5c0,.21,0,.41,0,.62,0,1,1.53,1,1.5,0,0-.21,0-.41,0-.62C82.3,97.34,80.8,97.33,80.83,98.3Zm-5.45-1c.28.77-1.4.53-.79,0s-.36-1.73-1.06-1.07a1.78,1.78,0,0,0,.93,3c1.35.27,2.9-.87,2.37-2.34C76.5,96,75.05,96.42,75.38,97.33Zm-7-1.23c-.69-.67-1.75.39-1.06,1.06l.45.43c.69.67,1.75-.39,1.06-1.06ZM64.6,99.82c.28.78-1.4.54-.79,0s-.36-1.72-1.06-1.06a1.78,1.78,0,0,0,.93,3c1.35.27,2.9-.87,2.37-2.34C65.72,98.53,64.27,98.91,64.6,99.82Zm5.57,2.59-.25.56c-.41.87.88,1.63,1.29.75l.26-.56C71.87,102.29,70.58,101.53,70.17,102.41ZM37,25.35c1.3.2,3-.87,2.38-2.35a.78.78,0,0,0-.92-.53.77.77,0,0,0-.53.93c.31.77-1.63.56-.94,0s-.34-1.69-1.06-1.06a1.7,1.7,0,0,0-.5,1.91A1.93,1.93,0,0,0,37,25.35Zm11.31,53a2.68,2.68,0,0,0-.65-.09,1,1,0,0,0-.07,2l.2,0a.75.75,0,0,0,.26,0,1,1,0,0,0,.26-2Zm47.83-6.16H96a1,1,0,0,0-1,1,1,1,0,0,0,1,1,1,1,0,0,0,0-2ZM44.78,79.47l-.6.53A6.23,6.23,0,0,1,43,81a1.2,1.2,0,0,1-1.31,0,1,1,0,1,0-1.48,1.34,2.62,2.62,0,0,0,2,.84,3.82,3.82,0,0,0,1.73-.43,8.09,8.09,0,0,0,1.64-1.26l.53-.47a1,1,0,1,0-1.28-1.53ZM94.4,74.15l-.5-.09a1,1,0,0,0-.33,2l.57.09.17,0a1,1,0,0,0,1-.84A1,1,0,0,0,94.4,74.15Zm6.3-1.66A6.69,6.69,0,0,0,97,68.85a.1.1,0,0,0,.05,0,8.34,8.34,0,0,0,2.36-7.33,8.5,8.5,0,0,0-3-5,3.32,3.32,0,0,0-.62-.32,16.57,16.57,0,0,0,3-3.16,4.34,4.34,0,0,0,.84-1.77,2.36,2.36,0,0,0-.86-2.36A3.06,3.06,0,0,0,96,48.65l-3.39,1A3.2,3.2,0,0,1,93.48,48a4.2,4.2,0,0,1,1.81-.55,6.21,6.21,0,0,0,2.43-.75,3.8,3.8,0,0,0,1.72-2.61,4.62,4.62,0,0,0-.85-3.64,5.92,5.92,0,0,0-4.11-2.13,12.6,12.6,0,0,0,.57-4.5c-.55-11.46-12.62-21.3-16.31-24A49.77,49.77,0,0,0,55.07.36C36.46-1.88,19,6.43,10.65,21.56,6.73,28.64,5.51,34.24,6.92,38.7c.07.23.17.46.26.68a6.17,6.17,0,0,0-2.59,1.17,8.3,8.3,0,0,0-3.37,5.51.68.68,0,0,0,0,.14A3.53,3.53,0,0,0,1.55,48a4.59,4.59,0,0,0,3,2.36A8.11,8.11,0,0,0,8,50.47H8a5.09,5.09,0,0,0,1,1,16.29,16.29,0,0,1-3.62.51c-1,0-2.41.06-3.23,1.16s-.41,2.68-.18,3.41a1,1,0,0,0,.89.7c.8,0,1.59.08,2.39.08A44.63,44.63,0,0,0,9.81,57a7.58,7.58,0,0,0-1.06,1.43A4.31,4.31,0,0,0,4.1,60.57c-1.73,2.74-1.56,7.3.35,9.4A6.29,6.29,0,0,0,.5,72.52,3.45,3.45,0,0,0,.71,76.4a4.44,4.44,0,0,0,3.34,1.73,8,8,0,0,1,1.36.3c1.17.44,1.38,1,1.84,2.32l.06.17a5.78,5.78,0,0,0,.32.76,1,1,0,0,0-.24.17C4.22,85.39,4.91,93.14,5.08,94.66l.09.78c.48,4.3.93,8.37,3.84,12.15,5.18,6.75,13.91,7.59,21.62,8.33l.77.07c7.31.71,14.24,1.06,20.84,1.06a151.84,151.84,0,0,0,27.29-2.32c3.08-.56,6.61-1.32,9.58-3.22A18.15,18.15,0,0,0,96.22,102a32.12,32.12,0,0,0,1.36-12.52l0-.49c-.13-2.07-.34-5.35-1.61-7.48a8,8,0,0,0,3.46-2.2A6.67,6.67,0,0,0,100.7,72.49ZM96.53,50.57c.71-.21.92-.17,1-.12a.47.47,0,0,1,.06.39,2.61,2.61,0,0,1-.5,1,14.65,14.65,0,0,1-3.25,3.28,5.2,5.2,0,0,0-1.62-3.23ZM97,41.65a2.65,2.65,0,0,1,.46,2.05A1.86,1.86,0,0,1,96.68,45a4.85,4.85,0,0,1-1.71.48,5.83,5.83,0,0,0-2.7.93,5.77,5.77,0,0,0-1.78,3.26,4.81,4.81,0,0,1-1,2.15c-1,1-2.94.52-4.45-.06-1.89-.73-4.24-1.63-6.32-.51a7.79,7.79,0,0,0-2,1.74c-.64.72-1.2,1.34-1.87,1.4a4.08,4.08,0,0,1-1.63-.47,4.28,4.28,0,0,0-3.18-.47,4.57,4.57,0,0,0-2.31,2.4l-.06.12c-.43.78-.85,1.2-1.2,1.21s-.76-.41-1.31-1.12a5.17,5.17,0,0,0-2.11-1.85,4.3,4.3,0,0,0-3.92.85l-.37.25a4.53,4.53,0,0,1-2,1A3.34,3.34,0,0,1,54.51,55c-.28-.3-.55-.62-.81-.94a11.7,11.7,0,0,0-1.65-1.74h2.13c12.5,0,29.79-1.48,37.19-9a13.31,13.31,0,0,0,2.31-3.13A4.14,4.14,0,0,1,97,41.65Zm-9.27,12.7a4.24,4.24,0,0,0,3.07-1.05,3.34,3.34,0,0,1,1,2.79,5.14,5.14,0,0,1-2.19,3.42,8.34,8.34,0,0,1-2.36,1.13A8.06,8.06,0,0,0,87.74,54.35Zm-69.8,2.77a11.73,11.73,0,0,0-4.25,1.74,3.19,3.19,0,0,0-1.74,3c.18,1.26,1.31,2.14,3.1,2.43a16.33,16.33,0,0,0,2.71.22,17.27,17.27,0,0,0,6.73-1.37c.78.15,1.56.25,2.31.32s1.72.14,2.58.19A35.6,35.6,0,0,1,16.93,66a11.91,11.91,0,0,1-4.12-.54,4.59,4.59,0,0,1-2.73-2.37c-.78-1.86.33-4.07,1.78-5.21a9.41,9.41,0,0,1,3.8-1.68l1.58-.28.81-.1A4.92,4.92,0,0,0,17.94,57.12Zm.49,1.94c.06.13.11.26.18.39a7.07,7.07,0,0,0,2.77,2.61,15.4,15.4,0,0,1-6,.25c-.8-.13-1.39-.44-1.44-.74s.31-.67.87-1A10.09,10.09,0,0,1,18.43,59.06ZM27,61.46a14.47,14.47,0,0,1-3.9-.79,5.27,5.27,0,0,1-2.74-2.2A3.25,3.25,0,0,1,20,56.52a9.61,9.61,0,0,0,4.11,2.4,18.58,18.58,0,0,0,5.36.73,48,48,0,0,0,7.75-.84c2-.33,4.06-.67,6.08-1.19a9.72,9.72,0,0,0,3.56-1.53,4.77,4.77,0,0,0,1.91-3.21,7.82,7.82,0,0,1,2,1,7,7,0,0,1,.86.86,10,10,0,0,1-4.8,4.63,23,23,0,0,1-7.14,1.9A56.53,56.53,0,0,1,27,61.46Zm-5.8-6.55A12.75,12.75,0,0,0,22.69,54c.69-.46,1.63-.93,2.2-.64a2.69,2.69,0,0,1,.88,1.17,6,6,0,0,0,1.07,1.56,3.74,3.74,0,0,0,2.64,1,5.32,5.32,0,0,0,2.45-.61,12.07,12.07,0,0,0,2.66-2l.8-.73a4.49,4.49,0,0,1,3-1.4,1,1,0,0,0,.86-.43c2.1.12,4.18.21,6.22.28a1,1,0,0,0,1.24.38,2.69,2.69,0,0,1-1.14,2,8,8,0,0,1-2.85,1.19c-1.93.49-4,.83-5.9,1.15-3.88.63-8.27,1.36-12.2.16A7.27,7.27,0,0,1,21.2,54.91Zm31,2.67a6.52,6.52,0,0,0,1.6,3.24c.07.08.16.14.23.22A6.84,6.84,0,0,1,48,61,12.78,12.78,0,0,0,52.19,57.58ZM45.7,62a9,9,0,0,0,5,1.75H51a9,9,0,0,0,4.67-1.34,17.34,17.34,0,0,0,2.07,1.15l.06,0a18,18,0,0,1-17.07-.43A26.88,26.88,0,0,0,45.7,62Zm9.58-2.5a4.51,4.51,0,0,1-1.08-2.07,4.17,4.17,0,0,0,2.75.84,1.3,1.3,0,0,0,.21,0s0,0,.05,0a23.59,23.59,0,0,0,24.5,1.88,11.41,11.41,0,0,0,4.47-3.84,6,6,0,0,1-1.69,4.89c-1.74,1.74-4.34,2.83-7.94,3.33a31.77,31.77,0,0,1-17.94-2.78A10.57,10.57,0,0,1,55.28,59.48Zm4.09-2.16.58-.39.34-.24q1.35-.91,2.1-.63a3.66,3.66,0,0,1,1.25,1.2,3.74,3.74,0,0,0,2.85,1.89h.09c1.69-.06,2.59-1.71,2.89-2.25l.07-.11c.35-.65.72-1.31,1.19-1.48a2.73,2.73,0,0,1,1.74.41,5.38,5.38,0,0,0,2.6.63,4.92,4.92,0,0,0,3.19-2.06A6.38,6.38,0,0,1,79.7,53c1.27-.68,3,0,4.72.64l.65.22c-.54,2.24-2.86,3.78-4.29,4.53A21.58,21.58,0,0,1,59.37,57.32ZM12.84,22.77C20.72,8.54,37.17.71,54.77,2.85a47.18,47.18,0,0,1,22.48,8.9c7.14,5.31,14.91,13.92,15.3,22.17a9.79,9.79,0,0,1-3,7.71c-7.91,8-29,8.55-40.89,8.15l-.73,0C37.22,49.39,25,49,15.49,44.33c-3.32-1.61-5.34-3.7-6.19-6.38C8.11,34.18,9.27,29.22,12.84,22.77ZM5.05,48.43a2.66,2.66,0,0,1-1.7-1.3,1.63,1.63,0,0,1,.08-1.46.87.87,0,0,1,.76-.44h0A2.38,2.38,0,0,1,6,46.52a10.77,10.77,0,0,1,.75,1.6c.06.15.12.3.19.45A5.35,5.35,0,0,1,5.05,48.43ZM8.6,47.36a12.81,12.81,0,0,0-.89-1.88,4.4,4.4,0,0,0-3.08-2.22,6.64,6.64,0,0,1,1.15-1.1,3.38,3.38,0,0,1,2.39-.81,14.85,14.85,0,0,0,6.22,5.23c6.21,3,13.36,4.34,20.52,5a9.25,9.25,0,0,0-.83.64c-.29.25-.57.52-.86.78A11,11,0,0,1,31,54.73a2.57,2.57,0,0,1-2.79-.06,4.73,4.73,0,0,1-.68-1.06,4.24,4.24,0,0,0-1.74-2c-1.74-.89-3.61.35-4.29.8s-1.64,1.09-2.32,1-1-.69-1.55-1.35a5.33,5.33,0,0,0-2.47-2,5.32,5.32,0,0,0-2.7.08,4.1,4.1,0,0,1-1.58.16C10,50.06,9.37,49,9.15,48.6S8.77,47.78,8.6,47.36Zm-5,7.89a1.25,1.25,0,0,1,0-1c.24-.33,1-.35,1.72-.36A17.73,17.73,0,0,0,13,52h0a3.2,3.2,0,0,1,1.59-.11,3.88,3.88,0,0,1,1.5,1.35c.18.24.38.47.59.71-.47.06-.94.15-1.43.25A52.57,52.57,0,0,1,3.62,55.25Zm2.17,6.38A2.35,2.35,0,0,1,8,60.37a5.47,5.47,0,0,0,.25,3.47,6.57,6.57,0,0,0,3.88,3.46,13.43,13.43,0,0,0,4.65.67h.17a37.41,37.41,0,0,0,16.94-4.15A.88.88,0,0,0,34,63.7c1.22,0,2.45-.11,3.67-.22a.85.85,0,0,0,.24.26A20.34,20.34,0,0,0,49.1,67.49h.55a20.43,20.43,0,0,0,10.49-2.94,34.07,34.07,0,0,0,12.14,2.26,32.82,32.82,0,0,0,4.55-.32c3.73-.52,6.53-1.65,8.56-3.43l.21,0h.18a12.35,12.35,0,0,0,5.06-2,7.43,7.43,0,0,0,2.64-3.34,1,1,0,0,0,.66.1,1.35,1.35,0,0,1,1.1.23,6.51,6.51,0,0,1,2.17,3.77A6.37,6.37,0,0,1,95.6,67.4c-2.18,2.18-5.43,3-8.3,3.67C71.49,74.54,55,74.41,39.09,74.28c-9.56-.07-19.44-.15-28.63-3.17a10.38,10.38,0,0,1-4.52-2.46C4.62,67.22,4.54,63.61,5.79,61.63Zm88.06,39.54a15.59,15.59,0,0,1-6.09,8.23c-2.59,1.66-5.71,2.33-8.68,2.87-14,2.56-29.57,3-47.44,1.23l-.78-.07c-7.19-.69-15.35-1.47-19.87-7.36-2.48-3.23-2.88-6.79-3.34-10.91l-.08-.78a23.17,23.17,0,0,1,.51-8.53,8.93,8.93,0,0,0,3.66,3,20.86,20.86,0,0,0,5.61,1.51A188,188,0,0,0,48.11,93,176.05,176.05,0,0,0,73.74,91.1c7-1,14.8-2.76,20.34-7.79a19.63,19.63,0,0,1,1,5.82l0,.5A29.64,29.64,0,0,1,93.85,101.17ZM9.89,84c1.9.85,4.19.17,5.66-.27l.49-.15c1.42-.44,2.77-.85,3.95-.29a4.44,4.44,0,0,1,1.3,1.09A6.55,6.55,0,0,0,23,85.81a4.07,4.07,0,0,0,3.7,0,8.66,8.66,0,0,1,1.13-.34c1.23-.25,1.39,0,2.28,1.19l.14.19a3.83,3.83,0,0,0,2.6,1.88H33a3.75,3.75,0,0,0,2.48-1.41,5.22,5.22,0,0,1,1.56-1.21c.82-.35,1.46,0,2.52.65a12.23,12.23,0,0,0,1.29.71,5,5,0,0,0,5.66-1.1l.75-.66c2.8-2.53,4.66-4,7.45-2.29l.66.42A7.69,7.69,0,0,0,60,85.57a7.51,7.51,0,0,0,4.08-2.08A6.14,6.14,0,0,1,67,81.84,6.36,6.36,0,0,1,70.44,83c1.5.84,3.2,1.79,5.1,1.27A6.78,6.78,0,0,0,78.64,82,9.4,9.4,0,0,1,80,80.72c1.7-1.21,4.19-.9,6-.42.61.16,1.22.36,1.83.55a23.49,23.49,0,0,0,4.13,1c-5,4.28-12.16,5.84-18.58,6.78a180.1,180.1,0,0,1-55.62-.71,18.59,18.59,0,0,1-5-1.3A6.41,6.41,0,0,1,9.89,84Zm88-6.05a6.52,6.52,0,0,1-4.78,2,16.2,16.2,0,0,1-4.7-1c-.64-.2-1.27-.4-1.91-.57-3.21-.86-5.79-.62-7.66.72a11.2,11.2,0,0,0-1.69,1.6A5.15,5.15,0,0,1,75,82.37c-1.11.3-2.26-.34-3.6-1.08a7.93,7.93,0,0,0-4.58-1.44,7.7,7.7,0,0,0-4,2.09,6,6,0,0,1-3,1.64c-1.14.08-2.23-.62-3.41-1.37l-.69-.43c-4.2-2.57-7.19.12-9.83,2.5l-.73.65c-1.25,1.1-2.27,1.32-3.53.77a8.07,8.07,0,0,1-1.05-.59c-1.14-.69-2.55-1.56-4.36-.78A7.16,7.16,0,0,0,34.09,86c-.37.36-.85.84-1.09.84,0,0-.4-.06-1.15-1.07l-.14-.19c-1-1.33-1.8-2.47-4.28-2A9.55,9.55,0,0,0,26,84c-.95.33-1.36.46-2.09.07a5.11,5.11,0,0,1-1.19-1,6,6,0,0,0-1.9-1.53c-1.88-.89-3.75-.32-5.39.19l-.48.15c-3.61,1.08-5,.71-5.78-1.58l-.06-.17c-.5-1.42-1-2.76-3-3.52a9.55,9.55,0,0,0-1.73-.41c-1-.16-1.6-.28-2-.87a1.46,1.46,0,0,1-.16-1.73,5.15,5.15,0,0,1,4.43-1.78l.15,0A17.2,17.2,0,0,0,9.84,73c9.48,3.12,19.52,3.2,29.23,3.27q4.53,0,9.09,0c13.17,0,26.55-.45,39.57-3.31a23.83,23.83,0,0,0,6.9-2.4,1.27,1.27,0,0,0,.39,0c1.51-.3,3.23,1.14,3.83,2.62A4.67,4.67,0,0,1,97.91,78Zm-6-2.42a1,1,0,0,0-1.41.12,1,1,0,0,0,.13,1.41l.57.48a1,1,0,0,0,1.41-.13A1,1,0,0,0,92.46,76ZM56.21,97.64c-.08.19-.17.38-.26.56-.4.87.89,1.63,1.3.76.08-.19.17-.37.26-.56C57.91,97.53,56.62,96.77,56.21,97.64Zm-32.44-18a1,1,0,0,0-1.42,0,1,1,0,0,0,0,1.41c.05.07.11.13.17.2a1,1,0,0,0,.76.35A1,1,0,0,0,24,79.94Zm43.7-8.56a1.12,1.12,0,0,0,.35.06,1,1,0,0,0,.94-.65l.29-.76a1,1,0,0,0-.59-1.29,1,1,0,0,0-1.28.59l-.29.76A1,1,0,0,0,67.47,71.11Zm-15.8,1.5a1,1,0,0,0,1-1v-.39a1,1,0,0,0-2,0v.39A1,1,0,0,0,51.67,72.61Zm-37.1,27.7h-.29a.75.75,0,0,0,0,1.5h.29A.75.75,0,0,0,14.57,100.31ZM85,69.45a1,1,0,0,0,1-1v-.38a1,1,0,0,0-2,0v.38A1,1,0,0,0,85,69.45ZM89.88,67l.86.29a1.19,1.19,0,0,0,.32,0,1,1,0,0,0,.32-1.95l-.87-.29a1,1,0,0,0-.63,1.9ZM33.76,11.32l.56-.33a.75.75,0,0,0-.76-1.29L33,10A.75.75,0,0,0,33.76,11.32ZM29.08,19.2c1.31.2,3-.87,2.38-2.36a.77.77,0,0,0-.92-.52.76.76,0,0,0-.53.92c.31.77-1.63.57-.94,0s-.34-1.69-1.06-1.06a1.7,1.7,0,0,0-.5,1.91A2,2,0,0,0,29.08,19.2Zm32,50.53a1,1,0,0,0,.7.3,1,1,0,0,0,.71-1.71l-.58-.57a1,1,0,0,0-1.41,0,1,1,0,0,0,0,1.41ZM7.29,68.5a1,1,0,0,0,1.21.73A1,1,0,0,0,9.23,68L9,67.25a1,1,0,0,0-1.21-.72,1,1,0,0,0-.73,1.21Zm35.15,3.21a1,1,0,0,0,.81.42,1,1,0,0,0,.59-.19,1,1,0,0,0,.22-1.4l-.47-.66a1,1,0,0,0-1.4-.23A1,1,0,0,0,42,71ZM14.1,98.24l.28-.09c.92-.31.53-1.76-.39-1.45l-.29.1C12.79,97.1,13.18,98.55,14.1,98.24Zm.24-4.06a.77.77,0,0,0-.93-.52l-.66.09a.75.75,0,0,0,.39,1.45l.67-.1A.75.75,0,0,0,14.34,94.18Zm20-25a1,1,0,0,0,.82-.42l.67-1a1,1,0,0,0-.24-1.4,1,1,0,0,0-1.39.24l-.68,1a1,1,0,0,0,.82,1.57Zm-9.95,2.75.4.25a1,1,0,1,0,1.08-1.68l-.4-.26a1,1,0,0,0-1.08,1.69Z"/></g></g></svg>