<svg xmlns="http://www.w3.org/2000/svg" viewBox="0 0 99.35 92.24"><defs><style>.cls-1{fill:#e5ab3e;}.cls-2{fill:#bb7b13;}.cls-3{fill:#ffe706;}.cls-4{fill:#442a11;}</style></defs><g id="Laag_2" data-name="Laag 2"><g id="objects"><path class="cls-1" d="M98.18,28.19a19.56,19.56,0,0,0-3.25-9.44A14,14,0,0,0,86.87,13a11.9,11.9,0,0,0-2.51-.32c-4.56-.14-9.12,2.11-12.72,5.07-4.26,3.5-7.62,8-11.76,11.62-5.65,5-16.16,11.57-22.45,15.71C33,48,28.82,51.51,25.89,56A29.42,29.42,0,0,0,21.09,71a15.57,15.57,0,0,0,.28,3.72l-.41.07a9.21,9.21,0,0,1-6.62-2.5c-1.88-1.68-2.38-3.19-2.88-5.51a20.9,20.9,0,0,1-.14-8.51l.38-.83a9.9,9.9,0,0,1-3.64-2.54,2.65,2.65,0,0,1,2.55-4.39c3,.64,6.7.95,7.79-2.78.54-1.83.17-3.7.86-5.54A11.78,11.78,0,0,1,24,36c4.85-2.84,12.69.06,15.15-5.94s2.74-12.32,10-14.37C53,14.6,60.2,15.45,60.6,10c.34-4.79,6.59-5.62,8.54-2.59l.35-.25c.65-.18,1.31-.32,2-.44l0-.37C69.36,2.76,64.82.83,60.6,1.11,56,1.42,51.79,3.89,48.28,6.88c-5.92,5.05-10.92,10.92-17,15.91-5.82,4.82-12.23,8.72-18.18,13.32-1.9,1.47-3.24,3.78-4.83,5.59A30.36,30.36,0,0,0,2.43,69.58c1.46,4.81,4.59,8.93,8,12.62A28.06,28.06,0,0,0,19,89c8.6,3.92,19,1.46,26.7-3.2a94.74,94.74,0,0,0,11.82-8.94L71.06,65.52C75.25,62,79.75,59,83.76,55.25,90.34,49.05,99,37.58,98.18,28.19Z"/><path class="cls-2" d="M75.08,6.45a19.87,19.87,0,0,0-3.62.29c-.66.12-1.32.26-2,.44l-.35.25A4,4,0,0,1,69.69,10c-.79,8.18-6.44,11.46-14,12.66-3.59.57-6,.44-7.59,4.24s-2,7.82-5.15,10.77c-2.59,2.43-5.89,3-9.32,3.27-1.64.12-3.92-.2-5.42.52-2.27,1.1-1.59,3.36-2,5.64C25.13,53.89,18,59.91,11.7,57.46l-.38.83a20.9,20.9,0,0,0,.14,8.51c.5,2.32,1,3.83,2.88,5.51A9.21,9.21,0,0,0,21,74.81l.41-.07A15.57,15.57,0,0,1,21.09,71,29.42,29.42,0,0,1,25.89,56C28.82,51.51,33,48,37.43,45.12,43.72,41,54.23,34.39,59.88,29.41c4.14-3.64,7.5-8.12,11.76-11.62,3.6-3,8.16-5.21,12.72-5.07l0-.77C83.13,8.31,78.72,6.51,75.08,6.45Z"/><path class="cls-3" d="M69.14,7.43c-2-3-8.2-2.2-8.54,2.59C60.2,15.45,53,14.6,49.16,15.7c-7.28,2.05-7.58,8.44-10,14.37S28.84,33.17,24,36a11.78,11.78,0,0,0-4.73,6.2c-.69,1.84-.32,3.71-.86,5.54-1.09,3.73-4.77,3.42-7.79,2.78a2.65,2.65,0,0,0-2.55,4.39,9.9,9.9,0,0,0,3.64,2.54C18,59.91,25.13,53.89,26.25,47.12c.37-2.28-.31-4.54,2-5.64,1.5-.72,3.78-.4,5.42-.52,3.43-.25,6.73-.84,9.32-3.27,3.15-2.95,3.6-7,5.15-10.77s4-3.67,7.59-4.24c7.56-1.2,13.21-4.48,14-12.66A4,4,0,0,0,69.14,7.43Z"/><path class="cls-4" d="M17,65.52l-.3,1.56c-.18.94,1.26,1.35,1.44.4l.3-1.56C18.64,65,17.2,64.57,17,65.52ZM8.12,69a.75.75,0,0,0-1.45.4c.1.32.2.65.31,1,.32.9,1.77.51,1.45-.4C8.32,69.6,8.21,69.27,8.12,69Zm7.26-5.36a.75.75,0,0,0-1.5,0,8,8,0,0,0,.58,3.25c.35.89,1.81.5,1.44-.39A7,7,0,0,1,15.38,63.59ZM92.24,27c-1,.06-1,1.56,0,1.5l.55,0c1-.06,1-1.56,0-1.5ZM38.71,49.47c-4,3.08-7.89,6.62-10.14,11.25-2.5,5.14-2.65,11-2.25,16.55.07,1,1.57,1,1.5,0-.39-5.33-.31-10.88,2-15.8,2.11-4.39,5.81-7.79,9.61-10.71C40.23,50.18,39.48,48.88,38.71,49.47ZM48.81,63.2,48.12,63c-.92-.31-1.31,1.14-.4,1.44l.69.23C49.33,65,49.73,63.5,48.81,63.2ZM42.73,46.56l-1,.74c-.79.55,0,1.85.75,1.29l1.06-.73C44.28,47.32,43.53,46,42.73,46.56ZM22.08,44.37l.22.07c.92.3,1.31-1.15.4-1.45l-.22-.07C21.56,42.62,21.17,44.07,22.08,44.37Zm.92-2,.21.07c.92.31,1.31-1.14.4-1.44L23.4,41C22.48,40.65,22.09,42.09,23,42.4ZM51.35,74.11c-.41-.87-1.7-.11-1.29.76l.31.66c.41.87,1.7.11,1.3-.76Zm6.31-55.55c.68.69,1.74-.37,1.06-1.06l-.14-.14c-.69-.68-1.75.38-1.06,1.06Zm2.13-1.06c.69.67,1.75-.39,1.06-1.06l-.29-.28c-.7-.67-1.76.39-1.06,1.06A3.83,3.83,0,0,0,59.79,17.5ZM34,38.13c.43.86,1.73.1,1.29-.76.07.13,0-.15-.07-.18-.43-.86-1.73-.1-1.29.76C33.86,37.82,34,38.1,34,38.13ZM56.17,18.28v.11c-.09-1-1.59-1-1.5,0a1.28,1.28,0,0,0,.44.95C55.84,20,56.9,18.91,56.17,18.28ZM36.56,37.66c.44.86,1.73.1,1.3-.76.06.13-.06-.15-.07-.18-.44-.86-1.73-.1-1.3.76C36.42,37.34,36.55,37.63,36.56,37.66Zm32,22c.21.62-.66.81-.7.22,0-1-1.55-1-1.5,0A1.87,1.87,0,1,0,70,59.25C69.68,58.34,68.23,58.73,68.55,59.65ZM84.74,43.18l0,.73c0,1,1.53,1,1.5,0l0-.73C86.21,42.22,84.71,42.21,84.74,43.18Zm-4.93,3.1c-1-.15-1.36,1.29-.4,1.45.62.1,1.28.64.9,1.32a.66.66,0,0,1-1.24-.18c-.22-.94-1.67-.54-1.45.4a2.15,2.15,0,0,0,3.77.84A2.41,2.41,0,0,0,79.81,46.28ZM78.7,40.82l-.15-.72c-.2-.94-1.64-.54-1.45.4l.15.72C77.45,42.16,78.89,41.76,78.7,40.82ZM92,23.52a3.57,3.57,0,0,1-1,.06c-1-.07-1,1.43,0,1.5A4.56,4.56,0,0,0,92.36,25C93.3,24.75,92.9,23.3,92,23.52Zm1,6.92-.43-.12a.75.75,0,0,0-.4,1.44l.43.12A.75.75,0,0,0,93,30.44Zm4.28-10.15c-2.7-5.46-7.11-8-11.92-8.44a.83.83,0,0,0,0-.22C83.91,7.48,79,5.51,75.1,5.45a19,19,0,0,0-2.7.15C65.78-3.93,54,.27,46.72,6.59c-5.86,5.06-10.92,11-16.95,15.86-5.77,4.66-12.62,8.22-18,13.26C3.58,43.27-1.27,54.45.29,65.59c1.54,11,11.11,23.16,22.08,25.89,12.47,3.1,24-3.74,33.21-11.34C62.41,74.54,69,68.61,76,63.2c5.19-4,10.17-8,14.31-13.17C97,41.66,102.49,30.85,97.27,20.29ZM70.48,8a18.83,18.83,0,0,1,4.58-.52C78.25,7.5,82,9,83.24,11.82A21.83,21.83,0,0,0,70.76,16.9c-6.17,5-10.92,11.35-17.43,16.06-5.81,4.2-12,7.86-17.84,12-5.46,3.82-10.27,8.49-13,14.66a31.26,31.26,0,0,0-2.4,9,38.55,38.55,0,0,0,.35,5.25A8.36,8.36,0,0,1,15,71.56c-1.59-1.42-2.05-2.63-2.56-5a19.84,19.84,0,0,1-.17-7.89,9.2,9.2,0,0,0,2.4.33,10.08,10.08,0,0,0,2.93-.45,14.74,14.74,0,0,0,9.63-11.29,14,14,0,0,0,.16-1.88c.08-1.67.16-2.5,1.25-3A8.79,8.79,0,0,1,32,42c.58,0,1.15,0,1.66,0,3.46-.25,7.06-.85,9.93-3.54,2.45-2.3,3.39-5.18,4.29-8,.34-1,.68-2.12,1.11-3.14,1.16-2.83,2.73-3.05,5.59-3.46l1.22-.18C65.09,22.2,70,17.76,70.68,10.11A5.36,5.36,0,0,0,70.48,8ZM8.79,54.23a1.58,1.58,0,0,1-.27-1.91A1.73,1.73,0,0,1,10,51.46a1.87,1.87,0,0,1,.4,0c2,.44,7.47,1.6,9-3.47a12.51,12.51,0,0,0,.4-2.77,9.32,9.32,0,0,1,.44-2.71,10.93,10.93,0,0,1,4.29-5.68c1.71-1,4-1.22,6.15-1.44,3.6-.36,7.7-.77,9.42-5,.54-1.31,1-2.62,1.39-3.9,1.48-4.52,2.77-8.43,8-9.9a23.46,23.46,0,0,1,3.2-.55c3.63-.47,8.61-1.12,9-6a3.5,3.5,0,0,1,2-3,4.17,4.17,0,0,1,4,.2,2.72,2.72,0,0,1,1.08,2.66c-.64,6.71-4.83,10.45-13.16,11.77l-1.19.17c-3,.43-5.56.79-7.16,4.67-.46,1.1-.82,2.22-1.16,3.29C45.15,32.49,44.34,35,42.26,37c-2.41,2.27-5.61,2.79-8.71,3-.46,0-1,0-1.5,0a9.8,9.8,0,0,0-4.28.6c-2.21,1.07-2.3,3-2.38,4.73A12.94,12.94,0,0,1,25.26,47,12.64,12.64,0,0,1,17,56.66,7.66,7.66,0,0,1,8.79,54.23ZM94.48,39C89.7,49,81.52,55.66,73,62.35,63.19,70.05,54.23,80,43.11,85.85a31,31,0,0,1-16.6,3.79c-6.87-.54-12-4.57-16.33-9.58C1.75,70.41-.15,57,6.8,45.85,13.45,35.18,25.09,30,34.25,21.91c7.43-6.59,25-29.14,35.43-15.8l-.28.06a4.81,4.81,0,0,0-.64-.54,6.12,6.12,0,0,0-6-.37A5.48,5.48,0,0,0,59.6,9.94c-.22,3-3,3.63-7.23,4.18a24.79,24.79,0,0,0-3.48.61c-6.24,1.76-7.82,6.56-9.34,11.2-.41,1.24-.83,2.52-1.33,3.76-1.28,3.1-4.29,3.4-7.78,3.75-2.4.24-4.88.48-7,1.71a12.89,12.89,0,0,0-5.16,6.7,11.13,11.13,0,0,0-.56,3.28,10.23,10.23,0,0,1-.32,2.33c-.69,2.34-2.61,2.94-6.62,2.09a3.73,3.73,0,0,0-4,1.79,3.58,3.58,0,0,0,.54,4.25A11.18,11.18,0,0,0,10.39,58s-.05.09-.06.15a21.92,21.92,0,0,0,.15,8.9,9.74,9.74,0,0,0,3.19,6,10.26,10.26,0,0,0,6.81,2.77h.12a15.25,15.25,0,0,1-.07,4A17.19,17.19,0,0,1,10.39,73.5c-.6-.76-1.66.31-1.06,1.06A18.41,18.41,0,0,0,19.7,81.21c-.44,1,.61,2.43,1.68,1.62,2.48-1.88,2-4,1.49-6.9A26.61,26.61,0,0,1,27,56.58c5.76-8.66,16.15-13.48,24.49-19.25A88.54,88.54,0,0,0,62,29.17c4.31-4.05,7.9-9.11,13-12.26,6.35-3.93,14.21-4.07,18.87,2.46C98.11,25.36,97.48,32.66,94.48,39ZM75.82,54.13l-.64-.34c-.86-.44-1.62.85-.76,1.3l.65.34C75.92,55.87,76.68,54.58,75.82,54.13ZM92.61,33.5c-.69-.68-1.75.38-1.06,1.06l.12.12c.69.68,1.75-.38,1.06-1.06ZM72,47.24l-.73-.09a.76.76,0,0,0-.75.75.77.77,0,0,0,.75.75l.73.09a.76.76,0,0,0,.75-.75A.77.77,0,0,0,72,47.24Zm-12.15,1a.77.77,0,0,0-1-.27.75.75,0,0,0-.27,1l.43.59a.75.75,0,1,0,1.3-.76Zm-2.39,9.24c0,.24-.09.48-.13.72-.16.94,1.28,1.34,1.45.39l.12-.72C59.07,56.91,57.62,56.5,57.46,57.46Zm-4.18-.57a.75.75,0,0,0-.4-1.44c-.08,0-.06,0-.08-.12a.75.75,0,0,0-.92-.53.77.77,0,0,0-.52.92A1.52,1.52,0,0,0,53.28,56.89Zm.2,9.94a.76.76,0,0,0,0,1.06,1,1,0,0,1,.06,1.27A.41.41,0,0,1,52.8,69c-.2-.94-1.65-.55-1.44.4a1.9,1.9,0,0,0,3,1.05,2.46,2.46,0,0,0,.19-3.6A.75.75,0,0,0,53.48,66.83ZM85.7,18.29c1-.19.55-1.64-.4-1.45A20.8,20.8,0,0,0,75.84,21c-2.19,1.8-3.75,4.16-5.68,6.21-6.89,7.31-16.25,12.11-24.6,17.51-.81.53-.06,1.83.76,1.3,7.73-5,15.88-9.52,22.76-15.7,2.19-2,3.87-4.27,5.87-6.4A19.11,19.11,0,0,1,85.7,18.29ZM68.11,50.36c-.31-.91-1.76-.52-1.45.4.21.63-.66.82-.69.22-.06-1-1.56-1-1.5,0a1.87,1.87,0,1,0,3.64-.62ZM62.81,64.3,62.16,64c-.85-.45-1.61.84-.76,1.29l.65.34C62.9,66,63.66,64.74,62.81,64.3Z"/></g></g></svg>