<svg xmlns="http://www.w3.org/2000/svg" viewBox="0 0 62.35 134.64"><defs><style>.cls-1{fill:#cfe1ed;}.cls-2{fill:#abdbff;}.cls-3{fill:#ffe706;}.cls-4{fill:#fffeca;}.cls-5{fill:#ffdcec;}.cls-6{fill:#ff92c4;}.cls-7{fill:#442a11;}</style></defs><g id="Laag_2" data-name="Laag 2"><g id="objects"><path class="cls-1" d="M61.07,41a17,17,0,0,0-5.9-11.56,17,17,0,0,0-12.35-4,16.93,16.93,0,0,0-11.55,5.92l-.09.07a17,17,0,0,1,3.68,8.47l.51-.08a1.73,1.73,0,0,0,2.12.1,3.82,3.82,0,0,0,1.43-2.21c.51-1.55,1-3.49,3-3.52,4.72-.08,1.78,7,1.16,9.3-.45,1.62-1.29,3.78-.26,5.34a3.25,3.25,0,0,0,4.28.71c3.53-2,3.09-7.25,6.64-9.18a2.07,2.07,0,0,1,2.57.16,3.58,3.58,0,0,1,.48,2.88c-.18,1.7.08,5,2.61,4.64l.36.13A17.14,17.14,0,0,0,61.07,41Z"/><path class="cls-2" d="M59.77,48.17,59.41,48c-2.53.33-2.79-2.94-2.61-4.64a3.58,3.58,0,0,0-.48-2.88,2.07,2.07,0,0,0-2.57-.16c-3.55,1.93-3.11,7.2-6.64,9.18a3.25,3.25,0,0,1-4.28-.71c-1-1.56-.19-3.72.26-5.34.62-2.26,3.56-9.38-1.16-9.3-2,0-2.5,2-3,3.52a3.82,3.82,0,0,1-1.43,2.21,1.73,1.73,0,0,1-2.12-.1l-.51.08a17.08,17.08,0,0,1,0,4.79A16.56,16.56,0,0,1,30,54.42a4.68,4.68,0,0,0,.06,2l.31-.05c.34,1.57,2.62,1.19,3.73,1,1.88-.39,3.72-1.54,5.49-.14a5,5,0,0,1,1.67,4c-.11,4.4-4.52,7.81-3,12.38A3.57,3.57,0,0,0,40.6,76a3.34,3.34,0,0,0,3.31-1.4c1.22-1.67,1-4,1.33-6,.44-2.59.94-8.21,3.65-9.53a3.54,3.54,0,0,1,3.08,0,10.3,10.3,0,0,1,1.52,1,3.37,3.37,0,0,0,2.12.91,2.73,2.73,0,0,0,2.27-2.16,12.36,12.36,0,0,0,.17-3.33A22.56,22.56,0,0,1,59.77,48.17Z"/><path class="cls-3" d="M49.26,15.51l-.34.09c.47,2.37-2.87,3.56-4.45,3.41-2.21-.22-3.48-2.25-4.08-4.33-.4-1.4-1.45-4.35-3.51-3.18-1.58.89-1.88,3.64-2.61,5.14S32,19.85,30.05,19.45c-1.74-.36-2.23-2.24-2.61-3.73s-1-3.42-2.79-3.56-3.09,1.51-3.47,3.1c-.49,2,0,4.07-.35,6.08-.31,1.64-1.56,4-3.42,4v.1A16.68,16.68,0,0,1,27.3,28a16.11,16.11,0,0,1,3.88,3.45l.09-.07a16.93,16.93,0,0,1,11.55-5.92,16.68,16.68,0,0,1,5.85.56l.16-.54A18.52,18.52,0,0,0,49.26,15.51Z"/><path class="cls-4" d="M13.87,26a16.31,16.31,0,0,1,3.54-.55v-.1c1.86,0,3.11-2.33,3.42-4,.37-2-.14-4.09.35-6.08.38-1.59,1.66-3.24,3.47-3.1s2.42,2.09,2.79,3.56.87,3.37,2.61,3.73c1.95.4,3.44-1.23,4.22-2.81s1-4.25,2.61-5.14c2.06-1.17,3.11,1.78,3.51,3.18.6,2.08,1.87,4.11,4.08,4.33,1.58.15,4.92-1,4.45-3.41l.34-.09A18.47,18.47,0,1,0,13.77,25.6ZM52,59.06a3.54,3.54,0,0,0-3.08,0c-2.71,1.32-3.21,6.94-3.65,9.53-.33,2-.11,4.33-1.33,6A3.34,3.34,0,0,1,40.6,76a3.57,3.57,0,0,1-2.34-2.39c-1.54-4.57,2.87-8,3-12.38a5,5,0,0,0-1.67-4c-1.77-1.4-3.61-.25-5.49.14-1.11.24-3.39.62-3.73-1l-.31.05c.19,1,.38,2.06-.28,2.84-1.37,1.62-3.41-.35-5-.28-4.76.21.64,9.62-4.87,9.09-4.21-.42-1.57-7.66-5.94-8.71-2.87-.68-2.05,1.22-3.27,2.77L27.09,124c.74,2.78,1.08,7.61,4.37,8.86,4.17,1.58,8.29-.41,8.9-4.11.15-1,.36-1.89.54-2.84l6.72-35.14q2.91-15.24,5.83-30.48l0-.2A10.3,10.3,0,0,0,52,59.06Z"/><path class="cls-5" d="M34.86,39.9a17,17,0,0,0-3.68-8.47A16.11,16.11,0,0,0,27.3,28a16.68,16.68,0,0,0-9.89-2.57,16.31,16.31,0,0,0-3.54.55,16.71,16.71,0,0,0-9.5,6.52,17.21,17.21,0,0,0-2.79,6.59l.25,0c-.38,2-.43,4.73,2,4.93s3.67-3.36,4.71-5,3.32-4.11,5.61-3.17,1,4.42.43,6.08c-.74,2.29-1.55,5-.36,7.23a4.32,4.32,0,0,0,5.81,1.83c2.53-1.34,2.5-4.22,2.4-6.72-.08-2.21.13-5.37,2.77-6,3.21-.81,3.19,3.19,3.9,5.14a3.43,3.43,0,0,0,5.74,1.25A17.08,17.08,0,0,0,34.86,39.9Z"/><path class="cls-6" d="M30,54.42a16.56,16.56,0,0,0,4.89-9.73,3.43,3.43,0,0,1-5.74-1.25c-.71-1.95-.69-5.95-3.9-5.14-2.64.67-2.85,3.83-2.77,6,.1,2.5.13,5.38-2.4,6.72a4.32,4.32,0,0,1-5.81-1.83c-1.19-2.28-.38-4.94.36-7.23.54-1.66,1.92-5.12-.43-6.08s-4.51,1.49-5.61,3.17-2.31,5.16-4.71,5-2.41-3-2-4.93l-.25,0a16.36,16.36,0,0,0,.29,7.65c.68,2.36,2.2,4.14,3.44,6.2,1.43,2.35,1.21,4.13,1.49,6.76.19,1.68,2.07,4.76,3.88,2.52l0,0c1.22-1.55.4-3.45,3.27-2.77,4.37,1,1.73,8.29,5.94,8.71,5.51.53.11-8.88,4.87-9.09,1.56-.07,3.6,1.9,5,.28.66-.78.47-1.81.28-2.84A4.68,4.68,0,0,1,30,54.42Z"/><path class="cls-7" d="M37,79.37a.74.74,0,0,0-.89-.58.75.75,0,0,0-.57.89.74.74,0,0,1-.24.7.7.7,0,0,1-.72.14.72.72,0,0,1-.47-.57.74.74,0,0,1,.27-.69.76.76,0,0,0,.13-1.05.77.77,0,0,0-1.06-.13,2.24,2.24,0,0,0-.82,2.11A2.22,2.22,0,1,0,37,79.37Zm4.67,19.86a.75.75,0,0,0-.57.89.74.74,0,0,1-.24.7.7.7,0,0,1-.72.14.72.72,0,0,1-.47-.57.71.71,0,0,1,.27-.68A.76.76,0,1,0,39,98.52a2.23,2.23,0,0,0,.62,3.85,2.23,2.23,0,0,0,2.93-2.56A.75.75,0,0,0,41.62,99.23Zm-1.3-7.67A2.22,2.22,0,0,0,41,89.42a.76.76,0,0,0-.9-.58.75.75,0,0,0-.57.89.71.71,0,0,1-.23.7.72.72,0,0,1-.73.14.74.74,0,0,1-.47-.57.71.71,0,0,1,.27-.68.75.75,0,0,0-.92-1.19,2.22,2.22,0,1,0,2.83,3.43Zm22-50.66A18.09,18.09,0,0,0,56,28.48a18.42,18.42,0,0,0-5.77-3.31A19.71,19.71,0,0,0,14.73,9a19.6,19.6,0,0,0-2.41,16.16A18,18,0,0,0,.67,47.07,17.9,17.9,0,0,0,3.21,52c.35.52.7,1.05,1,1.6a9,9,0,0,1,1.18,4.59c0,.52.08,1.06.14,1.65.16,1.43,1.23,3.79,3.06,4.33a2.63,2.63,0,0,0,1.33,0l11.46,43.28c1.78,6.71,3.46,13.44,5.21,20.16,1,3.76,2.73,6.62,6.9,7a7.26,7.26,0,0,0,7.88-4.91c2.24-6.94,2.88-14.81,4.25-22l8.73-45.66a3.34,3.34,0,0,0,1.28.21,3.94,3.94,0,0,0,3.43-3.08,9.69,9.69,0,0,0,.22-2.91c0-.25,0-.5,0-.75a19.45,19.45,0,0,1,1.46-6.38C61.64,46.61,62.56,44,62.31,40.9ZM47.81,24.5a18.4,18.4,0,0,0-5.09-.31,18.08,18.08,0,0,0-11.5,5.39A18,18,0,0,0,28,26.93a17.61,17.61,0,0,0-7.32-2.62,7.66,7.66,0,0,0,1.15-2.79A15.26,15.26,0,0,0,22,18.45a11.47,11.47,0,0,1,.19-3c.24-1,1.07-2.47,2.43-2.34.86.07,1.41.88,1.89,2.81.38,1.49,1,4,3.38,4.46s4.36-1.39,5.31-3.34a13.7,13.7,0,0,0,.67-1.79c.37-1.17.79-2.5,1.54-2.92.35-.2.51-.14.58-.11s.85.5,1.48,2.7c.85,3,2.66,4.82,5,5a6.41,6.41,0,0,0,4.07-1.22A17.07,17.07,0,0,1,47.81,24.5Zm-31-14.16A17.18,17.18,0,0,1,31,2.5h.25A17.15,17.15,0,0,1,47.94,15.44a.87.87,0,0,0,0,.36,1.17,1.17,0,0,1-.33,1.08,4.38,4.38,0,0,1-3,1.13c-2-.19-2.85-2.34-3.22-3.61-.63-2.21-1.5-3.52-2.64-4a2.6,2.6,0,0,0-2.32.21c-1.44.81-2,2.54-2.47,4.06a12.27,12.27,0,0,1-.55,1.52c-.22.44-1.38,2.63-3.12,2.27-1.06-.22-1.44-1.43-1.84-3-.31-1.22-1-4.1-3.68-4.31C22.43,11,20.7,13,20.2,15A13.75,13.75,0,0,0,20,18.49a13,13,0,0,1-.12,2.67,4.56,4.56,0,0,1-1.85,3,18.55,18.55,0,0,0-3.24.34A17.11,17.11,0,0,1,16.83,10.34ZM2.69,40.17a.41.41,0,0,1,0-.11c0-.26.08-.53.13-.78s.1-.45.15-.68a.83.83,0,0,0,0-.15s0,0,0,0A15.59,15.59,0,0,1,26.63,29,15.53,15.53,0,0,1,33.7,40.69a15.92,15.92,0,0,1-.06,3.72,2.13,2.13,0,0,1-1.51.34,2.52,2.52,0,0,1-2.06-1.65,13.21,13.21,0,0,1-.36-1.37c-.36-1.53-.76-3.28-2.12-4.11A3.28,3.28,0,0,0,25,37.33c-2.48.63-3.66,3-3.51,7.05.09,2.67,0,4.79-1.88,5.8a3.25,3.25,0,0,1-2.49.22,3.33,3.33,0,0,1-2-1.63c-1-2-.21-4.46.43-6.46l.13-.39c.62-1.84,1.9-5.68-1.13-6.93-3.29-1.35-6.05,2.38-6.82,3.55-.24.36-.48.81-.74,1.29-.81,1.48-1.8,3.3-3.06,3.23A1.16,1.16,0,0,1,3,42.58,3.77,3.77,0,0,1,2.69,40.17Zm7.57,20.09a5.74,5.74,0,0,1-.36.84,1.11,1.11,0,0,0-.41.54.71.71,0,0,1-.15.1c-.32,0-1.18-1.17-1.3-2.2C8,59,8,58.47,7.91,58a11.36,11.36,0,0,0-1.53-5.71c-.35-.58-.72-1.13-1.08-1.69a15.48,15.48,0,0,1-2.23-4.2,14.73,14.73,0,0,1-.35-1.6,3.24,3.24,0,0,0,1.06.27c2.52.22,4-2.38,5-4.27.23-.43.44-.83.65-1.14.4-.61,2.47-3.58,4.39-2.8,1.08.45.78,2.1,0,4.44l-.14.41c-.72,2.24-1.71,5.29-.3,8a5.3,5.3,0,0,0,3.14,2.61,5.54,5.54,0,0,0,1.6.24,5.2,5.2,0,0,0,2.43-.6c3.15-1.68,3-5.27,2.93-7.64-.14-4,1.08-4.8,2-5a1.25,1.25,0,0,1,1.08.06c.64.39,1,1.75,1.21,2.85a12.32,12.32,0,0,0,.43,1.6,4.55,4.55,0,0,0,3.68,3,4.21,4.21,0,0,0,1.28,0,15.23,15.23,0,0,1-4,6.81,1.3,1.3,0,0,0-.34.56,6,6,0,0,0,.05,2.63c.16.9.24,1.47,0,1.77s-.49.3-1.76-.19a6.19,6.19,0,0,0-2.31-.53c-3.52.16-3.42,3.73-3.35,5.87,0,1.12.08,2.66-.36,3.07a1.42,1.42,0,0,1-1,.15c-1-.1-1.33-.83-1.8-3.11-.43-2.05-1-4.85-4-5.56A5.76,5.76,0,0,0,12.94,58C11.2,58,10.64,59.14,10.26,60.26Zm35,36.06q-1.86,9.77-3.73,19.52c-1,5-1.43,19.47-9.41,15.25-2.89-1.52-2.92-3.44-3.62-6.41s-1.47-5.67-2.22-8.5q-2.37-8.93-4.73-17.85L12.06,62.38a8.08,8.08,0,0,0,.57-1.32c.07-.22.17-.52.17-.55a2.17,2.17,0,0,1,.89.1c1.28.31,1.63,1.39,2.1,3.64.42,2,1,4.79,4,5.09l.55,0a3.36,3.36,0,0,0,2.38-.85c1.26-1.18,1.2-3.1,1.15-5-.09-3,.19-3.25,1-3.29a3.88,3.88,0,0,1,1.31.37c1.16.44,3.11,1.18,4.56-.53a3,3,0,0,0,.66-1.38,7.78,7.78,0,0,0,3-.14c.47-.1.94-.24,1.41-.39,1.45-.43,2.24-.63,3,0a3.73,3.73,0,0,1,1.2,3,11.79,11.79,0,0,1-1.55,4.7c-1.13,2.34-2.42,5-1.36,8.11a4.73,4.73,0,0,0,3.22,3.2,3.8,3.8,0,0,0,.89.11,4.7,4.7,0,0,0,3.72-2,9.18,9.18,0,0,0,1.38-4.92c.05-.57.1-1.11.18-1.61.05-.32.11-.67.17-1.06.35-2.34,1-6.68,2.8-7.56a2.27,2.27,0,0,1,2,0,5.31,5.31,0,0,1,.71.46Q48.7,78.47,45.29,96.32ZM56.8,55.52c0,.28,0,.55,0,.82a8.08,8.08,0,0,1-.14,2.19c-.16.6-.63,1.22-1.13,1.24h0A3.15,3.15,0,0,1,54,58.94a9.21,9.21,0,0,0-1.49-1,4.79,4.79,0,0,0-4.18,0c-3,1.45-3.7,6.25-4.18,9.42q-.07.57-.15,1c-.1.6-.16,1.22-.21,1.82a7.32,7.32,0,0,1-.9,3.65,2.11,2.11,0,0,1-2,.92,2.29,2.29,0,0,1-1.44-1.57c-.73-2.16.18-4,1.24-6.22a14,14,0,0,0,1.8-5.73,6.21,6.21,0,0,0-2.15-5c-1.87-1.48-3.78-.9-5.32-.43-.4.12-.79.25-1.2.33-1.88.39-2.23.06-2.25,0a1.22,1.22,0,0,0-.4-.65,2.53,2.53,0,0,1,0-.46,18,18,0,0,0,5.08-13.81A3.14,3.14,0,0,0,38,40.78,4.67,4.67,0,0,0,39.87,38l.09-.27c.58-1.8,1-2.56,2-2.57s1.19.33,1.28.44c.9,1.23-.23,4.79-.77,6.5-.14.43-.26.8-.34,1.1s-.11.4-.18.61c-.46,1.6-1.1,3.79.06,5.55A3.77,3.77,0,0,0,45.24,51a4.79,4.79,0,0,0,2.35-.61c2.06-1.15,3-3.23,3.74-5.07s1.42-3.3,2.9-4.1c.09-.06,1-.5,1.35-.05s.31,1.26.23,2.11c-.06.57-.29,3.49,1.22,5a2.72,2.72,0,0,0,1.16.67A20.16,20.16,0,0,0,56.8,55.52Zm2-8.48a.83.83,0,0,1-.41-.22c-.59-.57-.76-2.09-.63-3.37a4.4,4.4,0,0,0-.74-3.61,3,3,0,0,0-3.79-.36c-2.08,1.13-2.94,3.14-3.77,5.07-.73,1.7-1.42,3.3-2.88,4.12a2.27,2.27,0,0,1-2.95-.39c-.65-1-.2-2.52.19-3.87l.19-.65c.08-.28.19-.63.31-1,.8-2.49,2-6.24.47-8.29a3.44,3.44,0,0,0-2.91-1.25c-2.59,0-3.36,2.39-3.87,4L38,37.4a3.06,3.06,0,0,1-1,1.67c-.28.17-.71.24-.88.06a.67.67,0,0,0-.11-.07,18.22,18.22,0,0,0-3.16-7.54,15.68,15.68,0,0,1,27,9.58A14.79,14.79,0,0,1,58.84,47ZM31.39,97.17a.75.75,0,1,0-1.46.32.75.75,0,0,1-.24.7.72.72,0,1,1-.92-1.12A.77.77,0,0,0,28.9,96a.76.76,0,0,0-1.06-.12,2.23,2.23,0,1,0,3.55,1.28ZM28.79,85.8a.76.76,0,0,0-.89-.57.74.74,0,0,0-.58.89.72.72,0,0,1-.23.7.73.73,0,0,1-1.2-.44.71.71,0,0,1,.27-.68.75.75,0,0,0-.92-1.18,2.22,2.22,0,0,0,.61,3.84A2.2,2.2,0,0,0,28.08,88,2.24,2.24,0,0,0,28.79,85.8ZM33.35,109a.76.76,0,0,0-.58.89.71.71,0,0,1-.23.7.73.73,0,1,1-.93-1.12.75.75,0,0,0-.92-1.18,2.23,2.23,0,0,0,.62,3.85,2.15,2.15,0,0,0,.75.13,2.22,2.22,0,0,0,2.18-2.69A.75.75,0,0,0,33.35,109ZM31.07,70.08a2.41,2.41,0,0,0,.75.13A2.23,2.23,0,0,0,34,67.51a.75.75,0,0,0-1.47.32.72.72,0,0,1-.23.7.75.75,0,0,1-.72.14.72.72,0,0,1-.47-.57.71.71,0,0,1,.27-.69.75.75,0,0,0,.12-1,.74.74,0,0,0-1.05-.13,2.23,2.23,0,0,0,.62,3.85ZM25.83,74a.75.75,0,1,0-1.46.31.75.75,0,0,1-.23.7.73.73,0,0,1-1.2-.43.74.74,0,0,1,.27-.69.75.75,0,0,0,.13-1,.76.76,0,0,0-1.06-.13,2.24,2.24,0,0,0-.82,2.11,2.22,2.22,0,0,0,3.66,1.32A2.19,2.19,0,0,0,25.83,74Z"/></g></g></svg>