<svg xmlns="http://www.w3.org/2000/svg" viewBox="0 0 97.53 117.85"><defs><style>.cls-1{fill:#fffeca;}.cls-2{fill:#ff92c4;}.cls-3{fill:#c9f2f7;}.cls-4{fill:#ffe706;}.cls-5{fill:#442a11;}</style></defs><g id="Laag_2" data-name="Laag 2"><g id="objects"><path class="cls-1" d="M95.52,7.57c-3.58-1.18-19-4.76-25.38-6.21A4.25,4.25,0,0,0,65.76,3L49.88,24.7l-.06-.05C41,21.7,33.16,21.42,31.77,24l-.34-.36c-7.85-.89-13.5.14-14.57,3.17-1.82,5.11,10,14,26.45,19.83s31.21,6.42,33,1.31c1.07-3-2.62-7.35-9.21-11.6l-.58,0c.41-2.42-3.85-6.07-10.3-9.13L56,27.06,67.88,9.94a4.26,4.26,0,0,1,4.57-1.66L94.13,14S97.83,11.13,95.52,7.57Zm-29,29.08-1.32,3.72c-1.06,3-9.72,2.65-19.33-.76S29.27,31,30.34,28l1.32-3.72c-1.06,3,5.87,8.19,15.48,11.61S65.41,39.65,66.47,36.65Z"/><path class="cls-2" d="M51.72,96.13c-1.93,3.61-13.11,3.06-25.51-1.35s-21.32-11-20.65-15h0l7.28-31.32.24.06C12.31,53,22.55,60.39,36.55,65.36s26.74,5.71,28.87,1.71l.41.2L51.73,96.14ZM36,90.7c4.68-2.66,7.75-9.33,3.5-13.85h0a3.84,3.84,0,0,0-2.55-2,7.86,7.86,0,0,0-3.85-.15L33,74c-3.07-5-11.77-6.53-16.34-2.66S16.08,84.94,22,84.94l1.46.17a3.7,3.7,0,0,0,.78,1.27C26.58,90.39,31.56,93.25,36,90.7Z"/><path class="cls-3" d="M26.21,94.78c-12.32-4.38-21.32-11-20.65-15h0l-4,17.38c-1.81,5.1,6.21,12.6,17.91,16.76s22.66,3.4,24.47-1.7l7.85-16.09h0C49.79,99.74,38.61,99.19,26.21,94.78ZM40.7,54C28.3,49.59,18.51,43.45,15.25,38.5l-.14.1-2.29,9.87.24.06C12.31,53,22.55,60.39,36.55,65.36s26.74,5.71,28.87,1.71l.41.2L70.35,58C64.74,59.84,53.19,58.44,40.7,54Z"/><path class="cls-4" d="M45.82,39.61c9.61,3.41,18.27,3.76,19.33.76l1.32-3.72c-1.06,3-9.72,2.65-19.33-.76S30.6,27.27,31.66,24.28L30.34,28C29.27,31,36.2,36.19,45.82,39.61Zm-6.3,37.23a3.84,3.84,0,0,0-2.55-2,7.86,7.86,0,0,0-3.85-.15L33,74c-3.07-5-11.77-6.53-16.34-2.66S16.08,84.94,22,84.94l1.46.17a3.7,3.7,0,0,0,.78,1.27c2.37,4,7.35,6.87,11.82,4.32,4.68-2.66,7.75-9.33,3.5-13.85Zm3.79-30.17C26.88,40.83,15,32,16.86,26.84l-2.61,7.33c-.45,1.25-.07,2.73,1,4.33,3.26,5,13.05,11.09,25.45,15.5s24,5.84,29.65,4c1.77-.57,3-1.47,3.39-2.69L76.34,48C74.52,53.09,59.74,52.51,43.31,46.67Z"/><path class="cls-5" d="M30.92,83.35l.51.52a1,1,0,0,0,1.41-1.42l-.51-.51A1,1,0,0,0,30.92,83.35Zm3-1.13.51,0a1,1,0,0,0,1-1,1,1,0,0,0-1-1l-.51,0a1,1,0,0,0-1,1A1,1,0,0,0,33.91,82.22Zm1.3-2.82.34-.17c1.15-.58.14-2.3-1-1.73l-.34.17C33.05,78.25,34.06,80,35.21,79.4Zm3.56,28.77-.46-.19a.76.76,0,0,0-.92.53.78.78,0,0,0,.52.92l.46.19a.75.75,0,1,0,.4-1.45Zm1.74-3.83-.49-.12a.75.75,0,0,0-.4,1.45l.49.12A.75.75,0,0,0,40.51,104.34ZM30.43,79.49a1,1,0,0,0,1.23.69,1,1,0,0,0,.7-1.23l-.23-.62a1,1,0,0,0-1.23-.7,1,1,0,0,0-.7,1.23ZM96.57,6.89a1.28,1.28,0,0,0-.66-.51c-3.64-1.19-19-4.76-25.49-6.24a5.5,5.5,0,0,0-5.67,2.11l-15.33,21C42.33,21,34.52,20,31.54,22.42c-9-1-14.58.41-15.86,4h0l-2.61,7.33a5.75,5.75,0,0,0,.76,4.85L.3,96.82c-2,5.83,6.2,13.84,18.69,18.28a44.2,44.2,0,0,0,14.45,2.75c5.93,0,10.34-1.76,11.59-5.13L71.24,59a5.74,5.74,0,0,0,3.67-3.29l2.61-7.33h0c1.27-3.57-2.18-8.21-9.71-13.06h0c-.68-3.61-6.72-7.1-9.91-8.71l11-15.95a3,3,0,0,1,3.23-1.18l21.69,5.71A1.24,1.24,0,0,0,94.9,15C96.49,13.74,98.89,10.47,96.57,6.89Zm-65,21.53.11-.33c2.61,3.3,8.68,6.69,15.09,9A47.26,47.26,0,0,0,60,39.92l.94,0a14.75,14.75,0,0,0,3.19-.31L64,40c-.6,1.69-8,1.95-17.73-1.52a44.47,44.47,0,0,1-11.42-5.79C31.83,30.4,31.33,28.93,31.52,28.42Zm11.23,83.26s0,.09,0,.13c-1.68,4.74-13.41,4.3-22.87.94S1,102.33,2.68,97.59a.74.74,0,0,1,0-.14L5.84,84c3.34,4.37,11.57,9,20,11.95,6.42,2.28,13.36,3.76,18.67,3.76a19,19,0,0,0,4.35-.44Zm8.08-16.54a1.16,1.16,0,0,0-.14.24c-.9,2.51-10.48,3.05-24.06-1.78S6,82.31,6.85,79.8a1.34,1.34,0,0,0,.05-.35l6.23-26.8a21.82,21.82,0,0,0,5,4.8,72.08,72.08,0,0,0,18,9.09c7.36,2.61,15.33,4.33,21.33,4.33A19.27,19.27,0,0,0,63,70.18ZM65.29,65.51a1.25,1.25,0,0,0-.89.77c-1,2.84-11.93,3.41-27.43-2.1a69.42,69.42,0,0,1-17.38-8.74c-4.5-3.33-5.66-5.77-5.24-6.94a1.24,1.24,0,0,0,0-.93l1.48-6.38c4.75,5.15,14.54,10.45,24.5,14A79.61,79.61,0,0,0,62.65,60l1.59,0a28.19,28.19,0,0,0,3.85-.25Zm7.27-10.62A3.68,3.68,0,0,1,70,56.81l-.16,0a21.94,21.94,0,0,1-7.13.66c-6.12-.24-13.8-1.91-21.63-4.69-16.83-6-27-14.41-25.69-18.23l1.12-3.14c3.52,5.85,14.82,12.3,26.34,16.39,8.27,2.94,17.22,4.87,24,4.87a20.3,20.3,0,0,0,6.79-1Zm-6.23-14.1,1-2.79c5.54,3.73,8.6,7.43,7.84,9.56-1.36,3.82-14.6,3.91-31.43-2.07S16.68,31.08,18,27.26c.76-2.13,5.47-3.07,12.12-2.47l-1,2.79c-.51,1.42-.19,3.8,4.16,7.06A47.06,47.06,0,0,0,45.4,40.78a45.2,45.2,0,0,0,14.14,2.88C63,43.66,65.61,42.81,66.33,40.79Zm-1-4.56h0c-.18.51-1.48,1.33-5.23,1.18a44.5,44.5,0,0,1-12.5-2.71c-9.76-3.47-15.32-8.32-14.72-10,.46-1.3,6-2.09,15,.64l-2.3,3.15a1,1,0,0,0-.17.33c-.72,2,2.58,3.36,3.6,3.72a9.59,9.59,0,0,0,3,.6,2.16,2.16,0,0,0,2.11-1l2.37-3.43C63.12,32,65.69,35.11,65.3,36.23ZM93.8,12.6l-21-5.54a5.54,5.54,0,0,0-5.91,2.17L52.05,30.63a6.36,6.36,0,0,1-2.22-.44,7.13,7.13,0,0,1-1.77-.88L66.77,3.73a3,3,0,0,1,3.09-1.15c4.83,1.1,20.44,4.7,24.82,6A3.4,3.4,0,0,1,93.8,12.6ZM39.33,75a6.61,6.61,0,0,0-5.45-1.48s0,0,0-.06a13.23,13.23,0,0,0-7.86-5,17.74,17.74,0,0,0-.79-3.52c-.42-1.22-2.35-.7-1.93.53A16.48,16.48,0,0,1,24,68.07c-3.5-.31-7,.7-9,3.66-3.74,5.39,1.16,14.6,7.75,14.17l.06,0a4.48,4.48,0,0,0,.73,1.1c3.16,4.94,9.3,7.64,14.45,3.67,4.55-3.51,6.2-9.68,2.5-14.3A4.41,4.41,0,0,0,39.33,75Zm-17.09,8.9c-4.94-.08-8.77-7.52-5.36-11.43C20.6,68.17,28.59,70,31.78,74a22,22,0,0,0-6.57,3.82A8.59,8.59,0,0,0,22.24,83.88ZM25,85.73c-.12-.2-.24-.39-.35-.59a.73.73,0,0,0-.14-.16c-.76-1.8.42-4.2,2.09-5.73,2.71-2.23,7.49-5.32,11-3,2.65,1.72.51,5.47-1.07,7.12-2.29,2.37-6.26,4.69-9.65,3.58A4.13,4.13,0,0,1,25,85.73Zm11.2,3.68a6.75,6.75,0,0,1-8-.23c3.56.18,7.39-2,9.75-4.43A11.31,11.31,0,0,0,40.38,81,9,9,0,0,1,36.22,89.41Zm14.06-5.2L49.65,84a.75.75,0,0,0-.39,1.45l.62.18A.75.75,0,0,0,50.28,84.21Zm1.34-3L51,81.13c-1-.06-1,1.44,0,1.5l.67.05C52.59,82.75,52.58,81.25,51.62,81.18Zm1.86-5.09-.45,0c-1-.07-1,1.43,0,1.5l.45,0C54.44,77.65,54.44,76.15,53.48,76.09ZM48.42,87.81l-.61,0c-1,0-1,1.47,0,1.5l.61,0A.75.75,0,0,0,48.42,87.81Zm-1.74,4.56-.29,0a.77.77,0,0,0-.92.52.75.75,0,0,0,.52.93l.29,0a.77.77,0,0,0,.92-.52A.76.76,0,0,0,46.68,92.37ZM29.53,82.79a1,1,0,0,0-1.41,0l-.69.8a1,1,0,0,0,0,1.42,1,1,0,0,0,1.42,0c.23-.27.45-.54.68-.8A1,1,0,0,0,29.53,82.79ZM60,64.29l-.58-.09a.77.77,0,0,0-.92.53.75.75,0,0,0,.52.92l.58.08a.79.79,0,0,0,.93-.52A.76.76,0,0,0,60,64.29Zm-31.82,17,.46.23c1.15.57,2.16-1.15,1-1.73l-.46-.23C28.08,79,27.06,80.75,28.21,81.33Z"/></g></g></svg>