<svg xmlns="http://www.w3.org/2000/svg" viewBox="0 0 33.32 50"><defs><style>.cls-1{fill:#fffeca;}.cls-2{fill:#c9f2f7;}.cls-3{fill:#ff92c4;}.cls-4{fill:#ffdcec;}.cls-5{fill:#442a11;}</style></defs><g id="Laag_2" data-name="Laag 2"><g id="Layer_1" data-name="Layer 1"><path class="cls-1" d="M32.49,1.51,31.84.85a1,1,0,0,0-1.35,0l-4.7,4.34-4.9,4.51h-.67A6.11,6.11,0,0,0,21.82,11a5.07,5.07,0,0,0,2.26.82l-.62-.67,4.06-3.7,4.93-4.5A1,1,0,0,0,32.49,1.51Z"/><path class="cls-2" d="M27.56,7.45l0,0-4.06,3.7.62.67A5.07,5.07,0,0,1,21.82,11a6.11,6.11,0,0,1-1.6-1.29h.67l4.9-4.51-.25-.27a13.31,13.31,0,0,0-6.81-3.66C11.38-.23,4.43,3.61,2.73,12.1v.07c-.4,2.27,5.2,5.27,12.52,6.72s13.7.79,14.15-1.49v0A13.93,13.93,0,0,0,27.56,7.45Z"/><path class="cls-3" d="M24.8,30c-1.34.56-2.25.9-3.67.34a17.54,17.54,0,0,1-2.64-1.55,12.58,12.58,0,0,0-7-1.92c-1.12,0-2.23.25-3.35.37a9.91,9.91,0,0,1-3.35-.09A4.47,4.47,0,0,1,2.05,25.4l-.82,9.88h0c-.17,1.77,4.13,4.06,9.73,5.17s10.44.63,11-1.06h0l3-9.32Z"/><path class="cls-4" d="M11,40.45c-5.6-1.11-9.9-3.4-9.73-5.17h0L.59,43C.14,45.3,4,48,9.27,49s9.86,0,10.32-2.25l2.35-7.39h0C21.41,41.08,16.57,41.56,11,40.45Zm4.27-21.56C7.92,17.44,2.32,14.44,2.72,12.17l-.64,3.21a2.16,2.16,0,0,0,.7,1.79l-.06,0L2.05,25.4a4.47,4.47,0,0,0,2.71,1.79,9.91,9.91,0,0,0,3.35.09c1.12-.12,2.23-.33,3.35-.37a12.58,12.58,0,0,1,7,1.92,17.54,17.54,0,0,0,2.64,1.55c1.42.56,2.33.22,3.67-.34l.11,0,2.56-8a2.09,2.09,0,0,0,1.27-1.36l.65-3.27C28.94,19.68,22.61,20.35,15.24,18.89Z"/><path class="cls-5" d="M33.32,2.23a1.48,1.48,0,0,0-.43-1.11L32.24.46A1.52,1.52,0,0,0,30.12.41l-4.31,4a13.79,13.79,0,0,0-7-3.7c-8.15-1.6-15,3-16.65,11.32h0l-.65,3.29a2.45,2.45,0,0,0,.62,2l-.65,7.88a.62.62,0,0,0,0,.3L0,42.94c-.24,1.33.62,2.75,2.44,4a18.24,18.24,0,0,0,6.68,2.63,21.42,21.42,0,0,0,4.12.42,14.73,14.73,0,0,0,3.07-.3c2.16-.48,3.5-1.46,3.78-2.78l7.8-24.51a2.47,2.47,0,0,0,1.36-1.64l.65-3.28h0a14.37,14.37,0,0,0-1.71-10l4.6-4.19A1.5,1.5,0,0,0,33.32,2.23ZM19.06,46.61s0,0,0,.06c-.17.86-1.24,1.57-2.93,1.94a17.07,17.07,0,0,1-6.73-.12A17.27,17.27,0,0,1,3.11,46c-1.42-1-2.14-2-2-2.91,0,0,0-.05,0-.07l.48-5.86a9.55,9.55,0,0,0,1.94,1.35A26.92,26.92,0,0,0,10.86,41a30.37,30.37,0,0,0,5.75.61,16.81,16.81,0,0,0,1.93-.1,9,9,0,0,0,2.3-.51Zm2.4-7.55a.54.54,0,0,0-.05.11c-.08.43-.92,1-3,1.24a26.08,26.08,0,0,1-7.34-.5,25.79,25.79,0,0,1-7-2.34c-1.83-1-2.38-1.85-2.3-2.28a.43.43,0,0,0,0-.16l.7-8.42a5.48,5.48,0,0,0,2.13,1,10.44,10.44,0,0,0,3.54.1l1.11-.14c.73-.1,1.47-.2,2.2-.23A12.12,12.12,0,0,1,18.2,29.3l.75.48a10.82,10.82,0,0,0,2,1.12,4.33,4.33,0,0,0,1.6.32,4.67,4.67,0,0,0,1.53-.29Zm3-9.49a3.65,3.65,0,0,1-3.15.29,9,9,0,0,1-1.77-1l-.78-.5a13.14,13.14,0,0,0-7.34-2c-.78,0-1.56.14-2.31.24l-1.08.14a9.19,9.19,0,0,1-3.16-.09,4,4,0,0,1-2.27-1.4l.57-6.92c2.36,1.88,6.85,3.52,11.29,4.4a38.33,38.33,0,0,0,7.38.78,23.85,23.85,0,0,0,2.46-.12A12.93,12.93,0,0,0,26.59,23Zm3.72-9c-.16.81-1.7,1.47-4,1.71a33.27,33.27,0,0,1-9.5-.64C7.17,20.14,2.29,17.2,2.63,15.49l.27-1.34C4.79,16.4,10,18.42,15.14,19.44a39.32,39.32,0,0,0,7.39.78A23.45,23.45,0,0,0,25,20.1a9.88,9.88,0,0,0,3.49-.9Zm.64-3.27c-.16.81-1.69,1.46-4,1.7a33,33,0,0,1-9.5-.65c-6-1.19-12.48-4.05-12.08-6.1C4.78,4.59,11.1.28,18.63,1.77A12.59,12.59,0,0,1,25,5.13L20.56,9.2a.41.41,0,0,1-.08-.14.56.56,0,0,0-1-.46c-.52.88.78,2.08,2.06,2.84a7.52,7.52,0,0,0,1.9.82,2.71,2.71,0,0,0,.64.08A1,1,0,0,0,25,11.9a.55.55,0,0,0-.75-.77l3.13-2.86A13.24,13.24,0,0,1,28.84,17.29ZM32.08,2.5l-9,8.25a.57.57,0,0,0-.12.15,7.07,7.07,0,0,1-.81-.42,8.58,8.58,0,0,1-.74-.5l9.19-8.46a1.74,1.74,0,0,0,.78,1.13c.37.23.71-.35.34-.58a1,1,0,0,1-.49-.86.2.2,0,0,0,0-.09.4.4,0,0,1,.29.12l.64.66a.42.42,0,0,1,.12.3A.43.43,0,0,1,32.08,2.5ZM17.21,45.37l-.21,0c-.42-.11-.6.54-.18.64L17,46C17.45,46.12,17.63,45.47,17.21,45.37ZM11.42,11.88l-.51-.05a.33.33,0,0,0-.33.33.33.33,0,0,0,.33.33l.51.06a.34.34,0,0,0,.33-.33A.35.35,0,0,0,11.42,11.88Zm6.2,31.74-.22,0a.33.33,0,0,0-.33.33.33.33,0,0,0,.33.33l.22,0a.34.34,0,0,0,0-.67Zm-4.44-31.5c-.43-.06-.61.58-.18.65a66.58,66.58,0,0,1,8,1.73c2,.58,4.4,1.19,6.08,2.53.34.27.81-.2.48-.47a16.47,16.47,0,0,0-5.37-2.41A65.09,65.09,0,0,0,13.18,12.12ZM23.19,27H23c-.43,0-.43.71,0,.67h.19C23.62,27.64,23.62,27,23.19,27ZM9.41,11.69c-1.6-.11-3.57-.31-5.06.44-.39.19,0,.77.34.57C6.05,12,8,12.26,9.41,12.36,9.84,12.39,9.84,11.72,9.41,11.69Zm14,13.64h-.26a.34.34,0,0,0,0,.67h.26A.34.34,0,0,0,23.43,25.33Z"/></g></g></svg>