<svg xmlns="http://www.w3.org/2000/svg" viewBox="0 0 48.99 42.79"><defs><style>.cls-1{fill:#dc93c0;}.cls-2{fill:#ffe706;}.cls-3{fill:#442a11;}</style></defs><g id="Laag_2" data-name="Laag 2"><g id="objects"><path class="cls-1" d="M45.75,5.23c-2.07-5-13.61-5-25.78.08S-.39,18.47,1.68,23.46A29,29,0,0,0,16.17,38.53c1.14,2.74,7.8,4.75,17.8.61s14-8.55,12.16-13C46.13,26.14,50.09,15.74,45.75,5.23ZM27.45,23.39c-10.66,4.4-20.83,5-24.58,1.7H5.23C5.33,21.39,16.63,14,24,11.17c6.4-2.41,15.17-6.29,21.84-3.55l.18,0C45.28,12.58,37.81,19.11,27.45,23.39Z"/><path class="cls-2" d="M45.83,7.62C39.16,4.88,30.39,8.76,24,11.17,16.63,14,5.33,21.39,5.23,25.08H2.87c3.75,3.28,13.92,2.7,24.58-1.7C37.81,19.11,45.28,12.58,46,7.65Z"/><path class="cls-3" d="M42,28.36l-.52,0c-1-.08-1,1.42,0,1.5l.52,0C42.92,29.93,42.92,28.43,42,28.36ZM32.67,12.51V12.1a1,1,0,0,0-2,0v.41A1,1,0,0,0,32.67,12.51Zm-2.26,5.27c0-.11.06-.22.08-.33.31-1.25-1.62-1.79-1.92-.53l-.09.32C28.17,18.49,30.1,19,30.41,17.78Zm5.28-4.43h.41a1,1,0,0,0,0-2h-.41A1,1,0,0,0,35.69,13.35ZM12.42,20.94v.25a1,1,0,0,0,2,0v-.25A1,1,0,0,0,12.42,20.94Zm29.19,2.48.31,0c1,.07,1-1.43,0-1.5l-.31,0C40.64,21.85,40.65,23.35,41.61,23.42Zm-25.12-1v.24a1,1,0,0,0,2,0v-.24A1,1,0,0,0,16.49,22.43ZM41.43,27a.75.75,0,0,0,.92-.52.77.77,0,0,0-.52-.93l-.58-.24a.76.76,0,0,0-.92.53.77.77,0,0,0,.52.92ZM19.52,20c1,.94,2.79.59,3.87-.07a4.36,4.36,0,0,0,2-3.82.7.7,0,0,0-.41-.64.59.59,0,0,0-.65-.36A7.85,7.85,0,0,0,20,17C19.09,17.75,18.46,19,19.52,20ZM22,17.39a6,6,0,0,1,1.93-.69,2.7,2.7,0,0,1-.8,1.58c-.38.38-1.74,1.18-2.33.74C20,18.47,21.66,17.56,22,17.39Zm26.67,3.66A32.15,32.15,0,0,0,47,5.05C44-4.44,25.05,2,19.64,4.1a.8.8,0,0,0-.16.08l-.14,0C13.49,6.74-3,14.69.47,23.79c0,.08.07.15.1.23s0,.05,0,.07l.15.32.12.25C4.14,31.61,9,35.1,15.07,39.4c1,.71-.29,0,.84.94a9,9,0,0,0,2.31,1.48c3.66,1.59,8.18,1,11.9,0C36,40.17,47.85,35.84,47.79,28.1c0-1-.26-1.55-.18-2.45C47.73,24.15,48.4,22.56,48.63,21.05ZM3.17,23.67l-.12-.25a4.43,4.43,0,0,1-.38-2C2.89,14.22,14.8,8.89,20.37,6.48c4.18-1.64,22.69-8.07,24.35-.22-8.14-2-17.37,2-24.59,5.5C15.39,14,5.24,18.78,4.26,24.82c0,0,0,0,0,.05A3.79,3.79,0,0,1,3.17,23.67ZM44.67,8.33c-.72,2.73-3.75,5.34-5.6,6.87a46.7,46.7,0,0,1-12.2,7.05C24,23.44,12,27.39,6.05,25.69a1,1,0,0,0,.14-.34c.86-5.29,10.61-9.79,15-11.86C28,10.23,37.05,6.27,44.67,8.33Zm1.65,11.3c-.25,2.06-1.21,4.15-1.4,6.18-.08.94.44,1.69.38,2.68-.1,1.88-1.58,3.38-2.91,4.53-3.7,3.21-9,5.45-13.73,6.56-3.58.85-7.85,1.32-11-1a22.46,22.46,0,0,0-2.13-1.71A32.72,32.72,0,0,1,5.94,28.3c6.91,1.75,17.79-2,22-3.77,4.65-1.93,14.71-6.72,18.21-12.9A28.9,28.9,0,0,1,46.32,19.63Z"/></g></g></svg>