<svg xmlns="http://www.w3.org/2000/svg" viewBox="0 0 46.68 73.34"><defs><style>.cls-1{fill:#b79991;}.cls-2{fill:#fffeca;}.cls-3{fill:#cfe1ed;}.cls-4{fill:#b7e2dc;}.cls-5{fill:#d8c3bf;}.cls-6{fill:#442a11;}</style></defs><g id="Laag_2" data-name="Laag 2"><g id="objects"><path class="cls-1" d="M30.71,15.8,29,6.77c.56,2.88-5.19,6.42-12.83,7.9S1.85,15,1.29,12.14l1.75,9,.19.56a2.63,2.63,0,0,1,1.31-.06l.77.16a29.4,29.4,0,0,0,11.56.05l1.28-.25a29.43,29.43,0,0,0,10.47-4.21l.91-.59a2.77,2.77,0,0,1,1.23-.44Z"/><path class="cls-2" d="M44.69,53.62l-.19.09a3.59,3.59,0,0,1-.56,3.34,9.1,9.1,0,0,1-3,2.43A55.64,55.64,0,0,1,9.3,66.55a10.48,10.48,0,0,1-3.47-.72,4.07,4.07,0,0,1-2.36-2.51H3.41a9.78,9.78,0,0,0,7,8c4.81,1.06,10.28.65,15.09-.19C31.13,70.12,49.33,64.37,44.69,53.62ZM16.13,14.67c7.64-1.48,13.39-5,12.83-7.9S21.24.1,13.6,1.58.73,9.26,1.29,12.14,8.49,16.15,16.13,14.67ZM19,4.34a.38.38,0,0,1,.44.28.37.37,0,0,1-.3.43A.36.36,0,1,1,19,4.34ZM17.11,8.7a.36.36,0,1,1,.14.71.38.38,0,0,1-.44-.28A.37.37,0,0,1,17.11,8.7ZM14.37,4.88a.37.37,0,0,1,.44.28.38.38,0,0,1-.31.43.38.38,0,0,1-.44-.29A.37.37,0,0,1,14.37,4.88ZM11.91,8.7a.38.38,0,0,1,.44.28.37.37,0,0,1-.3.43.36.36,0,1,1-.14-.71Zm-3.4-.84a.37.37,0,1,1-.13-.72.37.37,0,1,1,.13.72Z"/><path class="cls-3" d="M44.5,53.71a2.49,2.49,0,0,0-.16-.33L44,53.15a10.41,10.41,0,0,1-3.35,1.59,3.75,3.75,0,0,1-3.51-1,7.4,7.4,0,0,1-1.32-2.52c-1.9-5.19-5.52-19.85-7-23.51a6.34,6.34,0,0,1-.67-3.11,4.57,4.57,0,0,1,2.18-3.05,14.32,14.32,0,0,1,3.63-1.5l.13,0L33.4,17.9a2.55,2.55,0,0,0-2.64-1.52,2.77,2.77,0,0,0-1.23.44l-.91.59a29.43,29.43,0,0,1-10.47,4.21l-1.28.25a29.4,29.4,0,0,1-11.56-.05l-.77-.16a2.63,2.63,0,0,0-1.31.06,2.56,2.56,0,0,0-1.87,2.39l.12,2.23h.08a14.36,14.36,0,0,1,3.93,0,4.57,4.57,0,0,1,3.16,2,6.3,6.3,0,0,1,.54,3.14c0,3.95,1.22,19.07,1.39,24.6A7.41,7.41,0,0,1,10.3,59a3.74,3.74,0,0,1-2.89,2.23A10.54,10.54,0,0,1,3.71,61l-.36,0v.22a7.6,7.6,0,0,0,.05,2.13h.06a4.07,4.07,0,0,0,2.36,2.51,10.48,10.48,0,0,0,3.47.72,55.64,55.64,0,0,0,31.61-7.07,9.1,9.1,0,0,0,3-2.43A3.59,3.59,0,0,0,44.5,53.71Z"/><path class="cls-4" d="M9.19,31.52a6.3,6.3,0,0,0-.54-3.14,4.57,4.57,0,0,0-3.16-2,14.36,14.36,0,0,0-3.93,0H1.48L3.35,61l.36,0a10.54,10.54,0,0,0,3.7.22A3.74,3.74,0,0,0,10.3,59a7.41,7.41,0,0,0,.28-2.83C10.41,50.59,9.19,35.47,9.19,31.52ZM44.47,53.13,34.07,20l-.13,0a14.32,14.32,0,0,0-3.63,1.5,4.57,4.57,0,0,0-2.18,3.05,6.34,6.34,0,0,0,.67,3.11c1.48,3.66,5.1,18.32,7,23.51a7.4,7.4,0,0,0,1.32,2.52,3.75,3.75,0,0,0,3.51,1A10.41,10.41,0,0,0,44,53.15l.36.23a2.49,2.49,0,0,1,.16.33l.19-.09A5.27,5.27,0,0,0,44.47,53.13Z"/><path class="cls-5" d="M11.91,8.7a.36.36,0,1,0,.14.71.37.37,0,0,0,.3-.43A.38.38,0,0,0,11.91,8.7ZM8.38,7.14a.37.37,0,1,0,.13.72.37.37,0,1,0-.13-.72Zm6-2.26a.37.37,0,0,0-.31.42.38.38,0,0,0,.44.29.38.38,0,0,0,.31-.43A.37.37,0,0,0,14.37,4.88ZM19,4.34a.36.36,0,1,0,.14.71.37.37,0,0,0,.3-.43A.38.38,0,0,0,19,4.34ZM17.11,8.7a.37.37,0,0,0-.3.43.38.38,0,0,0,.44.28.36.36,0,1,0-.14-.71Z"/><path class="cls-6" d="M19.28,5.79a1.1,1.1,0,0,0,.07-2.15.63.63,0,0,0-.51,0l-.07,0-.09,0A1.12,1.12,0,0,0,18,5,1.14,1.14,0,0,0,19.28,5.79Zm-1.93,4.36A1.1,1.1,0,0,0,17.42,8a.61.61,0,0,0-.5,0l-.08,0-.09,0a1.11,1.11,0,0,0-.66,1.27A1.13,1.13,0,0,0,17.35,10.15Zm29.06,44.6c-1-3.81-2.51-7.61-3.69-11.37L36.81,24.55c-.81-2.57-1.42-8-4.42-9.16a3.28,3.28,0,0,0-.51-.15l-1.69-8.7c-.38-1.93-2.54-3.86-5.79-5.16a20.07,20.07,0,0,0-11-1C5.6,1.86-.71,8.4.06,12.38l1.73,8.91C.48,22.27.11,24.11.24,26.43L2.11,61.2c-.53,18.12,26.58,12.07,36.37,6.55C43.16,65.11,47.88,60.65,46.41,54.75Zm-10-23.11c2.19,7,4.44,14,6.61,20.93a8.27,8.27,0,0,1-2.59,1.19,2.71,2.71,0,0,1-2.58-.7,6.68,6.68,0,0,1-1.11-2.18c-.94-2.56-2.31-7.5-3.64-12.27s-2.61-9.38-3.37-11.27a5.5,5.5,0,0,1-.61-2.6,3.61,3.61,0,0,1,1.73-2.34,11,11,0,0,1,2.52-1.11C34.7,24.55,35.39,28.4,36.41,31.64Zm-8-21,.94,4.85c-2,.71-4,2.33-5.53,3-6.07,2.65-11.91,2.69-18.39,2.06a7.87,7.87,0,0,0-1.27,0l-1-5a18,18,0,0,0,6.4,1,36.19,36.19,0,0,0,6.75-.68,30.72,30.72,0,0,0,9.9-3.59A13.11,13.11,0,0,0,28.44,10.66ZM13.84,2.81A17.24,17.24,0,0,1,17.1,2.5a17.44,17.44,0,0,1,6.37,1.2C26.35,4.85,27.6,6.31,27.73,7h0c.12.61-.53,1.8-2.76,3.17a28,28,0,0,1-9.07,3.26c-7.69,1.5-13.06.09-13.38-1.54h0C2.15,10,6.69,4.19,13.84,2.81ZM3.32,37.27c-.16-3-.95-6.75-.86-10a11.16,11.16,0,0,1,2.84.09,3.58,3.58,0,0,1,2.48,1.52,5.59,5.59,0,0,1,.41,2.64c0,2.16.35,7.39.71,12.93.3,4.51.6,9.17.68,11.7a6.52,6.52,0,0,1-.21,2.44A2.75,2.75,0,0,1,7.24,60.2a8.19,8.19,0,0,1-2.69-.11ZM30.21,68.59c-6.29,2-18.77,4.22-23.61-1.19a14.73,14.73,0,0,0,2.61.39c1.42.11,2.85.17,4.28.17a57,57,0,0,0,28-7.4,16.89,16.89,0,0,0,1.85-1.19C41.62,64.19,35.3,67,30.21,68.59ZM42.93,56.33a8.11,8.11,0,0,1-2.64,2.06A54.45,54.45,0,0,1,9.4,65.3a9.21,9.21,0,0,1-3.06-.61,2.84,2.84,0,0,1-1.63-1.64,9,9,0,0,1-.08-.92,12,12,0,0,0,1.71.14,6.71,6.71,0,0,0,1.26-.11,4.71,4.71,0,0,0,3.63-2.85,8.1,8.1,0,0,0,.35-3.22c-.08-2.57-.39-7.24-.68-11.77-.35-5.26-.71-10.7-.71-12.8a7.2,7.2,0,0,0-.67-3.63,5.52,5.52,0,0,0-3.83-2.5,12.49,12.49,0,0,0-3-.13s0-.09,0-.13c.45-2.24,2-2.1,4.11-1.79A33.19,33.19,0,0,0,17.85,23a33,33,0,0,0,10-3.63c2.29-1.3,3.51-1.82,4.64.14a11.78,11.78,0,0,0-2.76,1.26,5.52,5.52,0,0,0-2.62,3.75,7.22,7.22,0,0,0,.73,3.61c.72,1.78,2,6.29,3.3,11.06s2.73,9.79,3.7,12.42a8,8,0,0,0,1.52,2.86,4.55,4.55,0,0,0,3.36,1.4,5.65,5.65,0,0,0,1.08-.11,8.94,8.94,0,0,0,2.62-1.08A2.78,2.78,0,0,1,42.93,56.33ZM17.57,30.5a3.26,3.26,0,0,0-2.44,2.2,3.58,3.58,0,0,0,.1,1.77L20.5,56.29a1.25,1.25,0,0,0,1.22,1l.29,0a1.26,1.26,0,0,0,.92-1.51l-2.29-9.48a7.78,7.78,0,0,0,5.06-1.85,6.87,6.87,0,0,0,1.83-4.93,9.67,9.67,0,0,0-2.67-6.91A7.56,7.56,0,0,0,17.57,30.5ZM24,42.59c-.91.89-2.41,1.1-3.92,1.17l-2.38-9.88a2.35,2.35,0,0,1-.1-.58c0-.07.24-.27.7-.4a4.43,4.43,0,0,1,1.15-.15,5.29,5.29,0,0,1,3.68,1.56A7.17,7.17,0,0,1,25,39.43,4.63,4.63,0,0,1,24,42.59ZM8.62,8.59a1.1,1.1,0,0,0,.06-2.15.65.65,0,0,0-.5,0l-.08,0L8,6.51a1.1,1.1,0,0,0-.67,1.26A1.12,1.12,0,0,0,8.62,8.59Zm6-2.51a.85.85,0,0,0,0-1.67.38.38,0,0,0-.33,0l-.05,0-.09,0A.85.85,0,0,0,14.57,6.08ZM12.12,9.9a.85.85,0,0,0,0-1.67.44.44,0,0,0-.34,0l0,0-.09,0A.85.85,0,0,0,12.12,9.9Z"/></g></g></svg>