<svg xmlns="http://www.w3.org/2000/svg" viewBox="0 0 100.57 61.52"><defs><style>.cls-1{fill:#fffeca;}.cls-2{fill:#4fbf37;}.cls-3{fill:#f99507;}.cls-4{fill:#fdd782;}.cls-5{fill:#442a11;}</style></defs><g id="Laag_2" data-name="Laag 2"><g id="objects"><path class="cls-1" d="M82.31,43.83l.17.39A15.63,15.63,0,0,0,78,51.77,30.92,30.92,0,0,1,76.81,56a6.3,6.3,0,0,1-3.64,3.95c-3.74,1.39-7.19-1.45-7.7-5a9.24,9.24,0,0,1-.07-1.58c.08-2.62,1-5.27-.32-7.79-1.61-3.16-5.65-4.33-8.89-4.94-3.73-.71-6.8-.38-9.55,2.44A36.28,36.28,0,0,0,44,46.57C43,48,41.8,49.16,40,49.28c-3.87.25-4.4-2.72-4.8-6.13s-.68-7.22-4-8.66c-4.8-2.07-7.08.32-9.21,3.22a36.48,36.48,0,0,1-3,3.8C13.86,46.79,6.48,42.25,8,35.34a12.77,12.77,0,0,1,1-2.7c1-2,2.05-4.07,1.31-6.14-1.24-3.47-6.1-4.3-8.8-2.12l-.16,0c0-.14.07-.27.11-.41l.21-.66A5.25,5.25,0,0,1,4.42,20.1c5.23-2.5,11.39-3.05,17-4l18.14-3.24c5.65-1,11.08-1.55,16.73-2.19A34.46,34.46,0,0,0,66.85,7.69l.23.5a5.46,5.46,0,0,0,1.67,3.12c1.11,1.09,2.46,1.58,3.17,3a13,13,0,0,1,1.2,4.13c.39,2.83.26,6.12,1.93,8.58,1.3,1.91,3.08,3.48,4.27,5.46,1.35,2.24.92,4.59,1.1,7.08A5.77,5.77,0,0,0,82.31,43.83Zm-8.14,1.64a.08.08,0,0,0-.06-.09.07.07,0,0,0-.09,0,.08.08,0,0,0,.06.09A.07.07,0,0,0,74.17,45.47Zm-1.81,4.74a.07.07,0,0,0,0-.09.08.08,0,0,0-.09.06.07.07,0,0,0,0,.09A.08.08,0,0,0,72.36,50.21ZM66.32,39c6.47,3.29,11.77-1.84,5.4-6.4C64.81,27.68,58.76,35.17,66.32,39Zm2-12.84a.08.08,0,0,0-.06-.09.06.06,0,0,0-.08,0,.07.07,0,1,0,.14,0Zm-13.5-4.55C57.92,26,70.58,24.07,66.2,18.69,62.15,13.71,50.29,15.33,54.81,21.64ZM48.4,29.78s0-.07-.06-.08-.08,0-.08.05a.07.07,0,0,0,.05.09A.08.08,0,0,0,48.4,29.78ZM43.46,17.43a.08.08,0,0,0-.06-.09.07.07,0,0,0-.09.05.09.09,0,0,0,.06.09A.08.08,0,0,0,43.46,17.43Zm-16.06,7c3,5.5,20.58,4.66,12-2.29C34.93,18.49,24.27,18.66,27.4,24.44ZM18,30.6a.08.08,0,0,0-.06-.09.07.07,0,0,0-.08,0,.07.07,0,1,0,.14,0Z"/><path class="cls-2" d="M71.72,32.63c-6.91-5-13,2.54-5.4,6.4C72.79,42.32,78.09,37.19,71.72,32.63Z"/><path class="cls-3" d="M39.43,22.15c-4.5-3.66-15.16-3.49-12,2.29C30.38,29.94,48,29.1,39.43,22.15ZM66.2,18.69c-4.05-5-15.91-3.36-11.39,2.95C57.92,26,70.58,24.07,66.2,18.69Z"/><path class="cls-4" d="M31.11,34.49c-4.8-2.07-7.08.32-9.21,3.22l.74.23c.88.36,1.71.72,2.48,1.05Q30,41.15,35,43.17l.13,0C34.74,39.76,34.47,35.93,31.11,34.49Zm-13.21-4a.07.07,0,0,0-.08,0,.07.07,0,1,0,.14,0A.08.08,0,0,0,17.9,30.51Zm30.5-.73s0-.07-.06-.08-.08,0-.08.05a.07.07,0,0,0,.05.09A.08.08,0,0,0,48.4,29.78ZM1.55,24.38l-.16,0a5.36,5.36,0,0,0,3,6.1c1.27.57,2.61,1.14,4,1.72l.66.47c1-2,2.05-4.07,1.31-6.14C9.11,23,4.25,22.2,1.55,24.38Zm91.83,5,.8-.34c2.51-5.81-.36-13.83-5.91-14.68l.06-.35a9.19,9.19,0,0,0-1.09-9.56,8.86,8.86,0,0,0-7.85-3.15c-3.33.42-6.08,2.67-8.93,4.43a33.91,33.91,0,0,1-3.61,1.94l.23.5a5.46,5.46,0,0,0,1.67,3.12c1.11,1.09,2.46,1.58,3.17,3a13,13,0,0,1,1.2,4.13c.39,2.83.26,6.12,1.93,8.58,1.3,1.91,3.08,3.48,4.27,5.46,1.35,2.24.92,4.59,1.1,7.08a5.77,5.77,0,0,0,1.89,4.28l.17.39A15.63,15.63,0,0,0,78,51.77,30.92,30.92,0,0,1,76.81,56h.81c10,1.85,18.48,1.24,21.31-10.23C100.23,40.48,98.24,33,93.38,29.4Zm-50-12.06a.07.07,0,0,0-.09.05.09.09,0,0,0,.06.09.08.08,0,0,0,.09-.05A.08.08,0,0,0,43.4,17.34Zm30.71,28a.07.07,0,0,0-.09,0,.08.08,0,0,0,.06.09.07.07,0,0,0,.09-.05A.08.08,0,0,0,74.11,45.38Zm-1.89,4.8a.07.07,0,0,0,0,.09.08.08,0,0,0,.09-.06.07.07,0,0,0,0-.09A.08.08,0,0,0,72.22,50.18Zm-4-24.08a.06.06,0,0,0-.08,0,.07.07,0,1,0,.14,0A.08.08,0,0,0,68.25,26.1ZM56.19,40.58c-3.73-.71-6.8-.38-9.55,2.44A36.28,36.28,0,0,0,44,46.57l.21.15c6.94,2.53,14,4.77,21.14,6.59h0c.08-2.62,1-5.27-.32-7.79C63.47,42.36,59.43,41.19,56.19,40.58Z"/><path class="cls-5" d="M75.88,26.45c-1.07-1.57-1.31-3.91-1.54-6.18-.34-3.21-.68-6.53-3.29-8.39a1,1,0,1,0-1.16,1.62c1.87,1.34,2.16,4.08,2.46,7,.26,2.51.53,5.11,1.88,7.09a30,30,0,0,0,2.27,2.87c1.94,2.26,3.34,3.88,2.88,7.41A1,1,0,0,0,80.24,39h.13a1,1,0,0,0,1-.87c.58-4.42-1.33-6.63-3.34-9A29.06,29.06,0,0,1,75.88,26.45Zm-8-4.51c.34-.84.46-2.2-.91-3.89-3-3.68-9.68-4.21-12.67-1.93-1.9,1.45-2,3.73-.31,6.1,1.42,2,4.34,2.81,7,2.81a12.71,12.71,0,0,0,1.53-.09C65.31,24.61,67.25,23.52,67.89,21.94Zm-12.27-.88c-1.58-2.22-.46-3.07-.1-3.36,2-1.52,7.53-1.3,9.9,1.62.61.74.82,1.37.62,1.87-.34.83-1.83,1.54-3.72,1.77C59.88,23.24,56.79,22.69,55.62,21.06Zm-37,.28A2.75,2.75,0,0,0,16,23.19a1,1,0,1,0,1.91.58.82.82,0,0,1,.79-.43h0a2,2,0,0,1,1.42.7,1,1,0,0,1,.22,1.05,1,1,0,0,0,.48,1.33,1,1,0,0,0,.43.1,1,1,0,0,0,.9-.57,3,3,0,0,0-.47-3.16A4.11,4.11,0,0,0,18.66,21.34ZM72.31,31.82c-2.68-1.92-5.64-2.36-7.92-1.18a4.49,4.49,0,0,0-2.57,4c0,2,1.48,4,4.05,5.28a9.83,9.83,0,0,0,4.46,1.17,5.4,5.4,0,0,0,4.72-2.26C76.08,37.12,75.9,34.39,72.31,31.82Zm1,6c-.84,1.39-3.53,1.9-6.56.35-1.88-1-3-2.23-3-3.5a2.53,2.53,0,0,1,1.49-2.21c1.6-.83,3.78-.44,5.83,1S74.06,36.59,73.34,37.78Zm23-7.26c-.33-.38-.66-.74-1-1.07,2-4.86.79-11.16-2.89-14.39a8,8,0,0,0-2.59-1.53,10.49,10.49,0,0,0-1.68-9.85,10.15,10.15,0,0,0-9-3.61c-3,.37-5.4,2-7.76,3.54L69.8,4.69a33.07,33.07,0,0,1-13.66,4.7l-2.22.25c-5,.54-9.64,1.06-14.59,1.95L26.68,13.84l-5.49,1c-1.14.2-2.3.39-3.47.57C13,16.14,8.2,16.9,3.88,19A6.49,6.49,0,0,0,.52,22.9l-.21.66a6.6,6.6,0,0,0,3.57,8c1.14.52,2.34,1,3.57,1.55a10.14,10.14,0,0,0-.67,1.94,8.17,8.17,0,0,0,3.83,9.14c3,1.62,6.58.92,9.24-1.84a29.92,29.92,0,0,0,2.45-3.09l.07-.1c.79.33,1.55.65,2.25,1,3.2,1.41,6.35,2.73,9.39,4,.45,3.29,1.42,6.74,6,6.43A6.18,6.18,0,0,0,44.4,48.1c6.91,2.5,13.39,4.52,19.77,6.18,0,.26,0,.52.07.78a7.67,7.67,0,0,0,3.6,5.51,6.55,6.55,0,0,0,3.38,1,6.91,6.91,0,0,0,2.39-.44,7.17,7.17,0,0,0,4-3.85,42.24,42.24,0,0,0,7.43.78c6.75,0,12.76-2.53,15.1-12A18.57,18.57,0,0,0,96.38,30.52ZM8.5,30.86c-1.24-.52-2.45-1-3.59-1.55a4.08,4.08,0,0,1-2.38-4.09,4.85,4.85,0,0,1,4-.61,3.81,3.81,0,0,1,2.64,2.31C9.61,28.13,9.15,29.46,8.5,30.86Zm17.12,7L24,37.13c1.77-2.05,3.48-2.86,6.66-1.5,2.11.91,2.69,3.11,3,5.62Q29.74,39.64,25.62,37.85ZM64.35,51c0,.23-.06.46-.08.69C58.35,50.17,52.33,48.28,46,46a15,15,0,0,1,1.58-2.11c2.15-2.2,4.59-2.81,8.43-2.08,2.77.52,6.6,1.53,8,4.28C64.74,47.59,64.56,49.18,64.35,51Zm33.37-5.61c-2.49,10.08-9.48,11.12-19.21,9.42.21-.71.38-1.42.54-2.1l.16-.67c.84-3.4,3.55-7.57,6.91-8.59,1.91-.58,3.81,0,5.64,1.64a1.25,1.25,0,0,0,1.68-1.84c-3.15-2.88-6.11-2.78-8-2.19-4.3,1.3-7.59,6.21-8.61,10.38l-.17.69c-.66,2.77-1.35,5.63-3.88,6.57a4,4,0,0,1-3.62-.31,5.14,5.14,0,0,1-2.41-3.71,13.47,13.47,0,0,1,.12-3.39c.23-2,.48-4.2-.63-6.37-1.91-3.73-6.5-5-9.78-5.6s-7.19-.78-10.68,2.8a17.66,17.66,0,0,0-1.88,2.47c-1.19,1.77-2.21,3.3-4,3.41-2.62.18-3.06-1.38-3.54-5.54-.39-3.34-.87-7.5-4.73-9.15-6.19-2.66-9,1.3-11.33,4.48A25.15,25.15,0,0,1,18,40.64c-1.87,2-4.21,2.46-6.25,1.36a5.59,5.59,0,0,1-2.57-6.4,13.94,13.94,0,0,1,1.09-2.71c1-2,2.1-4.35,1.22-6.82A6.25,6.25,0,0,0,7.2,22.21,7.53,7.53,0,0,0,3.87,22,3.81,3.81,0,0,1,5,21.22c4-1.9,8.65-2.64,13.15-3.36,1.19-.18,2.37-.37,3.52-.58l5.49-1,12.65-2.26c4.86-.88,9.51-1.39,14.42-1.93l2.23-.25a35.56,35.56,0,0,0,14.7-5.06c.58-.35,1.15-.73,1.73-1.11,2.22-1.47,4.32-2.85,6.7-3.15a7.66,7.66,0,0,1,6.72,2.7,8,8,0,0,1,1.11,7.82,10,10,0,0,0-5.23,1.53,1.25,1.25,0,1,0,1.28,2.15c2.8-1.67,5.36-1.6,7.4.19,2.71,2.38,3.75,7.14,2.47,10.91a12,12,0,0,0-7.46-1.77,1.25,1.25,0,0,0,.21,2.49,9.72,9.72,0,0,1,8.43,3.57A16.13,16.13,0,0,1,97.72,45.42ZM18.15,29.54a1.07,1.07,0,0,0-.82.12,1.15,1.15,0,0,0-.48.66,1.06,1.06,0,0,0,.78,1.3,1.1,1.1,0,0,0,.81-.12,1.2,1.2,0,0,0,.49-.66A1.17,1.17,0,0,0,18.8,30,1.11,1.11,0,0,0,18.15,29.54Zm-.33,1-.83-.2a1,1,0,0,1,.42-.58l.41.78ZM67.2,25.91a1.06,1.06,0,0,0,.8,1.3,1,1,0,0,0,.24,0,1.07,1.07,0,1,0-1-1.33ZM48.94,21a3.14,3.14,0,0,0-3,.6,1,1,0,0,0,1.29,1.53,1.19,1.19,0,0,1,1.07-.22,1.14,1.14,0,0,1,.75.79,1,1,0,0,0,1,.74,1.15,1.15,0,0,0,.26,0A1,1,0,0,0,51,23.15,3.2,3.2,0,0,0,48.94,21ZM56.3,29.8h0a2.74,2.74,0,0,0-2.67,1.86,1,1,0,0,0,1.91.58.82.82,0,0,1,.79-.44h0a2,2,0,0,1,1.42.7,1.08,1.08,0,0,1,.23,1,1,1,0,0,0,.47,1.34,1.11,1.11,0,0,0,.43.09,1,1,0,0,0,.91-.57,3.06,3.06,0,0,0-.48-3.16A4,4,0,0,0,56.3,29.8ZM43.13,18.45a1.09,1.09,0,0,0,.26,0,1.06,1.06,0,1,0-.26,0Zm29.42,30.7a1,1,0,0,0-.81.12,1.15,1.15,0,0,0-.49.66,1.07,1.07,0,0,0,.78,1.3,1.15,1.15,0,0,0,.26,0,1.07,1.07,0,0,0,.91-1.63A1.14,1.14,0,0,0,72.55,49.15Zm-24-20.43h0a1.08,1.08,0,0,0-1.28.79,1.07,1.07,0,0,0,1,1.33,1.08,1.08,0,0,0,.26-2.12Zm-6-2.5c.44-1.47-.43-3.1-2.58-4.85C36.53,18.5,29.72,17.78,27,20c-.66.55-2,2.12-.52,4.91,1.61,3,6.28,4.12,9.82,4.12A13.77,13.77,0,0,0,37.82,29C40.49,28.68,42.2,27.71,42.64,26.22Zm-1.91-.57c-.16.51-1.18,1.11-3.12,1.32-3.52.37-8.11-.76-9.33-3-.89-1.65-.21-2.21,0-2.42a5.58,5.58,0,0,1,3.4-.85,11.92,11.92,0,0,1,7.08,2.23C40.43,24.24,40.86,25.2,40.73,25.65ZM74.36,44.41a1.07,1.07,0,1,0-.27,2.11,1.07,1.07,0,0,0,.27-2.11ZM43.18,33.46a3.14,3.14,0,0,0-3,.6,1,1,0,1,0,1.29,1.53,1.19,1.19,0,0,1,1.07-.22,1.16,1.16,0,0,1,.75.79,1,1,0,0,0,1,.74.82.82,0,0,0,.26,0,1,1,0,0,0,.71-1.22A3.18,3.18,0,0,0,43.18,33.46Z"/></g></g></svg>