<svg xmlns="http://www.w3.org/2000/svg" viewBox="0 0 73.08 108.73"><defs><style>.cls-1{fill:#fffeca;}.cls-2{fill:#ffe706;}.cls-3{fill:#fd3200;}.cls-4{fill:#442a11;}</style></defs><g id="Laag_2" data-name="Laag 2"><g id="objects"><path class="cls-1" d="M66,22.85a11.63,11.63,0,0,0-.84-2.61c-.58-.79-2.92-1.76-3.76-2.06a16.69,16.69,0,0,0-2.54,0V18c2.41-5.75-.82-5.45-3.78-5.55.45,0-2.63-1.32-2.68-1.33A11,11,0,0,0,50,11.8L50,11.59c1-5.8-1.31-3.09-3.45-4.94-.91-.79-.63-2.5-1.7-3-1.58-.74-2.51,1-3.91.79C38.12,4,33.46-.08,30.73,1.7c-.78.5-.63,2.7-1.32,3.64-.44.59-2,.84-2.62,1.38-1.22,1.08-.67,2.93-2.55,2.89-.67,0-1-1.85-1.16-1.85-2.88,0-1.58-.71-4.39,2.05-1.25,1.24-4.94,3.13-3.11,5.72h0c-.43.89-3-1.93-3.95-1.42s-2.34,3.11-2.87,5.29l-.15,0a1,1,0,0,0-.82-.63,2.72,2.72,0,0,0-1.09.15L5,19.37a1.52,1.52,0,0,0-.66.29A1.13,1.13,0,0,0,4,20.5a5.75,5.75,0,0,0,.1.92,2.35,2.35,0,0,1-.72,2.26,3.57,3.57,0,0,0-.88.59c-.14.19-.2.42-.32.62s-.38.35-.59.25A4.73,4.73,0,0,0,2.4,30l11.45,6.81,11,6.55,8.54,5.08,11.4-4.76,11.74-4.91,14.31-6C74.53,28.89,66.87,23.7,66,22.85Z"/><path class="cls-2" d="M56.53,38.74,44.79,43.65l.06.14-1.33,58.94.1.2,8.7-4.26h0l4.43-59.38ZM24.85,43.33l-11-6.55-.1.16,5.33,59.53-.09.12L26.56,102h0l-2-58.16Z"/><path class="cls-3" d="M13.85,36.78,2.4,30l10,62L19,96.59l.09-.12L13.75,36.94Zm30.94,6.87-11.4,4.76-8.54-5.08-.27.46,2,58.16h0l7.78,5.52,9.28-4.55-.1-.2,1.33-58.94Zm11.74-4.91.22.54L52.32,98.66h0l8.37-4.1L70.84,32.76Z"/><path class="cls-4" d="M23.27,15.41,23.1,16c-.29.92,1.16,1.32,1.44.4l.18-.57C25,14.89,23.56,14.49,23.27,15.41Zm14.85-4c1.42.23,3.28-.93,2.62-2.56a.76.76,0,0,0-.92-.52.74.74,0,0,0-.52.92c.44,1.1-2.25.76-1.27-.1.73-.63-.33-1.69-1.06-1.06a1.86,1.86,0,0,0-.51,2.15A2.17,2.17,0,0,0,38.12,11.42ZM39,20.86l.15.58A.75.75,0,0,0,40.6,21l-.15-.58A.75.75,0,0,0,39,20.86ZM18.2,24.67a1.25,1.25,0,0,0,2.45-.52A3.46,3.46,0,0,0,19,21.83a2.78,2.78,0,0,0-2.85.12,5.17,5.17,0,0,0-.8.69,2.45,2.45,0,0,1-.41.37,2.7,2.7,0,0,1-.36,0,3.47,3.47,0,0,0-1,.13,2.85,2.85,0,0,0-1.63,1.44,3.59,3.59,0,0,0-.27,2.7A1.25,1.25,0,0,0,14,26.56a1.05,1.05,0,0,1,.25-1,1.78,1.78,0,0,1,.36,0,3.29,3.29,0,0,0,1.25-.22,3.79,3.79,0,0,0,1.23-.91,2.93,2.93,0,0,1,.39-.36.27.27,0,0,1,.3,0A1,1,0,0,1,18.2,24.67Zm3,6a.76.76,0,0,0-.53.92c.45,1.11-2.24.76-1.26-.09.73-.64-.33-1.69-1.06-1.06a1.85,1.85,0,0,0-.51,2.15,2.14,2.14,0,0,0,1.65,1.16c1.43.24,3.29-.92,2.63-2.55A.78.78,0,0,0,21.2,30.72Zm12.56-6.23c0,.19-.1.38-.14.57a.75.75,0,0,0,1.44.4c0-.19.1-.38.14-.57A.75.75,0,0,0,33.76,24.49Zm17.65,8a.74.74,0,0,0-.52.92c.44,1.11-2.25.76-1.27-.1.73-.63-.33-1.69-1.06-1.06a1.86,1.86,0,0,0-.51,2.15,2.17,2.17,0,0,0,1.66,1.17c1.42.24,3.28-.93,2.62-2.56A.76.76,0,0,0,51.41,32.47Zm4.61.84-.14.58a.75.75,0,0,0,1.45.4l.14-.58C57.7,32.78,56.25,32.38,56,33.31Zm1.78-7.18c-.3,0-.34,0-.7-.77a4.22,4.22,0,0,0-1.92-2.21,4.94,4.94,0,0,0-2-.25,11,11,0,0,0-.34-2.17,5.23,5.23,0,0,0-1.5-2.95A4,4,0,0,0,50,17.12l-1.89-.6a3.31,3.31,0,0,0-3.22.32,1.25,1.25,0,1,0,1.61,1.91c.06,0,.25,0,.86.16l1.89.6a1.54,1.54,0,0,1,.54.22,3.77,3.77,0,0,1,.64,1.59,6,6,0,0,1,.23,2.1,4.07,4.07,0,0,0-1,.59,3.38,3.38,0,0,0-1.08,3.68,1.25,1.25,0,0,0,1.21.94,1.1,1.1,0,0,0,.31,0,1.25,1.25,0,0,0,.9-1.52c-.18-.71,0-.94.14-1,.65-.66,2.48-.7,3.06-.6a2.14,2.14,0,0,1,.7,1,3.21,3.21,0,0,0,2.82,2.2,1.25,1.25,0,1,0,.14-2.5Zm4.35,1.8c0,.19-.09.38-.14.57-.23.94,1.22,1.34,1.45.4,0-.19.09-.38.14-.58A.75.75,0,0,0,62.15,27.93Zm5.35-5.47-.34-.28a8.25,8.25,0,0,0-1-2.67c-.89-1.22-3.79-2.3-4.36-2.5a3.63,3.63,0,0,0-1.2-.15c.51-1.73.45-3-.16-4-1-1.55-3-1.6-4.79-1.64h-.09c-.32-.19-.75-.38-1.26-.62a9.73,9.73,0,0,0-1.65-.69,2.62,2.62,0,0,0-1.27.13,4,4,0,0,0-.5-2.77,2.85,2.85,0,0,0-2.14-1,2.53,2.53,0,0,1-1.46-.53A2.29,2.29,0,0,1,47,4.83a3.24,3.24,0,0,0-1.62-2.3A3.46,3.46,0,0,0,42,2.89a1.75,1.75,0,0,1-.88.33A13.36,13.36,0,0,1,38,1.92C35.38.61,32.42-.89,30.05.66a3.68,3.68,0,0,0-1.27,2.62,6,6,0,0,1-.33,1.26,4.66,4.66,0,0,1-.88.4A5.23,5.23,0,0,0,26,5.79a4.57,4.57,0,0,0-1.21,2c0,.12-.1.27-.15.39-.07-.17-.13-.34-.16-.43-.15-.43-.43-1.22-1.35-1.22-.57,0-1,0-1.26,0C20.4,6.35,20,6.65,18.93,7.8c-.28.29-.64.66-1.12,1.13-.2.19-.52.45-.87.72-1.19.93-2.76,2.18-3.05,3.91-.94-.57-2-1-2.87-.52-1.13.62-2.27,2.49-3,4.49l-.09,0a4.09,4.09,0,0,0-1.57.19l-1.72.48a2.74,2.74,0,0,0-1.15.56,2.39,2.39,0,0,0-.76,1.75,5.76,5.76,0,0,0,.08.89l0,.22a1.28,1.28,0,0,1-.2,1.07.78.78,0,0,1-.2.11,2.83,2.83,0,0,0-.95.74,2.59,2.59,0,0,0-.26.43l-.09,0a1.27,1.27,0,0,0-.72.68,6,6,0,0,0,.78,5.84q3,18.57,6,37.14,1.71,10.51,3.41,21c.64,3.95,1.07,4.32,4.44,6.7q9.3,6.62,18.62,13.21a1.24,1.24,0,0,0,1.26,0L52.46,100c3.08-1.5,8.63-2.69,9.61-6.2,1.63-5.81,2-12.27,3-18.21l4.32-26.31q1.32-8,2.63-16a4.49,4.49,0,0,0,1.07-3.14C72.87,26.86,69.24,23.89,67.5,22.46ZM14.16,91.64a2.61,2.61,0,0,1-.62-.45,6.1,6.1,0,0,1-.12-1c-.23-5.81-1.93-11.91-2.86-17.64L4.05,32.42l9,5.36Q15.61,66,18.13,94.27A37.86,37.86,0,0,0,14.16,91.64Zm8.66,6.15c-1-.73-2.05-1.52-3.09-2.31L14.66,38.72l4.71,2.81,4.47,2.66,1.91,55.67Zm9.45,6.7-5-3.54Q26.33,73,25.37,45.1q2.34,1.4,4.69,2.78a21.36,21.36,0,0,0,2.34,1.41l.9,55.94C33,105,32.62,104.73,32.27,104.49Zm10.52-2.55c-2.43,1.12-5.28,2.11-7.48,3.59l-.9-56c1.8-.37,4.16-1.91,5.69-2.55l4-1.66Q43.43,73.63,42.79,101.94Zm8.85-4.32-7.34,3.59q.64-28.27,1.28-56.55L52.9,41.6l3-1.26Q53.78,69,51.64,97.62Zm12-28.4q-1.73,10.53-3.46,21.06a32.9,32.9,0,0,1-.43,3.34,3,3,0,0,1-.93.5,33.61,33.61,0,0,0-4,2l-1.53.75L57.46,39.7l11.78-4.93Zm6.53-37.56-.17.13-16.79,7c-6.41,2.67-13,6.29-19.67,8.22l-.19-.13c-1-.63-2-1.21-3.06-1.82L19.79,38.87,3.37,29.1a.85.85,0,0,0-.17-.16,3.57,3.57,0,0,1-.64-2.74,1.81,1.81,0,0,0,.66-.63,3.21,3.21,0,0,0,.24-.45l0-.06L3.64,25c.15-.08.31-.17.46-.27a3.55,3.55,0,0,0,1.24-3.45l0-.28a2.23,2.23,0,0,1,0-.39h.07L7,20.1,7.37,20a5.68,5.68,0,0,0,0,2.31,1.26,1.26,0,0,0,1.2.9A1.41,1.41,0,0,0,9,23.18a1.24,1.24,0,0,0,.85-1.55C9.43,20.3,11,16.34,12,15.38a11,11,0,0,1,1.07.63,4.88,4.88,0,0,0,2.06,1l.41.38a1.24,1.24,0,0,0,1.76-.12,1.24,1.24,0,0,0-.12-1.76,2.18,2.18,0,0,1-.88-1.38c0-.8,1.31-1.8,2.16-2.47a13.84,13.84,0,0,0,1.08-.91c.5-.49.87-.87,1.16-1.17s.48-.5.61-.61l.31,0,.59,0c.31.81.86,1.85,2,1.88h.07a2.82,2.82,0,0,0,2.79-2.23,2.57,2.57,0,0,1,.53-1,6.15,6.15,0,0,1,.86-.38,4.15,4.15,0,0,0,1.94-1.18,5.71,5.71,0,0,0,.82-2.33A6.49,6.49,0,0,1,31.5,2.7c1.19-.65,3.41.47,5.37,1.46a15.3,15.3,0,0,0,3.81,1.53,3.85,3.85,0,0,0,2.49-.6c.69-.38.85-.42,1.1-.3a2.79,2.79,0,0,1,.29.75A4,4,0,0,0,45.69,7.6a4.89,4.89,0,0,0,2.75,1.11l.48.08a5.63,5.63,0,0,1-.1,2,1,1,0,0,1-.59,0s0,0,0-.06a1.25,1.25,0,0,0-2.35.87c1,2.64,4.12,1.59,5.64,1.08.25-.08.56-.19.76-.24.49.21,1.49.66,2,.9a1.24,1.24,0,0,0,.88.41h.55c1,0,2.46.07,2.75.51.06.1.3.64-.25,2.28a1.7,1.7,0,0,1-.15-.7A1.25,1.25,0,0,0,55.5,16c.21,3.66,3.35,3.48,4.7,3.41a5.64,5.64,0,0,1,.81,0A11,11,0,0,1,64.18,21a7.54,7.54,0,0,1,.57,1.92,1.49,1.49,0,0,0,.39.83,9.42,9.42,0,0,0,.78.68c1.24,1,4.53,3.7,4.66,5.89A1.92,1.92,0,0,1,70.12,31.66ZM28.91,14.55a.75.75,0,0,0,1.45-.4l-.15-.57a.75.75,0,0,0-1.45.4Zm1.71-4.26L31,9.81c.56-.79-.74-1.54-1.29-.76l-.35.49C28.77,10.33,30.07,11.08,30.62,10.29ZM47.17,35.91a.75.75,0,0,0-1.44.4l.15.58a.75.75,0,0,0,1.44-.4ZM27.88,23.26a1.25,1.25,0,0,0,1.25,1.23h0a1.27,1.27,0,0,0,1.23-1.28l0-1.87a3.61,3.61,0,0,1,.18-1.58,1.08,1.08,0,0,1,.77-.39l.5-.06A5.73,5.73,0,0,0,33.41,19c.19-.08.37-.18.56-.28a1.88,1.88,0,0,1,.38-.18.47.47,0,0,1,.37.08,1.32,1.32,0,0,1,.58.92,1.23,1.23,0,0,0,1.42,1,1.25,1.25,0,0,0,1.05-1.42A3.81,3.81,0,0,0,36,16.47a2.93,2.93,0,0,0-2.48-.34,5.18,5.18,0,0,0-.78.36,1.68,1.68,0,0,1-.33.16,3.12,3.12,0,0,1-.92.18c-.22,0-.43,0-.64.08a3.39,3.39,0,0,0-2.51,1.56,5.37,5.37,0,0,0-.54,2.92Zm13.17,1.42a.76.76,0,0,0-.53.92c.45,1.11-2.24.76-1.26-.09.73-.64-.33-1.7-1.06-1.07a1.84,1.84,0,0,0-.51,2.16,2.18,2.18,0,0,0,1.65,1.16c1.42.24,3.29-.92,2.63-2.56A.77.77,0,0,0,41.05,24.68ZM38.1,33.43a3.79,3.79,0,0,0-1.89.28c-.93-1.86-2.1-3.83-4-3.2a5.19,5.19,0,0,0-.78.35,3.41,3.41,0,0,1-.33.17,3.6,3.6,0,0,1-.92.17l-.64.08A3.39,3.39,0,0,0,27,32.84a5.4,5.4,0,0,0-.54,2.93l0,1.86a1.25,1.25,0,0,0,1.25,1.23h0A1.27,1.27,0,0,0,29,37.58l0-1.86a3.66,3.66,0,0,1,.18-1.59c0-.07.17-.28.77-.38a4,4,0,0,1,.5-.06,5.51,5.51,0,0,0,1.62-.35c.19-.08.37-.18.56-.28l.21-.11A8.26,8.26,0,0,1,34,34.82l-1,.52a3.32,3.32,0,0,0-1.87,2A1.25,1.25,0,1,0,33.5,38c0-.16.44-.36.61-.45l2.3-1.18a3,3,0,0,1,1.36-.47,1.79,1.79,0,0,1,1.06,1.21A6.4,6.4,0,0,1,39,39.91a1.26,1.26,0,0,0,1.11,1.38h.14a1.25,1.25,0,0,0,1.24-1.11,8.89,8.89,0,0,0-.35-3.92A4.06,4.06,0,0,0,38.1,33.43Z"/></g></g></svg>