<svg xmlns="http://www.w3.org/2000/svg" viewBox="0 0 45.49 72.67"><defs><style>.cls-1{fill:#cfe1ed;}.cls-2{fill:#b79991;}.cls-3{fill:#d8c3bf;}.cls-4{fill:#fffeca;}.cls-5{fill:#b7e2dc;}.cls-6{fill:#442a11;}</style></defs><g id="Laag_2" data-name="Laag 2"><g id="objects"><path class="cls-1" d="M41.9,20.73a2.65,2.65,0,0,0-1.28,0l-1,.29a29.65,29.65,0,0,1-11.26.79L27,21.69a29.66,29.66,0,0,1-11-3.6l-.68-.39A2.6,2.6,0,0,0,14,17.35a2.55,2.55,0,0,0-2.47,1.7L11,21.21l.07,0a14.48,14.48,0,0,1,3.73,1.24,4.59,4.59,0,0,1,2.39,2.88,6.35,6.35,0,0,1-.45,3.15C15.52,32.27,12,47,10.5,52.34A7.24,7.24,0,0,1,9.36,55a3.74,3.74,0,0,1-3.43,1.23,10.52,10.52,0,0,1-3.46-1.35l-.34-.09L2.07,55a7.76,7.76,0,0,0-.62,2h.07A4.09,4.09,0,0,0,3,60.13a10.57,10.57,0,0,0,3.09,1.74,55.49,55.49,0,0,0,32.24,3A9,9,0,0,0,42,63.49a3.6,3.6,0,0,0,1.56-3.1l.2,0c0-.14,0-.3,0-.45v-.13H43.2a10.37,10.37,0,0,1-3.68.48,3.76,3.76,0,0,1-3-2A7.45,7.45,0,0,1,36,55.44c-.21-5.52.85-20.58.57-24.52a6.18,6.18,0,0,1,.32-3.17,4.53,4.53,0,0,1,3-2.22,14.75,14.75,0,0,1,3.93-.32H44L44,23A2.55,2.55,0,0,0,41.9,20.73Z"/><path class="cls-2" d="M28.53,14.61c-7.73-.94-13.7-4.06-13.35-7l-1.11,9.13,0,.59a2.6,2.6,0,0,1,1.31.35l.68.39a29.66,29.66,0,0,0,11,3.6l1.29.16a29.65,29.65,0,0,0,11.26-.79l1-.29a2.65,2.65,0,0,1,1.28,0l.15-.56L43.16,11C42.8,14,36.25,15.55,28.53,14.61Z"/><path class="cls-3" d="M29.86,4.75a.36.36,0,0,0-.42.31.37.37,0,0,0,.33.41.37.37,0,0,0,.42-.32A.37.37,0,0,0,29.86,4.75ZM26.35,7.63a.36.36,0,0,0-.42.31.37.37,0,0,0,.33.41A.38.38,0,0,0,26.68,8,.37.37,0,0,0,26.35,7.63Zm8.12-2a.37.37,0,0,0-.42.32.38.38,0,0,0,.75.09A.38.38,0,0,0,34.47,5.67ZM31.3,9.23a.36.36,0,0,0-.42.31.37.37,0,0,0,.33.41.38.38,0,0,0,.42-.32A.37.37,0,0,0,31.3,9.23Z"/><path class="cls-4" d="M28.53,14.61C36.25,15.55,42.8,14,43.16,11s-5.3-8.73-13-9.67-14.6,3.35-15,6.26S20.8,13.67,28.53,14.61Zm5.94-8.94a.38.38,0,0,1,.33.41A.38.38,0,0,1,34.05,6,.37.37,0,0,1,34.47,5.67ZM31.3,9.23a.37.37,0,0,1,.33.4.38.38,0,0,1-.42.32.37.37,0,0,1-.33-.41A.36.36,0,0,1,31.3,9.23ZM29.86,4.75a.37.37,0,0,1,.33.4.37.37,0,0,1-.42.32.37.37,0,0,1-.33-.41A.36.36,0,0,1,29.86,4.75ZM26.35,7.63a.37.37,0,0,1,.33.4.38.38,0,0,1-.42.32.37.37,0,0,1-.33-.41A.36.36,0,0,1,26.35,7.63ZM43.72,60.37l-.2,0A3.6,3.6,0,0,1,42,63.49a9,9,0,0,1-3.64,1.37,55.49,55.49,0,0,1-32.24-3A10.57,10.57,0,0,1,3,60.13,4.09,4.09,0,0,1,1.52,57H1.45a9.8,9.8,0,0,0,4.24,9.73c4.26,2.49,9.59,3.78,14.42,4.46C25.76,72,44.93,72.1,43.72,60.37Z"/><path class="cls-5" d="M43.82,25.21a14.75,14.75,0,0,0-3.93.32,4.53,4.53,0,0,0-3,2.22,6.18,6.18,0,0,0-.32,3.17c.28,3.94-.78,19-.57,24.52a7.45,7.45,0,0,0,.48,2.81,3.76,3.76,0,0,0,3,2,10.37,10.37,0,0,0,3.68-.48h.47L44,25.21Zm-29-2.74a14.48,14.48,0,0,0-3.73-1.24l-.07,0L2.13,54.74l.34.09a10.52,10.52,0,0,0,3.46,1.35A3.74,3.74,0,0,0,9.36,55a7.24,7.24,0,0,0,1.14-2.61C12,47,15.52,32.27,16.74,28.5a6.35,6.35,0,0,0,.45-3.15A4.59,4.59,0,0,0,14.8,22.47Z"/><path class="cls-6" d="M30.13,9.54a1.11,1.11,0,0,0,1,1.14,1.09,1.09,0,0,0,.64-2,.61.61,0,0,0-.23-.11h-.1l-.13,0h0a.58.58,0,0,0-.19,0A1.1,1.1,0,0,0,30.13,9.54Zm4.15-2.41a1.1,1.1,0,0,0,.64-2.06A.55.55,0,0,0,34.69,5h-.1l-.12,0h0a.48.48,0,0,0-.18,0,1.09,1.09,0,0,0-.94,1A1.13,1.13,0,0,0,34.28,7.13ZM29.7,6a.85.85,0,0,0,.46-1.61A.48.48,0,0,0,30,4.27h-.06s-.05,0-.08,0h0l-.15,0A.85.85,0,0,0,29.7,6ZM19.47,34.91c-.63,3.34,1.53,5.24,4.26,6.65s5.49,3.23,4.63,7c-.53,2.32-2.43,4.3-4.93,3.92-2-.3-4.25-2.09-3.17-4.45.66-1.46-1.49-2.73-2.16-1.26-1.47,3.22-.05,6.13,3.13,7.59,3.88,1.78,7.63-.14,9.18-4a8.07,8.07,0,0,0-3.63-10c-1.89-1.11-4.8-1.7-4.84-4.32-.07-4.25,6.7-4.46,7-.52.12,1.59,2.62,1.61,2.5,0C30.92,28.81,20.73,28.25,19.47,34.91Zm25.68-3.77c0-2.69,1.07-7.71-.65-10.11A3.62,3.62,0,0,0,43.33,20l1.07-8.78h0c.49-4-6.27-10.1-14.11-11.06S14.43,3.46,13.94,7.48h0l-1.1,9.06c-1.49.48-2.42,1.94-3,4.17l-9,33.92C-5.17,71.56,22.17,74.16,33.14,72c5.12-1,10.93-3.48,11.78-9.25.55-3.75,0-8.09.07-11.86Q45.07,41,45.15,31.14ZM28,2.49a17.49,17.49,0,0,1,2,.12c7.23.88,12.16,6.33,11.93,8.28-.2,1.64-5.46,3.42-13.24,2.48S16.22,9.43,16.42,7.79,21.65,2.49,28,2.49Zm-12,9c2.64,2.19,7.48,3.75,12.41,4.35a38.48,38.48,0,0,0,4.52.28,20.71,20.71,0,0,0,8.56-1.51l-.6,5c-1.15.11-2.36.49-3.46.71-7.51,1.49-13.92-.41-20.74-3.27a8.16,8.16,0,0,0-1.31-.45ZM9.52,31.66c.7-2.63,1.08-6.37,2.09-9.27a11,11,0,0,1,2.71,1,3.59,3.59,0,0,1,1.89,2.21,5.64,5.64,0,0,1-.42,2.64c-.67,2.06-1.95,7.14-3.31,12.53-1.1,4.38-2.24,8.9-2.94,11.33a6.68,6.68,0,0,1-1,2.26,2.74,2.74,0,0,1-2.52.87,7.8,7.8,0,0,1-2.52-.93Q6.54,43,9.52,31.66ZM25.36,70.25c-6.67,0-19.1-1.79-22.09-8.38A16.82,16.82,0,0,0,5.6,63a57,57,0,0,0,21.57,4.22,56,56,0,0,0,11.41-1.16,14.63,14.63,0,0,0,2.76-.83C38.24,69.76,30.11,70.23,25.36,70.25ZM42.64,58.89a8.82,8.82,0,0,1-3,.39,2.73,2.73,0,0,1-2.24-1.46A6.51,6.51,0,0,1,37,55.4c-.11-2.72.1-7.84.31-12.79s.4-9.74.25-11.76a5.64,5.64,0,0,1,.23-2.67,3.6,3.6,0,0,1,2.36-1.69,10.58,10.58,0,0,1,2.54-.28q0,6.15-.1,12.29-.06,7.83-.13,15.65C42.45,55.5,42.6,57.21,42.64,58.89Zm.08-34.68a12.11,12.11,0,0,0-3.09.35A5.51,5.51,0,0,0,36,27.32,7.21,7.21,0,0,0,35.57,31c.13,1.91-.06,6.59-.26,11.53s-.42,10.15-.31,13a8.25,8.25,0,0,0,.58,3.19,4.7,4.7,0,0,0,3.83,2.59,5.79,5.79,0,0,0,.72,0,9.73,9.73,0,0,0,2.1-.26,2.69,2.69,0,0,1-1,1.44,8.17,8.17,0,0,1-3.14,1.16A54.39,54.39,0,0,1,6.55,60.71a9.35,9.35,0,0,1-2.73-1.52,2.81,2.81,0,0,1-1-2c.05-.3.12-.61.2-.93a8.86,8.86,0,0,0,2.82,1,4.31,4.31,0,0,0,.71,0,4.63,4.63,0,0,0,3.63-1.64,8.42,8.42,0,0,0,1.32-3c.71-2.47,1.85-7,3-11.4C15.71,36.1,17,30.81,17.69,28.81a7.25,7.25,0,0,0,.48-3.66,5.5,5.5,0,0,0-2.89-3.55,12.5,12.5,0,0,0-2.85-1.07c0-.05.05-.11.08-.17,1.45-2.43,3.63-.69,5.86.27A33.68,33.68,0,0,0,28,23.06a32.2,32.2,0,0,0,6.94.09c1.68-.18,3.62-1,5.23-1C42.7,22.2,42.77,22.85,42.72,24.21ZM26.19,8.84a.85.85,0,0,0,.46-1.61.48.48,0,0,0-.16-.08h-.17a.66.66,0,0,0-.15,0A.85.85,0,0,0,26.19,8.84ZM23.27,6.52a1.1,1.1,0,0,0,.64-2.06.55.55,0,0,0-.23-.11h-.1l-.12,0h-.05a.58.58,0,0,0-.18,0,1.09,1.09,0,0,0-.94,1A1.13,1.13,0,0,0,23.27,6.52Z"/></g></g></svg>