<svg xmlns="http://www.w3.org/2000/svg" viewBox="0 0 95.54 87.92"><defs><style>.cls-1{fill:#aae23d;}.cls-2{fill:#ffb339;}.cls-3{fill:#fdd782;}.cls-4{fill:#fffeca;}.cls-5{fill:#f99507;}.cls-6{fill:#ff6700;}.cls-7{fill:#4fbf37;}.cls-8{fill:#442a11;}</style></defs><g id="Laag_2" data-name="Laag 2"><g id="objects"><path class="cls-1" d="M93.34,39.6a5.47,5.47,0,0,0-5.62-2l-1.53-.22C85.83,40.08,84.8,42,82,42.94,75.07,45.37,56,51.12,48.86,52.31,26.37,56,9,57.49,7.17,55.45a5.93,5.93,0,0,1-1-1.86l-.78.31A5.06,5.06,0,0,0,1,58.7a5.89,5.89,0,0,0,3.61,5.63,6,6,0,0,0,1.32.34,6.25,6.25,0,0,0,2.85-.2,2.89,2.89,0,0,1,3.26,1,5.43,5.43,0,0,0,1.89,1.7,7.1,7.1,0,0,0,4.74.43A6.83,6.83,0,0,0,21.6,66l.21-.22a2.81,2.81,0,0,1,2.73-.9,8.3,8.3,0,0,0,4.3-.28,9,9,0,0,0,3.5-2.28,2.78,2.78,0,0,1,3.24-.61,11.84,11.84,0,0,0,11-.42,8.54,8.54,0,0,0,1.79-1.4A2.76,2.76,0,0,1,51.27,59a8.92,8.92,0,0,0,4.66.22,8.24,8.24,0,0,0,4-2.22,2.76,2.76,0,0,1,3.08-.7,8.48,8.48,0,0,0,1.95.61,6.12,6.12,0,0,0,4-.54,6.44,6.44,0,0,0,1.68-1.34,2.69,2.69,0,0,1,2.73-.82,3.26,3.26,0,0,0,1.83,0,4,4,0,0,0,1.68-1.1,2.76,2.76,0,0,1,2.74-.88,8.34,8.34,0,0,0,1.65.27,9.82,9.82,0,0,0,3.39-.46A5.22,5.22,0,0,0,87,50.89a4.37,4.37,0,0,0,.72-1,2.91,2.91,0,0,1,2.22-1.58,5.69,5.69,0,0,0,2.2-.83,5.23,5.23,0,0,0,1.63-1.65A5.78,5.78,0,0,0,93.34,39.6Z"/><path class="cls-2" d="M92.93,47.7l-.83-.24a5.69,5.69,0,0,1-2.2.83,2.91,2.91,0,0,0-2.22,1.58,4.37,4.37,0,0,1-.72,1,5.22,5.22,0,0,1-2.33,1.21,9.82,9.82,0,0,1-3.39.46,8.34,8.34,0,0,1-1.65-.27,2.76,2.76,0,0,0-2.74.88,4,4,0,0,1-1.68,1.1,3.26,3.26,0,0,1-1.83,0,2.69,2.69,0,0,0-2.73.82,6.44,6.44,0,0,1-1.68,1.34,6.12,6.12,0,0,1-4,.54A8.48,8.48,0,0,1,63,56.33a2.76,2.76,0,0,0-3.08.7,8.24,8.24,0,0,1-4,2.22A8.92,8.92,0,0,1,51.27,59a2.76,2.76,0,0,0-2.89.87,8.54,8.54,0,0,1-1.79,1.4,11.84,11.84,0,0,1-11,.42,2.78,2.78,0,0,0-3.24.61,9,9,0,0,1-3.5,2.28,8.3,8.3,0,0,1-4.3.28,2.81,2.81,0,0,0-2.73.9L21.6,66a6.83,6.83,0,0,1-2.93,1.64,7.1,7.1,0,0,1-4.74-.43A5.43,5.43,0,0,1,12,65.52a2.89,2.89,0,0,0-3.26-1,6.25,6.25,0,0,1-2.85.2v.06a11.69,11.69,0,0,0,4.9,5.2,17.11,17.11,0,0,0,7.22,2,29.28,29.28,0,0,0,6.72-.35l1.06-.19c3.61-.7,7.16-1.71,10.77-2.39.93-.18,1.87-.34,2.82-.46,1.24-.16,2.49-.28,3.74-.37,3.35-.27,6.71-.38,10.05-.67a45.63,45.63,0,0,0,12.17-2.41l.37-.14A30.5,30.5,0,0,0,71.13,62c1.66-1.05,3.29-2.16,5-3.09a13.88,13.88,0,0,1,4.38-1.4c1.54-.25,3.08-.33,4.63-.51a18.87,18.87,0,0,0,4-.82,8.44,8.44,0,0,0,3.21-2.15C94,52.27,94.89,49.81,92.93,47.7Z"/><path class="cls-3" d="M93.62,60.32l-.66-.4a4,4,0,0,1-2.95,2c-1.21.14-2.52-.32-3.63.23l-.9-.18a8.31,8.31,0,0,1-2.74,4.46,11.13,11.13,0,0,1-8.53,2.12,23.35,23.35,0,0,1-5-1.28c-4.58.33-7.32,6.85-12,7-2.48.06-4.77-1.8-7.24-1.61-1.46.11-2.78.92-4.18,1.39s-3.13.51-4.11-.66l-1.28-.28a15.44,15.44,0,0,1-9,4.85,15,15,0,0,1-10.4-2.49l-.84.62a9.29,9.29,0,0,1-4.56,1.06,5.93,5.93,0,0,1-4.21-2,5,5,0,0,1-.9-1.58c-.55,3-1.66,7.38,0,9.84,1.85,2.67,5.4,3,8.51,3,22.3,0,44.06-6.83,65.33-14,2.83-.95,5.77-2,7.82-4.26C94.16,66.13,95,62.7,93.62,60.32Zm-44.76-8C56,51.12,75.07,45.37,82,42.94c2.82-1,3.85-2.86,4.21-5.52a21.84,21.84,0,0,0,.18-2.25,16.32,16.32,0,0,0-.23-4.23l-1.25.25a91.79,91.79,0,0,1-20.06,7.66,214.5,214.5,0,0,1-33.34,6l-.75.08c-1.15.13-2.29.25-3.44.36-9.51.92-17.66,1.27-22.61,1.31.35,1.41.54,4.6,1.44,6.94a5.93,5.93,0,0,0,1,1.86C9,57.49,26.37,56,48.86,52.31Z"/><path class="cls-4" d="M84.93,28.87c-7.2-5.22-15-9.8-22.47-14.5-3.52-2.2-7.09-4.32-10.61-6.52-3.17-2-6.34-4.6-9.83-5.91C36.06-.31,31.24,3,27.51,7.82A198.89,198.89,0,0,0,16,24.72c-3.76,6-9.36,14.92-11.28,21.93,5,0,13.1-.39,22.61-1.31,1.15-.11,2.29-.23,3.44-.36l.75-.08a214.5,214.5,0,0,0,33.34-6,91.79,91.79,0,0,0,20.06-7.66l1.25-.25A3.5,3.5,0,0,0,84.93,28.87Z"/><path class="cls-5" d="M65.63,65.79l-.26-.71A45.63,45.63,0,0,1,53.2,67.49c-3.34.29-6.7.4-10.05.67l.07.89a16.58,16.58,0,0,1-2.73,4l1.28.28c1,1.17,2.71,1.13,4.11.66s2.72-1.28,4.18-1.39c2.47-.19,4.76,1.67,7.24,1.61,4.63-.13,7.37-6.65,12-7C68,66.8,66.83,66.3,65.63,65.79Z"/><path class="cls-6" d="M39.41,68.53c-.95.12-1.89.28-2.82.46-3.61.68-7.16,1.69-10.77,2.39l-1.06.19a29.28,29.28,0,0,1-6.72.35l0,.74a15.35,15.35,0,0,0,3.1,2.77,15,15,0,0,0,10.4,2.49,15.44,15.44,0,0,0,9-4.85,16.58,16.58,0,0,0,2.73-4l-.07-.89C41.9,68.25,40.65,68.37,39.41,68.53Zm53.14-14.3-.18-.18a8.44,8.44,0,0,1-3.21,2.15,18.87,18.87,0,0,1-4,.82c-1.55.18-3.09.26-4.63.51a13.88,13.88,0,0,0-4.38,1.4c-1.74.93-3.37,2-5,3.09a30.5,30.5,0,0,1-5.39,2.92l-.37.14.26.71c1.2.51,2.4,1,3.62,1.46a23.35,23.35,0,0,0,5,1.28,11.13,11.13,0,0,0,8.53-2.12A8.31,8.31,0,0,0,85.48,62l.9.18c1.11-.55,2.42-.09,3.63-.23a4,4,0,0,0,2.95-2,3.58,3.58,0,0,0,.24-.48A7,7,0,0,0,92.55,54.23Z"/><path class="cls-7" d="M18,72.66l0-.74a17.11,17.11,0,0,1-7.22-2l-.3.53a4.75,4.75,0,0,0,.07,3.09,5,5,0,0,0,.9,1.58,5.93,5.93,0,0,0,4.21,2,9.29,9.29,0,0,0,4.56-1.06l.84-.62A15.35,15.35,0,0,1,18,72.66Z"/><path class="cls-8" d="M50,21.68l.56-.47c.74-.62-.33-1.68-1.06-1.06l-.56.47C48.22,21.24,49.29,22.3,50,21.68ZM45.75,37.09l.73-.1a.75.75,0,0,0,.52-.92.77.77,0,0,0-.92-.53l-.73.11a.75.75,0,0,0-.52.92A.77.77,0,0,0,45.75,37.09Zm-6-20.82A1.93,1.93,0,0,0,41,13.79c-.33-.9-1.78-.51-1.45.4.23.62-.63.85-.68.27-.08-1-1.58-1-1.5,0A2,2,0,0,0,39.71,16.27ZM31.4,32.64a2.16,2.16,0,0,0,.52,3.89,2.42,2.42,0,0,0,3-3c-.19-1-1.64-.55-1.44.39a.92.92,0,0,1-1,1.16.65.65,0,0,1-.27-1.18C33,33.42,32.22,32.12,31.4,32.64Zm18.69-3.82a2.26,2.26,0,1,0,3.46-1.63c-.77-.58-1.52.72-.76,1.3a.76.76,0,0,1-.22,1.32c-.66.22-1-.4-1-1,.06-.41-.38-.75-.75-.75A.78.78,0,0,0,50.09,28.82Zm-18.55-10a.78.78,0,0,0,.27-1,.76.76,0,0,0-1-.27c-.07.05-.06.13-.13,0-.45-.86-1.75-.1-1.3.75A1.53,1.53,0,0,0,31.54,18.8Zm3.69-9.89.56-.47c.74-.63-.32-1.68-1.06-1.07l-.56.47C33.43,8.47,34.5,9.52,35.23,8.91Zm4.59,11.38-.72-.1a.78.78,0,0,0-.92.53.76.76,0,0,0,.52.92l.72.1a.79.79,0,0,0,.93-.53A.75.75,0,0,0,39.82,20.29ZM31.49,44.15l-.74.08A.77.77,0,0,0,30,45a.76.76,0,0,0,.75.75l.74-.08a.78.78,0,0,0,.75-.75A.75.75,0,0,0,31.49,44.15ZM59.6,23.3l.72-.1a.75.75,0,1,0-.4-1.45l-.72.11a.74.74,0,0,0-.52.92A.76.76,0,0,0,59.6,23.3ZM38.82,30.8a.76.76,0,0,0,.52.93l.73.09A.77.77,0,0,0,41,31.3a.75.75,0,0,0-.52-.92l-.73-.1A.78.78,0,0,0,38.82,30.8ZM34.7,45.27A223,223,0,0,0,65,39.58a.75.75,0,0,0-.4-1.45A222.14,222.14,0,0,1,34.7,43.77C33.76,43.89,33.75,45.39,34.7,45.27ZM65.1,31.83l.54-.5c.7-.66-.36-1.72-1.06-1.06l-.54.5C63.33,31.43,64.4,32.49,65.1,31.83ZM94.83,60a1.32,1.32,0,0,0-.54-.64,5.51,5.51,0,0,0-.64-4.63,1,1,0,0,0-.28-.29,7.1,7.1,0,0,0,1.54-2.82,4.74,4.74,0,0,0-1-4.34,5.45,5.45,0,0,0,.72-.94A6.8,6.8,0,0,0,94.14,39a6.45,6.45,0,0,0-6.38-2.37c.49-3.2-.11-6.63-1.94-8.63a1.42,1.42,0,0,0-.38-.29C77,21.69,68.13,16.35,59.31,11,55.15,8.41,51.12,5.69,47,3.12c-3.2-2-6.7-3.63-10.54-3C29.21,1.38,24.74,9.2,21,14.7,15.55,22.66,10,31,6,39.76c-1.19,2.59-2.51,5.2-2.34,8A25.28,25.28,0,0,0,4.48,53,6.12,6.12,0,0,0,0,58.65a6.86,6.86,0,0,0,4.25,6.62,7.73,7.73,0,0,0,1,.28,12.71,12.71,0,0,0,4.3,4.78,5.52,5.52,0,0,0-.1,2.77.42.42,0,0,0,0,.12c-1.26,6.65-1.56,13.12,6.7,14.27C26.3,88.92,38,86.46,48,84.33a321.58,321.58,0,0,0,34.17-9.78C88.59,72.41,98.25,68.73,94.83,60ZM6.23,47.36c7-.13,14.07-.61,21.07-1.28,1-.09,1-1.59,0-1.5-6.95.67-13.93,1.14-20.92,1.27.48-2.71,1.94-5.3,3.19-7.73a207.44,207.44,0,0,1,11-18.27c4-6.12,9.82-17.93,18.45-17.26,4.58.35,8.49,4,12.22,6.34,3.5,2.23,7.09,4.33,10.62,6.52,7.49,4.66,15,9.22,22.24,14.35a3.65,3.65,0,0,1,.49.72l0,0A91.07,91.07,0,0,1,68,37.17c-.92.29-.52,1.73.4,1.45A94.82,94.82,0,0,0,85.1,31.93c.76,3.22-.45,8-2.54,9.39-1.93,1.33-5.2,1.86-7.42,2.56-5.42,1.71-10.88,3.33-16.37,4.81-12.32,3.32-25.15,5-37.86,6.05-3.2.26-8.86,1.47-11.94.12-2.15-1-2.59-4.44-2.74-6.68A7.48,7.48,0,0,1,6.23,47.36Zm67.24,27.4C66,77.13,58.55,79.33,51,81.11a152.72,152.72,0,0,1-23.47,3.74c-3.53.26-7.37.67-10.89.15-5.39-.79-5.77-4.57-5.22-8.59a7.08,7.08,0,0,0,4.28,1.7h.43A10.6,10.6,0,0,0,20.7,77a.88.88,0,0,0,.38-.36,16,16,0,0,0,8.45,2.46,15,15,0,0,0,2.11-.15A16.24,16.24,0,0,0,41,74h0a3.91,3.91,0,0,0,3.11,1.33A6.65,6.65,0,0,0,46.2,75c.49-.16,1-.37,1.44-.57a8.17,8.17,0,0,1,2.5-.78,8.22,8.22,0,0,1,3.3.74,10.71,10.71,0,0,0,3.89.87c2.73-.07,4.77-1.94,6.74-3.76,1.66-1.53,3.25-3,5.07-3.19a23.79,23.79,0,0,0,5,1.25,15.67,15.67,0,0,0,1.91.12,11.45,11.45,0,0,0,7.39-2.46,9.22,9.22,0,0,0,2.78-4.09.83.83,0,0,0,.22,0,1,1,0,0,0,.44-.1,3.56,3.56,0,0,1,1.74-.13,9,9,0,0,0,1.56,0,4.82,4.82,0,0,0,2.61-1.19C94.8,70.21,79.26,72.91,73.47,74.76ZM11.38,72.67a4,4,0,0,1,0-1.34,18.44,18.44,0,0,0,5.7,1.5,1,1,0,0,0,.21.48,16.93,16.93,0,0,0,2.11,2,7.86,7.86,0,0,1-3.61.76,4.9,4.9,0,0,1-3.49-1.63,3.41,3.41,0,0,1-.45-.67A1.27,1.27,0,0,0,11.38,72.67Zm26-2.57a.82.82,0,0,0,.06-.25c.7-.13,1.41-.24,2.11-.33s1.63-.18,2.45-.26a14.7,14.7,0,0,1-10.63,7.66A14.08,14.08,0,0,1,19.68,73h.14a33.06,33.06,0,0,0,4.65-.35A8,8,0,0,0,37.37,70.1ZM26.42,72.28c1.65-.33,3.29-.72,4.89-1.1,1.4-.34,2.84-.67,4.28-1A6.35,6.35,0,0,1,26.42,72.28Zm15.85.22a16.89,16.89,0,0,0,1.86-3,.93.93,0,0,0,.09-.4l3.61-.23c1.79-.1,3.64-.21,5.47-.37a48.82,48.82,0,0,0,11.51-2.15,1,1,0,0,0,.43.38l1.07.45A20.46,20.46,0,0,0,62.71,70c-1.78,1.64-3.45,3.18-5.44,3.23a8.55,8.55,0,0,1-3.14-.75A10,10,0,0,0,50,71.62a9.81,9.81,0,0,0-3.13.93c-.43.18-.86.37-1.3.51-1,.35-2.36.44-3-.35A.9.9,0,0,0,42.27,72.5Zm36.37-7.64a5.55,5.55,0,0,0,2.84-6.45c.69-.09,1.4-.16,2.12-.23l.72-.07a.5.5,0,0,0,0,.13,7,7,0,0,1-2.24,7.4,10.23,10.23,0,0,1-7.77,1.89,21,21,0,0,1-4.22-1,1,1,0,0,0-.72-.26h0c-.73-.27-1.45-.56-2.17-.86a33.55,33.55,0,0,0,3.87-2.13A6.62,6.62,0,0,0,78.64,64.86ZM72.4,62.4l.25-.17c1.29-.83,2.62-1.7,4-2.42A12,12,0,0,1,80,58.64a4,4,0,0,1-2.28,5A5,5,0,0,1,72.4,62.4Zm13.91-4.52a17.46,17.46,0,0,0,3.17-.73A8.43,8.43,0,0,0,92,55.76s0,0,0,.05a3.57,3.57,0,0,1,.29,3.24A3.06,3.06,0,0,1,89.9,60.9a6,6,0,0,1-1.2,0,6.65,6.65,0,0,0-2.07.09A7.7,7.7,0,0,0,86.31,57.88ZM93,51.11a6.92,6.92,0,0,1-4.13,4.15,23,23,0,0,1-5.42.93A19.33,19.33,0,0,0,75.69,58c-1.44.77-2.8,1.66-4.13,2.52A34.29,34.29,0,0,1,65.38,64a43.77,43.77,0,0,1-12.26,2.49c-1.79.16-3.63.26-5.4.37-2.77.16-5.62.32-8.44.68a77.33,77.33,0,0,0-8.44,1.7c-1.7.4-3.47.82-5.2,1.16-4.08.79-13.6,1.8-18-4.7a7.63,7.63,0,0,0,1.44-.27,1.89,1.89,0,0,1,2.15.66,6.27,6.27,0,0,0,2.26,2,7.15,7.15,0,0,0,3.3.75,9.26,9.26,0,0,0,2.1-.24,7.77,7.77,0,0,0,3.45-1.93,2.85,2.85,0,0,0,.23-.26,1.86,1.86,0,0,1,1.78-.56,9.43,9.43,0,0,0,4.83-.32A10.06,10.06,0,0,0,33.07,63a1.78,1.78,0,0,1,2.09-.39,13,13,0,0,0,12-.47,9.34,9.34,0,0,0,2-1.59A1.79,1.79,0,0,1,51,60a9.9,9.9,0,0,0,5.2.24,9.18,9.18,0,0,0,4.48-2.49,1.82,1.82,0,0,1,2-.49,10,10,0,0,0,2.18.69,6.86,6.86,0,0,0,6.57-2.22,1.65,1.65,0,0,1,1.71-.5,4.41,4.41,0,0,0,2.39,0,5,5,0,0,0,2.11-1.37,1.78,1.78,0,0,1,1.75-.6,9.68,9.68,0,0,0,1.84.31,10.7,10.7,0,0,0,3.74-.5,6.29,6.29,0,0,0,2.76-1.46,5.05,5.05,0,0,0,.9-1.28,2,2,0,0,1,1.47-1,6.27,6.27,0,0,0,2.26-.78A2.79,2.79,0,0,1,93,51.11Zm-.09-5.81a4.53,4.53,0,0,1-3.11,2,3.94,3.94,0,0,0-3,2.13,3.28,3.28,0,0,1-.54.77,4.38,4.38,0,0,1-1.9,1,8.41,8.41,0,0,1-3,.42,6.56,6.56,0,0,1-1.45-.24,3.73,3.73,0,0,0-3.74,1.17,2.93,2.93,0,0,1-1.24.82,2.4,2.4,0,0,1-1.27,0,3.71,3.71,0,0,0-3.75,1.12A4.82,4.82,0,0,1,65.13,56a7.7,7.7,0,0,1-1.72-.54,3.75,3.75,0,0,0-4.19.92,7.27,7.27,0,0,1-3.51,2,7.91,7.91,0,0,1-4.12-.2,3.76,3.76,0,0,0-3.94,1.13,7.48,7.48,0,0,1-1.57,1.24A11,11,0,0,1,36,60.82a3.75,3.75,0,0,0-4.4.83,8,8,0,0,1-3.11,2,7.32,7.32,0,0,1-3.77.24,3.81,3.81,0,0,0-3.68,1.23l-.17.18a5.84,5.84,0,0,1-2.42,1.35,6.13,6.13,0,0,1-4.07-.34,4.52,4.52,0,0,1-1.53-1.39,3.89,3.89,0,0,0-4.37-1.42A5.55,5.55,0,0,1,5,63.4a4.87,4.87,0,0,1-3-4.65,4.11,4.11,0,0,1,3.22-3.82,5.11,5.11,0,0,0,1.06,1.4c2.32,2,7.14,1.34,9.87,1.22A207,207,0,0,0,63.26,50c4-1.13,8-2.32,12-3.57,2.75-.86,6.1-1.5,8.59-3a8.51,8.51,0,0,0,3.5-4.95,1,1,0,0,0,.65.07,4.49,4.49,0,0,1,4.57,1.6A4.79,4.79,0,0,1,92.88,45.3ZM15,60.78v.55a.75.75,0,0,0,1.5,0v-.55A.75.75,0,0,0,15,60.78Zm7.42-.8,0,.39c-.08,1,1.42,1,1.5,0l0-.39C24,59,22.53,59,22.44,60Zm-3.61.19H18.7a.75.75,0,0,0,0,1.5h.13A.75.75,0,0,0,18.83,60.17Zm63-13.11c-.79-.57-1.54.73-.76,1.29l.38.27c.79.56,1.54-.74.76-1.29Zm3.24-1.35c0,.17,0,.33,0,.49-.07,1,1.43,1,1.5,0,0-.16,0-.32,0-.49C86.63,44.75,85.13,44.76,85.05,45.71Zm3.36-2.39,0,.23a.75.75,0,0,0,1.44.4l.06-.24A.75.75,0,0,0,88.41,43.32ZM21.78,31.77a.53.53,0,0,1-.53-.2c-.66-.7-1.72.36-1.06,1.06a2,2,0,0,0,2,.59C23.12,33,22.72,31.56,21.78,31.77ZM23.31,38l-.69.22c-.92.3-.53,1.75.39,1.45l.7-.23C24.62,39.16,24.23,37.71,23.31,38ZM31,24.88c.28-.92-1.16-1.32-1.45-.4-.13.43-.47.89-1,.84-.34,0-.64-.39-.36-.69.67-.69-.39-1.75-1.06-1.06A1.91,1.91,0,0,0,28,26.69,2.46,2.46,0,0,0,31,24.88Zm-10.41,57c-.34-.89-1.79-.5-1.45.4.11.28.21.55.31.83.34.89,1.79.5,1.45-.4C20.84,82.45,20.73,82.18,20.63,81.9Zm4.23-.63v.1a.75.75,0,0,0,1.5,0v-.1A.75.75,0,0,0,24.86,81.27Zm-1.55,0c-.23-.94-1.67-.54-1.44.4l.1.41a.75.75,0,0,0,1.44-.39Z"/></g></g></svg>