<svg xmlns="http://www.w3.org/2000/svg" viewBox="0 0 63.78 127.76"><defs><style>.cls-1{fill:#ff6700;}.cls-2{fill:#5ae8fe;}.cls-3{fill:#b0b2aa;}.cls-4{fill:#c6c6c6;}.cls-5{fill:#f9a319;}.cls-6{fill:#ffe706;}.cls-7{fill:#efaeff;}.cls-8{fill:#442a11;}</style></defs><g id="Laag_2" data-name="Laag 2"><g id="objects"><path class="cls-1" d="M61.67,37.81A165.27,165.27,0,0,1,38.11,55l-.41,0a8.93,8.93,0,0,0,.66,2.36,8.17,8.17,0,0,0,7.08,4.93,13.87,13.87,0,0,0-5.18,4.18l-.09.11a4.17,4.17,0,0,1,1,1.33c5.46,5.81,1.5,14.38-4.5,17.81a9.41,9.41,0,0,1-8.51.43l0,0a14.78,14.78,0,0,0-5.86,5.53,8.6,8.6,0,0,0-4.87-5.54,6.5,6.5,0,0,0-7,1.46,14,14,0,0,0-2.85-6.25,7.36,7.36,0,0,0-6.11-2.69H1.25v24.2h.59A148.19,148.19,0,0,0,61.58,75.4h1V37.81Z"/><path class="cls-2" d="M31.89,31.75C15,31.75,1.25,27.48,1.25,22.21V53.09h.11a10.26,10.26,0,0,0,6.86-4.83A10.11,10.11,0,0,0,9.6,43.14a13.88,13.88,0,0,1-.25-2.57c.32-.29,1,1,1.24,1.28a9.18,9.18,0,0,0,8.15,2.84c3.76-.57,7-3.2,9-6.4A7.84,7.84,0,0,0,38.89,48.61,10.59,10.59,0,0,0,37.7,55l.41,0A165.27,165.27,0,0,0,61.67,37.81h.86V22.21C62.53,27.48,48.81,31.75,31.89,31.75Zm-30,71.19H1.25v4.68a3.11,3.11,0,0,0,.26,1.22c.37.53.7,1,1,1.49,3.74,4,15.48,6.83,29.38,6.83,15.33,0,28-3.51,30.29-8.09a3.29,3.29,0,0,0,.35-1.45V75.4h-1A148.19,148.19,0,0,1,1.84,102.94Z"/><path class="cls-3" d="M59.49,10.4c0,5.06-12.36,9.16-27.6,9.16s-27.6-4.1-27.6-9.16c0,6.21-3,9.7-3,11.81,0,5.27,13.72,9.54,30.64,9.54s30.64-4.27,30.64-9.54C62.53,20.11,59.49,15.25,59.49,10.4Z"/><path class="cls-4" d="M31.89,19.56c15.24,0,27.6-4.1,27.6-9.16S47.13,1.25,31.89,1.25,4.29,5.35,4.29,10.4,16.65,19.56,31.89,19.56Zm30.29,89.51c-2.25,4.58-15,8.09-30.29,8.09-13.9,0-25.64-2.88-29.38-6.83,2.53,3.92,2.68,5.76,2.68,7.55,0,5,11.45,8.63,26.7,8.63s27-3.18,27-8.17c0-2,.29-2.85,3.46-9.18Z"/><path class="cls-5" d="M38.36,57.4A8.93,8.93,0,0,1,37.7,55a10.59,10.59,0,0,1,1.19-6.43A7.84,7.84,0,0,1,27.76,38.29c-2.05,3.2-5.26,5.83-9,6.4a9.18,9.18,0,0,1-8.15-2.84c-.21-.24-.92-1.57-1.24-1.28a13.88,13.88,0,0,0,.25,2.57,10.11,10.11,0,0,1-1.38,5.12,10.26,10.26,0,0,1-6.86,4.83H1.25V78.74h.16a7.36,7.36,0,0,1,6.11,2.69,14,14,0,0,1,2.85,6.25,6.5,6.5,0,0,1,7-1.46,8.6,8.6,0,0,1,4.87,5.54,14.78,14.78,0,0,1,5.86-5.53l0,0a14.51,14.51,0,0,1-6.7-6h0a4.83,4.83,0,0,1-1-1.63l-1.87-.22c-7.58,0-12.75-12.6-6.86-17.58s17.09-3.05,21,3.43l.16,1a10.18,10.18,0,0,1,5,.19,5.82,5.82,0,0,1,2.32,1.26l.09-.11a13.87,13.87,0,0,1,5.18-4.18A8.17,8.17,0,0,1,38.36,57.4Z"/><path class="cls-6" d="M41.15,68a4.17,4.17,0,0,0-1-1.33,5.82,5.82,0,0,0-2.32-1.26,10.18,10.18,0,0,0-5-.19l-.16-1c-3.94-6.48-15.14-8.4-21-3.43S11,78.36,18.56,78.36l1.87.22a4.83,4.83,0,0,0,1,1.63h0a14.51,14.51,0,0,0,6.7,6,9.41,9.41,0,0,0,8.51-.43C42.65,82.33,46.61,73.76,41.15,68Z"/><path class="cls-7" d="M1.51,108.84a4.65,4.65,0,0,0,1,1.49C2.21,109.87,1.88,109.37,1.51,108.84Z"/><path class="cls-8" d="M34.87,69l-.44.22c-1.15.57-.14,2.3,1,1.72.15-.07.3-.14.44-.22C37,70.18,36,68.45,34.87,69Zm-.3,3.61-.66-.08a1,1,0,0,0-1,1,1,1,0,0,0,1,1l.66.08a1,1,0,0,0,1-1A1,1,0,0,0,34.57,72.64ZM10.07,11.55a73.84,73.84,0,0,1,8.69-3,1,1,0,0,0-.53-1.93,73.84,73.84,0,0,0-8.69,3C8.37,10.11,8.88,12,10.07,11.55ZM28.32,72l-.58-.29c-1.15-.58-2.16,1.15-1,1.73l.58.29C28.46,74.33,29.48,72.6,28.32,72Zm-1.66,3.77c-.29.35-.58.69-.88,1a1,1,0,0,0,0,1.42,1,1,0,0,0,1.42,0c.29-.35.58-.69.88-1a1,1,0,0,0,0-1.42A1,1,0,0,0,26.66,75.79Zm5-1.1a1,1,0,0,0-1.42,1.42l.66.66a1,1,0,0,0,1.42-1.42ZM30.94,72a1,1,0,0,0,.7-1.23c-.1-.27-.2-.54-.29-.81a1,1,0,0,0-1.23-.7,1,1,0,0,0-.7,1.23l.29.81A1,1,0,0,0,30.94,72ZM57,36l.45-.22c.87-.42.11-1.72-.76-1.3l-.45.22C55.39,35.1,56.15,36.4,57,36Zm-.26-2.92H57a.75.75,0,0,0,0-1.5h-.22A.75.75,0,0,0,56.76,33.06ZM55.31,22c.69-.68-.38-1.74-1.06-1.06l-.34.33c-.69.68.37,1.74,1.06,1.06ZM14.56,67.63a.75.75,0,0,0,0-1.5A.75.75,0,0,0,14.56,67.63ZM63.78,22.21a13.22,13.22,0,0,0-1.14-4.08,22.75,22.75,0,0,1-1.9-7.73C60.74,3.65,45.87,0,31.89,0S3,3.65,3,10.4a19.94,19.94,0,0,1-2,8.36,9.35,9.35,0,0,0-1,3.45v85.41a5.1,5.1,0,0,0,1.54,3.51c2.39,3.75,2.39,5.33,2.39,6.75,0,6.79,14.49,9.88,28,9.88,13,0,28.27-2.47,28.27-9.42,0-1.7.23-2.45,3.49-9a1.24,1.24,0,0,0,.05-1,4.15,4.15,0,0,0,.08-.79ZM31.89,2.5c15.53,0,26.35,4.17,26.35,7.9a2.7,2.7,0,0,1-.68,1.66c-3.23-4.33-9.21-5.53-14.28-6.25a71.27,71.27,0,0,0-21.13-.09c-1.27.2-.73,2.13.53,1.93a69.5,69.5,0,0,1,17.94-.17c5.09.53,12.24,1.34,15.44,5.9-3.91,2.68-12.77,4.93-24.17,4.93-15.53,0-26.35-4.17-26.35-7.91S16.36,2.5,31.89,2.5ZM2.5,53.78a11.3,11.3,0,0,0,6.88-5.61c1-2.07.92-3.78.9-5.69a11.14,11.14,0,0,0,2.14,2.07,10.51,10.51,0,0,0,6.32,1.14A12.5,12.5,0,0,0,26,41.87a8.75,8.75,0,0,0,11.22,8.44c-1.37,5.23.53,10.58,5.62,12.43A16.46,16.46,0,0,0,40,65.27,8.43,8.43,0,0,0,33.71,64a.9.9,0,0,0-.12-.24c-2.1-3.13-6-5.47-10.12-6.41a22.87,22.87,0,0,0-1-4.69c-.42-1.21-2.35-.69-1.93.53A22,22,0,0,1,21.42,57c-4.52-.5-9.05.75-11.71,4.55C5,68.26,11.17,79.84,19.43,79.3a.78.78,0,0,0,.23-.07,6,6,0,0,0,1,1.59,16.4,16.4,0,0,0,5.59,5.41,17.74,17.74,0,0,0-3.84,3.6c-2.42-4.25-7.16-6.45-11.49-3.78-1.35-4.22-3.88-7.71-8.44-8.24ZM37.55,76.49c-3,3.13-8.22,6.14-12.7,4.68a5.59,5.59,0,0,1-2.61-1.63c-.16-.26-.32-.52-.47-.79a.67.67,0,0,0-.17-.2c-1-2.42.47-5.66,2.74-7.72,3.58-3,9.85-7,14.53-4C42.48,69.22,39.72,74.23,37.55,76.49Zm4.74-4.32c1.22,4.49-1.2,9.45-5.26,12.18s-8.19,1.68-11.4-.93c4.78.75,10.14-2.23,13.33-5.52A13.78,13.78,0,0,0,42.29,72.17ZM19.19,77.3c-6.75.2-12-9.94-7.39-15.23,5-5.73,15.79-3.19,19.84,2.36a27.35,27.35,0,0,0-8.72,5C20.71,71.43,19,74.47,19.19,77.3Zm38.47,41c0,3.4-9.64,6.92-25.77,6.92-15.72,0-25.46-3.83-25.46-7.38A10.71,10.71,0,0,0,5.82,114c6.15,2.88,16.3,4.39,26.07,4.39,10.25,0,20.92-1.66,27-4.83A10,10,0,0,0,57.66,118.34Zm3.62-10.72c0,3.92-12.07,8.29-29.39,8.29-14.26,0-24.95-3-28.29-6.19-.3-.47-.63-1-1-1.5a2.09,2.09,0,0,1-.1-.6v-3.8a151.81,151.81,0,0,0,58.78-27Zm0-33.2a1.13,1.13,0,0,0-.21.12A150.46,150.46,0,0,1,2.5,101.76V79.84c4.09.62,5.95,4.37,6.9,8.11a1,1,0,0,0,1.68.44c4.13-3.6,8.62-.55,10.22,3.63a1,1,0,0,0,1.83.24,15.55,15.55,0,0,1,5.29-5,10.71,10.71,0,0,0,10.47-1.77C44.6,81,46.7,73.25,42,67.44a4.92,4.92,0,0,0-.5-.81,15.81,15.81,0,0,1,4.44-3.43c1-.51.39-1.77-.51-1.87A7,7,0,0,1,39,55.61,179.12,179.12,0,0,0,61.28,39.45Zm0-37.49a.93.93,0,0,0-.32.18A175.53,175.53,0,0,1,38.8,53.39a10.79,10.79,0,0,1,1-4.28,1,1,0,0,0-1.37-1.37,7,7,0,0,1-9.77-9,1,1,0,0,0-1.73-1c-2.92,4.16-8.25,7.9-13.46,5-1.52-.83-2.22-2.64-3.82-3.23a1,1,0,0,0-1.26,1c-.12,1.28.26,2.45.09,3.76A9,9,0,0,1,2.5,51.66V26.6C7.67,30.78,20.06,33,31.89,33s24.22-2.22,29.39-6.4ZM31.89,30.5C14.57,30.5,2.5,26.13,2.5,22.21a8.85,8.85,0,0,1,.83-2.47,27.11,27.11,0,0,0,1.79-5.26C9.67,18.61,21,20.81,31.89,20.81s22.4-2.23,26.88-6.43A42.8,42.8,0,0,0,60.3,19a13.49,13.49,0,0,1,1,3.19C61.28,26.13,49.21,30.5,31.89,30.5ZM56.11,99.2l.67.1a.78.78,0,0,0,.93-.53.76.76,0,0,0-.53-.92l-.68-.1a.78.78,0,0,0-.92.53A.76.76,0,0,0,56.11,99.2Zm-.73-75.87-.45.45A.75.75,0,0,0,56,24.84l.45-.45C57.12,23.7,56.06,22.64,55.38,23.33ZM15,69l-.48.12a.75.75,0,0,0,.4,1.45l.48-.13A.75.75,0,0,0,15,69Zm.81-5.4-.23-.12c-.86-.43-1.62.86-.76,1.3l.24.12C15.88,65.34,16.64,64.05,15.77,63.61ZM56.87,103a.75.75,0,0,0,0-1.5h-.22a.75.75,0,0,0,0,1.5Zm.12,1.76a.75.75,0,0,0,0,1.5h.22a.75.75,0,0,0,0-1.5Z"/></g></g></svg>