<svg xmlns="http://www.w3.org/2000/svg" viewBox="0 0 49.12 30.15"><defs><style>.cls-1{fill:#ffb339;}.cls-2{fill:#ff6700;}.cls-3{fill:#442a11;}</style></defs><g id="Laag_2" data-name="Laag 2"><g id="objects"><path class="cls-1" d="M25.28,2.24C12.41.19,1.66,2.14,1.27,6.59c-.6,6.75,2.05,10.23,3.79,11.76.75.66,2.41,1.84,2.86,2.73,1.26,2.48,6.17,5.82,15,7.22,7.62,1.21,12.66,0,15-1.63,1.64-1.15,2.22-2.57,4-3.47a10.78,10.78,0,0,0,6-8.89c0-.1,0-.2,0-.3C48.25,9.56,38.14,4.29,25.28,2.24ZM23.85,18.36c-8.32-1.32-15.48-4-19.4-6.92l.16-.2A48,48,0,0,1,33.9,12c3.32,1.13,6.77,2.85,8.26,5.64l0,.61C37.74,19.4,31.14,19.52,23.85,18.36Z"/><path class="cls-2" d="M42.16,17.66c-1.49-2.79-4.94-4.51-8.26-5.64a48,48,0,0,0-29.29-.78l-.16.2c3.92,2.93,11.08,5.6,19.4,6.92,7.29,1.16,13.89,1,18.33-.09Z"/><path class="cls-3" d="M27.85,24.47c0,.27.09.53.13.79.16.95,1.61.55,1.45-.4,0-.26-.09-.52-.13-.78C29.14,23.13,27.69,23.53,27.85,24.47Zm3.81-.39c-.23-.94-1.68-.54-1.45.4l.13.52c.23.94,1.67.54,1.44-.4ZM25.61,1C20.4.27,1.35-2.53.06,6.25v.07a.75.75,0,0,0,0,.26c0,.12,0,.23,0,.35s0,.15,0,.23C-.21,18.46,9.55,26.71,20,29c5.6,1.24,13.36,2.19,18.43-1.28s9.7-7.14,10.59-13.4C50.36,5.44,30.9,1.94,25.61,1ZM38,24.88C33,29,24.89,27.75,19.15,26.24c-6.82-1.8-13.27-6.82-15.66-13.41C9.06,17,19.73,19,23.51,19.56s14.29,2.1,20.65-.17A39.3,39.3,0,0,1,38,24.88Zm-30.94-13a45.58,45.58,0,0,1,15.49-1.07c5.7.6,13.94,1.89,17.87,6.64-6,.88-14.53,0-16.26-.3a61.56,61.56,0,0,1-11.66-3A46.72,46.72,0,0,1,7.08,11.88Zm36,5c-3.63-5.28-10.72-7-16.69-8A49.18,49.18,0,0,0,4.32,10,4.94,4.94,0,0,1,2.8,7.9C.47.71,22,3,24.94,3.44a58.86,58.86,0,0,1,14.11,4c2.13,1,6.47,2.81,7.27,5.29C47,14.82,45.56,16.11,43.12,16.87ZM32.7,23.48V24a.75.75,0,0,0,1.5,0v-.53A.75.75,0,0,0,32.7,23.48Z"/></g></g></svg>