<svg xmlns="http://www.w3.org/2000/svg" viewBox="0 0 117.57 98.18"><defs><style>.cls-1{fill:#e5ab3e;}.cls-2{fill:#966656;}.cls-3{fill:#fd3200;}.cls-4{fill:#fdd782;}.cls-5{fill:#c8da53;}.cls-6{fill:#fffeca;}.cls-7{fill:#4fbf37;}.cls-8{fill:#442a11;}</style></defs><g id="Laag_2" data-name="Laag 2"><g id="objects"><path class="cls-1" d="M112.77,32.67a34.7,34.7,0,0,0-12.06-16.4c-25.61-5-39.54,10.23-47.64,23.46-5.18,8.49-8.82,17.8-12.5,27a67.43,67.43,0,0,1-8.63,15.21c-3.81,5-9.29,11.93-15.32,14.66v0c13.15,2.15,30.92-4.44,42.65-9.48,7.62-3.27,43.41-17.08,49.94-20.87C118.94,60.59,117.1,44.72,112.77,32.67Z"/><path class="cls-2" d="M94.93,3.36c-2.67-1.63-8,5.55-9.54,7v.15a27.41,27.41,0,0,1,5.2.86C91.68,10.05,98,5.24,94.93,3.36Zm9.49,6.85a10,10,0,0,0-2,.52c-2.13.6-5.44,1.57-7.57,2.17a29.25,29.25,0,0,1,3.68,1.92h0c1.18-.34,6.48-1.26,7-2.38S106.19,10.15,104.42,10.21Z"/><path class="cls-3" d="M66,15.84a6.32,6.32,0,0,0-1.27-1.46A5.88,5.88,0,0,0,58,14a8.43,8.43,0,0,0-1.91,1.34,8.14,8.14,0,0,0-2,2.86l-.58.21a7.28,7.28,0,0,1,3.18,4.23l.63.59A45.22,45.22,0,0,1,66,15.87Z"/><path class="cls-4" d="M98.55,14.82a29.25,29.25,0,0,0-3.68-1.92,28.28,28.28,0,0,0-4.29-1.49,27.41,27.41,0,0,0-5.2-.86l-.63,0,0-.3C77.14-2.12,51.34-2.12,32.39,12.86,18.87,23.54,10.84,39.5,5.67,55.59c-4.33,13.46-9.31,33.64,6,39.68a23.63,23.63,0,0,0,5,1.34v0c6-2.73,11.51-9.61,15.32-14.66a67.43,67.43,0,0,0,8.63-15.21c3.68-9.19,7.32-18.5,12.5-27,8.1-13.23,22-28.51,47.64-23.46A25.45,25.45,0,0,0,98.55,14.82ZM57.36,23.23c-.62.68-1.24,1.38-1.85,2.12S54.1,27.09,53.42,28c-1.53,2-3,4-4.34,6.13q-1.77,2.68-3.37,5.46c-1.37,2.35-2.67,4.75-3.9,7.18-2.7,5.28-5.12,10.71-7.46,16.13L32.9,66.24c-2.64,6.18-5.57,13.24-10.83,17.94-3.52,3.15-10.34,0-11.06-3.86l.27,0c2.9-2.75-1.47-9.89.61-13.38,1.65-2.77,4.6-2.09,6.66-4.4,1.42-1.57,2-3.16,2.95-4.52l.17-.36a7.86,7.86,0,0,1-2.67-2c-1.73-2.14-3.69-4.46-2.61-7.39.73-2,2.21-1.84,3.44-3.15,1.45-1.56.94-1.59,1.32-3.5.62-3.11,1.11-6.1,5-6.86a6.44,6.44,0,0,1,7.2,4.44l.47.21a13.77,13.77,0,0,0,.92-7.54l-.19,0a18.2,18.2,0,0,0-3.74-.79,3.13,3.13,0,0,1-2-.3A1.26,1.26,0,0,1,28.36,29a1.85,1.85,0,0,1,1.15-.46l4.66-.71h.13c-.08-2.46.51-4.57,3.24-5.69a21.79,21.79,0,0,1-2.66-1.08A1.86,1.86,0,0,1,34,19.48c0-.79.77-1.47.66-2.26l9.32,2.21.38.32a8.21,8.21,0,0,1,3.28-2.19,7.38,7.38,0,0,1,6,.85l.58-.21a8.14,8.14,0,0,1,2-2.86A8.43,8.43,0,0,1,58,14a5.88,5.88,0,0,1,6.65.38A6.32,6.32,0,0,1,66,15.84l0,0A45.22,45.22,0,0,0,57.36,23.23Z"/><path class="cls-5" d="M56.73,22.64a7.28,7.28,0,0,0-3.18-4.23,7.38,7.38,0,0,0-6-.85,8.21,8.21,0,0,0-3.28,2.19,9.72,9.72,0,0,1-1.45,1.11c-1.74,1.06-3.25.49-5,1.14l-.31.13c-2.73,1.12-3.32,3.23-3.24,5.69,0,1,.16,2,.3,3.07,0,.32.08.63.11.95a13.77,13.77,0,0,1-.92,7.54l-.47-.21a6.44,6.44,0,0,0-7.2-4.44c-3.86.76-4.35,3.75-5,6.86-.38,1.91.13,1.94-1.32,3.5-1.23,1.31-2.71,1.16-3.44,3.15-1.08,2.93.88,5.25,2.61,7.39a7.86,7.86,0,0,0,2.67,2,23.65,23.65,0,0,0,6.56,1.86,15.12,15.12,0,0,1,3.49.71A3.51,3.51,0,0,1,34,62.72l.35.15c2.34-5.42,4.76-10.85,7.46-16.13l-.42-.22c-1.17.57-10.44,6.06-9.9,2,.14-1,5.22-3.15,6.32-3.82,2-1.22,6-3.75,7.9-5.14q1.6-2.78,3.37-5.46L48.85,34a80.74,80.74,0,0,1-8.26,2.14,2,2,0,0,1-.24-2.65,5,5,0,0,1,2.44-1.6c1.08-.42,2.2-.77,3.31-1.12s2.07-.67,3.07-1.07a15.58,15.58,0,0,0,3.8-2l.45.34c.68-.88,1.37-1.76,2.09-2.62s1.23-1.44,1.85-2.12Z"/><path class="cls-6" d="M34.88,21.05a21.79,21.79,0,0,0,2.66,1.08l.31-.13c1.76-.65,3.27-.08,5-1.14a9.72,9.72,0,0,0,1.45-1.11l-.38-.32-9.32-2.21c.11.79-.62,1.47-.66,2.26A1.86,1.86,0,0,0,34.88,21.05Zm-.17,10.79c0-.32-.07-.63-.11-.95-.14-1.06-.27-2.09-.3-3.07h-.13l-4.66.71a1.85,1.85,0,0,0-1.15.46,1.26,1.26,0,0,0,.41,1.78,3.13,3.13,0,0,0,2,.3,18.2,18.2,0,0,1,3.74.79ZM53,27.63a15.58,15.58,0,0,1-3.8,2c-1,.4-2,.73-3.07,1.07s-2.23.7-3.31,1.12a5,5,0,0,0-2.44,1.6,2,2,0,0,0,.24,2.65A80.74,80.74,0,0,0,48.85,34l.23.15C50.44,32,51.89,30,53.42,28ZM31.49,48.52c-.54,4.06,8.73-1.43,9.9-2l.42.22c1.23-2.43,2.53-4.83,3.9-7.18-1.92,1.39-5.87,3.92-7.9,5.14C36.71,45.37,31.63,47.49,31.49,48.52Z"/><path class="cls-7" d="M34,62.72a3.51,3.51,0,0,0-2.28-2.54,15.12,15.12,0,0,0-3.49-.71,23.65,23.65,0,0,1-6.56-1.86L21.5,58c-.95,1.36-1.53,3-2.95,4.52-2.06,2.31-5,1.63-6.66,4.4-2.08,3.49,2.29,10.63-.61,13.38l-.27,0c.72,3.89,7.54,7,11.06,3.86,5.26-4.7,8.19-11.76,10.83-17.94l1.45-3.37Z"/><path class="cls-8" d="M66.64,73.12a.76.76,0,1,1-1.47,0c.08-1-1.43-1-1.5,0a2.25,2.25,0,1,0,4.41-.38C67.89,71.77,66.44,72.17,66.64,73.12Zm2.93-11.88L68.62,61a.75.75,0,0,0-.4,1.45l1,.25A.75.75,0,0,0,69.57,61.24Zm4.51,9.55c-.79-.55-1.54.75-.76,1.3l.8.56c.79.55,1.54-.75.76-1.3Zm5.73-9.55a.75.75,0,0,0-.39,1.44,1.52,1.52,0,0,1,1,2.16,1.14,1.14,0,0,1-2.13-.36c-.1-1-1.6-1-1.5,0a2.63,2.63,0,0,0,4.53,1.63A3,3,0,0,0,79.81,61.24ZM70.94,50.63l-1-.24a.75.75,0,0,0-.39,1.44l.94.25A.75.75,0,0,0,70.94,50.63Zm12-.29-.23.95c-.22.94,1.23,1.34,1.45.4.07-.32.15-.64.22-.95C84.63,49.8,83.18,49.4,83,50.34ZM43.6,13.08l.74-.34a.74.74,0,0,0,.27-1,.76.76,0,0,0-1-.27l-.75.33a.76.76,0,0,0-.27,1A.77.77,0,0,0,43.6,13.08Zm57.11,14.63a.75.75,0,0,0,0-1.5A.75.75,0,0,0,100.71,27.71Zm15.91,14.16c-2-10.42-6.84-20.39-15.19-26.57,2.26-.62,5.67-1.65,5.17-4.38-.23-1.28-1.48-1.57-2.62-1.4-2.71.4-5.5,1.55-8.13,2.29a.76.76,0,0,0-.18.09c-.83-.38-1.68-.72-2.56-1l-.72-.22c2.4-2.34,6.43-6.37,2.69-8-1.83-.82-3.8.75-5.11,1.87a55.87,55.87,0,0,0-4.43,4.68C78-1.48,62.26-1.28,51,1.94,33.63,6.89,20.69,20.1,12.48,35.76,5.75,48.61-1.19,65.7.17,80.54,1.6,96.07,16,99.62,29.42,97.72c13.83-2,26.52-8,39.36-13.12,12-4.79,24-9.41,35.74-14.68C108.7,68,112.7,66.18,115,62,118.38,56,117.86,48.38,116.62,41.87ZM105.08,11.49c.44,1.38-4.09,2.36-5,2.6a.84.84,0,0,0-.23.12c-.76-.49-1.54-1-2.35-1.38C100,12,104.77,10.49,105.08,11.49Zm-16-4c1.15-1.22,2.81-3.23,4.56-3.53,2.82-.49.37,2.93-.33,3.71s-1.71,1.66-2.55,2.51a30.85,30.85,0,0,0-3.47-.69C87.84,8.8,88.43,8.12,89,7.47Zm25.76,46.8C114,60.64,110.62,64.35,105,67c-5,2.34-10.12,4.41-15.22,6.5-9.89,4-19.87,7.89-29.73,12C46.71,91,30.46,98.35,15.65,95.17-1.67,91.46,2.09,71.84,5.85,59.23c5.47-18.36,14.53-37.26,31-48.09,11.46-7.52,35-14.66,45.58-1.9a28.67,28.67,0,0,0-4.35.49c-8.34-6.82-21.83-3.3-30.69.25-.89.36-.5,1.81.4,1.45,8-3.21,20.43-6.78,28.38-1.27a33.78,33.78,0,0,0-6.92,2.64c.07-.15.14-.31.22-.46a4.43,4.43,0,0,0,.56-1.65,2,2,0,0,0-1.77-2c-2.49-.33-3.08,2.18-3.59,4.16a6.54,6.54,0,0,0-4.12-.93,8.66,8.66,0,0,0-2.73.77.72.72,0,0,0-.32-.24c-1.19-.46-1.94-1.62-3.22-1.92a2.3,2.3,0,0,0-2.36.78c-1.32,1.8.86,3.17,2.45,4a9.11,9.11,0,0,0-1,1.53,8.65,8.65,0,0,0-6.14-.54,8.45,8.45,0,0,0-3.44,2.17l-.09.08-8.9-2.11a.75.75,0,0,0-1,.72c-.07,1.26-1,2-.4,3.32A3,3,0,0,0,35.25,22,6.38,6.38,0,0,0,33,27.23c-1.25.18-2.49.35-3.73.58-.91.17-1.78.57-1.91,1.6a2.18,2.18,0,0,0,1.29,2.16c1.27.6,2.64,0,3.94.26a.73.73,0,0,0,.78-.29,17.08,17.08,0,0,1,0,5,7.71,7.71,0,0,0-7.5-3c-4.58.91-5.28,4.48-5.9,7.62l0,.22a12.71,12.71,0,0,0-.19,1.38c-.06.63-.06.71-.81,1.51a4.36,4.36,0,0,1-1.18.84,4.84,4.84,0,0,0-2.52,2.73c-1.3,3.52.9,6.26,2.67,8.45l.13.17A8,8,0,0,0,20,58.08c-.17.29-.34.57-.5.86a14,14,0,0,1-1.83,2.72,6.23,6.23,0,0,1-2.69,1.57,7.08,7.08,0,0,0-4.11,3c-1.23,2-.72,4.77-.24,7.41A13.18,13.18,0,0,1,11,78.34a1.06,1.06,0,0,0-1.26,1.18c.45,4.42,4.94,7.54,9.32,7.18,5.86-.49,9.72-8.48,11.94-13,7.93-16.24,13.66-33.35,25.44-47.44C66.48,14.18,82.64,7,97.33,15.54,109.93,22.85,116.61,40.12,114.8,54.27ZM68.21,11.58c-.33.73-.68,1.45-1,2.18a1,1,0,0,0-.05.23l-.68.41c-.15-.19-.31-.35-.47-.52.27-1.22.38-2.92,1.44-3.52.24-.13.69-.29,1-.08C68.81,10.64,68.37,11.22,68.21,11.58ZM50.49,29.86c-.84,1.17-1.65,2.35-2.44,3.55-1.61.49-3.24,1-4.88,1.34-.62.15-4.38,1.32-1.35-1.64A9.42,9.42,0,0,1,44.6,32C46.6,31.31,48.6,30.71,50.49,29.86Zm-7.2-1.2c-.91-.49-2.53-1.53-.27-1.48a8.71,8.71,0,0,1,4.84,2.12q-.81.3-1.65.57A19.53,19.53,0,0,1,43.29,28.66Zm6.18,0s0-.07-.09-.09C47.25,27,43,24.06,40.32,26.42c-1.84,1.63,1.29,3.28,3.61,4.21l-.14.05c-1.63.57-3.82,1.24-4.43,3.09-.32,1-.11,2.65,1,3,.86.29,2.8-.52,3.64-.73s1.86-.48,2.78-.74q-.7,1.14-1.41,2.31a.71.71,0,0,0-.56-.13c-2.46.4-7.44-.17-8.62,2.66-.91,2.16.87,2.7,2.69,2.82-1.79,1.07-3.62,2.07-5.49,3.09-1.32.73-3.74,2.1-2.33,3.95,1.56,2,5.69,0,8.5-1.64-1.89,3.84-3.66,7.74-5.37,11.66l-.11.26A5.5,5.5,0,0,0,32.19,59a12.43,12.43,0,0,0-3.08-.7l-.69-.1c-4.14-.62-7.22-1.85-8.45-3.38l-.13-.17c-1.87-2.31-3-4-2.28-6A2.44,2.44,0,0,1,19,47.25a6.9,6.9,0,0,0,1.77-1.31,4.12,4.12,0,0,0,1.48-3,10.56,10.56,0,0,1,.16-1.12l0-.22c.64-3.24,1.14-5.1,3.94-5.66a5.19,5.19,0,0,1,5.76,3.56c0,.05.05.08.07.13a8.63,8.63,0,0,1-2.08,2.24,1.25,1.25,0,0,0,1.5,2c4.83-3.64,4.8-8.94,4.22-13.16s-.53-6.45,2.45-7.54a6.37,6.37,0,0,1,1.82-.32,7.08,7.08,0,0,0,3.41-.93,12.76,12.76,0,0,0,2-1.55,6.15,6.15,0,0,1,2.46-1.62A6.16,6.16,0,0,1,55.53,23a1.16,1.16,0,0,0,.2.4c-1.07,1.16-2.1,2.36-3.07,3.59l-.07,0A17.17,17.17,0,0,1,49.47,28.67ZM41.32,41.5h0a25.26,25.26,0,0,1-2.61,0c-.29,0-1,0-1.19-.34-.3-.52.59-1.05.95-1.21,1.85-.83,4.09-.72,6.11-1l-.6,1a.59.59,0,0,0-.64.07C42.67,40.61,42,41.06,41.32,41.5Zm1.36.93c-.63,1.18-1.26,2.36-1.86,3.55-1.1.56-2.17,1.17-3.29,1.7-.74.36-4.25,2.29-5.08,1.54S36.2,46.36,36.87,46A43.53,43.53,0,0,0,42.68,42.43ZM13,73.2c-.4-2.18-.82-4.43-.07-5.67a4.78,4.78,0,0,1,2.85-2,8.52,8.52,0,0,0,3.66-2.24,16.31,16.31,0,0,0,2.15-3.17l.57-1A27.49,27.49,0,0,0,28,60.71l.73.1a10.08,10.08,0,0,1,2.47.53,2.32,2.32,0,0,1,1.53,1.57,1.06,1.06,0,0,0,.1.3c-1.6,3.8-3.19,7.62-5.12,11.25a30.1,30.1,0,0,1-5,7.24c-1.42,1.41-2.44,2.25-4.38,2.36-2.26.12-4.95-1.07-5.9-3.29C14.08,78.83,13.56,76,13,73.2Zm22-54.69c0-.14.07-.27.11-.38l7,1.66a4.73,4.73,0,0,1-2.32.58,8.81,8.81,0,0,0-2.49.46L37,21l-.14-.06C35.17,20.55,34.66,20.15,35.08,18.51Zm20.39-.2a7,7,0,0,1,5.35-3.88,4.06,4.06,0,0,1,3.51,1.35,51.69,51.69,0,0,0-6.7,5.62A8.56,8.56,0,0,0,55.47,18.31Zm-1.25-4.8c-.55-.32-1.8-1.34-.51-1.53.69-.1,1.47.73,2,1.1a7.39,7.39,0,0,0,.71.48,9.4,9.4,0,0,0-.87.69Zm-20.94,17a.64.64,0,0,0-.25-.11,7.72,7.72,0,0,0-2.25-.07c-.56,0-2.88-.24-1.23-1a9,9,0,0,1,2.28-.35l1.26-.19C33.14,29.34,33.21,29.93,33.28,30.5Zm7.91,33c-3.55,8.16-7.57,16-13.72,22.54-.67.71.39,1.77,1.06,1.06,6.24-6.61,10.36-14.57,13.95-22.84C42.87,63.35,41.57,62.59,41.19,63.47Zm16.44,3.88c-.46-.85-1.76-.09-1.29.75l.47.86c.46.84,1.76.09,1.29-.76C58,67.91,57.79,67.63,57.63,67.35ZM44.12,58.19a.76.76,0,0,0-.92.52l-.45,1.07a.75.75,0,1,0,1.45.4l.45-1.07A.76.76,0,0,0,44.12,58.19Zm59-28-.24.13c-.84.47-.09,1.77.76,1.3l.23-.14A.75.75,0,0,0,103.07,30.19ZM24,47.41l-.21-.11A.75.75,0,0,0,23,48.59l.21.12C24.05,49.18,24.81,47.88,24,47.41ZM51.32,21.58a.76.76,0,0,0-.75.75l0,.18a.77.77,0,0,0,.75.75.75.75,0,0,0,.75-.75l0-.18A.78.78,0,0,0,51.32,21.58ZM25.75,45l-.3-.08a.75.75,0,0,0-.4,1.44l.3.09A.75.75,0,0,0,25.75,45ZM49,22a.75.75,0,0,0-1.44.4l.12.42a.75.75,0,0,0,1.45-.4ZM16.91,71.33l.36,0a.78.78,0,0,0,.75-.75.75.75,0,0,0-.75-.75l-.36,0a.77.77,0,0,0-.75.75A.75.75,0,0,0,16.91,71.33Zm-.09,3.93.46-.12a.75.75,0,0,0-.4-1.45l-.46.12A.75.75,0,0,0,16.82,75.26Zm4.89-25.75a.76.76,0,0,0-1.06,0,.75.75,0,0,0,0,1.06l.41.32a.78.78,0,0,0,1.06,0,.76.76,0,0,0,0-1.06Zm66.8,7.92-.94-.25a.75.75,0,0,0-.4,1.45l.94.25A.75.75,0,0,0,88.51,57.43Zm11.11,1.38a.75.75,0,0,0-.4,1.44,1.5,1.5,0,0,1,1,2.15,1.14,1.14,0,0,1-2.13-.35c-.1-.95-1.6-1-1.5,0a2.64,2.64,0,0,0,4.53,1.63A3,3,0,0,0,99.62,58.81ZM91.42,15C67.81,13,53.15,35.35,45.06,54.28c-.38.88.92,1.65,1.3.76,7.88-18.47,22-40.55,45.06-38.55C92.38,16.57,92.37,15.07,91.42,15Zm14.65,22.68a.75.75,0,0,0,.92.52l.72-.27a.78.78,0,0,0,.52-.92.76.76,0,0,0-.92-.53l-.72.28A.77.77,0,0,0,106.07,37.67ZM18.75,68.37l.34.09a.75.75,0,0,0,.4-1.44l-.34-.09A.75.75,0,0,0,18.75,68.37ZM105.32,35l.6-.27a.76.76,0,0,0,.27-1,.77.77,0,0,0-1-.27l-.6.27a.75.75,0,0,0,.76,1.29Z"/></g></g></svg>