<svg xmlns="http://www.w3.org/2000/svg" viewBox="0 0 50 28.03"><defs><style>.cls-1{fill:#ffb339;}.cls-2{fill:#442a11;}.cls-3{fill:#fdd782;}</style></defs><g id="Laag_2" data-name="Laag 2"><g id="Layer_1" data-name="Layer 1"><path class="cls-1" d="M43.27,7.36V7.2c-.08-1-1.47-1.41-2.22-1.86A4.58,4.58,0,0,0,40,4.81a4.77,4.77,0,0,0-1.31-.1c-1.72,0-4-.34-5.4.87v0c.73.2,1.65.25,1.89.33,1.26.42,2.08,1.42,3.52,1.16a6.37,6.37,0,0,1,1.78-.29c.66.08,1.24.46,1.89.57A2.75,2.75,0,0,0,43.27,7.36Zm6.19,0c.37.74-.25,1.47-.74,2a7.57,7.57,0,0,1-5.44,2.75L40.46,12a14.34,14.34,0,0,1-3.4-.36c-1.4-.39-2.68-1.19-4.14-1.39a7.84,7.84,0,0,1-3.77-1.48,3.54,3.54,0,0,1-1.24-2.7,4.63,4.63,0,0,1,1-2.82,3.6,3.6,0,0,1,2.34-1.45,10,10,0,0,0,1.62-.47c.46-.18.81-.5,1.28-.68A6.63,6.63,0,0,1,37.52.61L39.81,1l.38.06a18.9,18.9,0,0,1,2.47.48,9.75,9.75,0,0,1,5.5,3.87c.25.39.44.82.68,1.2A8.94,8.94,0,0,1,49.46,7.36ZM41.53,9.9a.22.22,0,0,0,.07-.31.22.22,0,0,0-.32-.05.22.22,0,0,0-.07.31A.23.23,0,0,0,41.53,9.9ZM38.45,3.21a.22.22,0,0,0,.08-.31.22.22,0,0,0-.32,0,.23.23,0,0,0-.08.31A.23.23,0,0,0,38.45,3.21Zm-2.28-.28s0,0,0,0a0,0,0,0,0,0,0,0,0,0,0,0,0,0S36.16,2.94,36.17,2.93ZM34.08,8a.22.22,0,0,0,.08-.31.23.23,0,0,0-.32-.06.22.22,0,1,0,.24.37ZM31.15,6.87s0,0,0,0h0s0,0,0,0S31.14,6.89,31.15,6.87Z"/><path class="cls-2" d="M34.35,7.53h0l0,0c-.39-.38-1.08.16-.74.63a.49.49,0,0,0,.82-.54ZM31.1,6.59a.28.28,0,1,0,.22.07A.22.22,0,0,0,31.1,6.59ZM36,3.25a.36.36,0,0,0,.39-.59.29.29,0,0,0-.29-.1A.36.36,0,0,0,36,3.25Zm2.58.18a.49.49,0,0,0,.17-.66l0,0h0l0,0c-.39-.38-1.08.17-.74.64A.49.49,0,0,0,38.58,3.43ZM49.85,7.17a2.48,2.48,0,0,0-.41-.54,2.39,2.39,0,0,1-.23-.28c-.11-.17-.2-.35-.3-.53a6.71,6.71,0,0,0-.4-.68,10.16,10.16,0,0,0-5.73-4A19.12,19.12,0,0,0,40.25.6L37.59.19A7.07,7.07,0,0,0,34,.27a4,4,0,0,0-.74.39,3.73,3.73,0,0,1-.55.3,9,9,0,0,1-1.55.44A4,4,0,0,0,28.61,3a5,5,0,0,0-1.12,3.08,3.89,3.89,0,0,0,1.39,3,8.37,8.37,0,0,0,4,1.58,10.14,10.14,0,0,1,2.37.74,13.5,13.5,0,0,0,1.72.63,13.94,13.94,0,0,0,3.5.37l2.82.07h.13c2.4,0,4.39-1.56,5.64-2.88C49.43,9.21,50.36,8.23,49.85,7.17ZM48.41,9.05a7.31,7.31,0,0,1-5,2.61h-.11l-2.82-.07a13.37,13.37,0,0,1-3.29-.34,14,14,0,0,1-1.63-.59A10.36,10.36,0,0,0,33,9.85a7.61,7.61,0,0,1-3.55-1.39,3.06,3.06,0,0,1-1.08-2.37,4.22,4.22,0,0,1,.94-2.56,3.16,3.16,0,0,1,2.09-1.3,10.66,10.66,0,0,0,1.7-.48,7,7,0,0,0,.67-.36,3.42,3.42,0,0,1,.59-.32A3.94,3.94,0,0,1,35.7.85,12,12,0,0,1,37.46,1l2.28.35.38.06a20,20,0,0,1,2.43.47,9.3,9.3,0,0,1,5.25,3.7,7,7,0,0,1,.35.61c.1.19.21.39.33.58a3.35,3.35,0,0,0,.33.4,1.81,1.81,0,0,1,.27.34C49.31,8,48.89,8.54,48.41,9.05ZM46.55,7.71a.43.43,0,0,0-.38.48A.43.43,0,0,1,46,8.6a.45.45,0,0,1-.46-.06.42.42,0,0,0-.58.62,1.27,1.27,0,0,0,.86.33,1.3,1.3,0,0,0,.58-.14A1.26,1.26,0,0,0,47,8.08.43.43,0,0,0,46.55,7.71ZM39,9.39a.42.42,0,0,1-.45.11.42.42,0,0,1-.27-.38.42.42,0,0,0-.43-.42h0a.43.43,0,0,0-.43.43,1.28,1.28,0,0,0,.83,1.17,1.26,1.26,0,0,0,.43.08,1.27,1.27,0,0,0,1-.45.41.41,0,0,0,0-.59A.42.42,0,0,0,39,9.39Zm6.46-3.24a.42.42,0,0,0-.21-.56.43.43,0,0,0-.57.2,2.05,2.05,0,0,1-1.07,1C43.36,6,42.51,5.6,41.81,5.26c-.2-.1-.39-.19-.54-.28a4.85,4.85,0,0,0-1.19-.57,5.11,5.11,0,0,0-1.43-.13c-.32,0-.67,0-1,0-1.53,0-3.25-.09-4.51.87-.25-.08-.4-.16-.43-.25s0-.08.11-.22a.42.42,0,0,0-.08-.6.44.44,0,0,0-.6.08,1,1,0,0,0-.22,1.07c.29.69,1.39.89,2.59,1l.51.08a6.93,6.93,0,0,1,1.1.52,3.69,3.69,0,0,0,2.63.65,4.76,4.76,0,0,0,.57-.13,3,3,0,0,1,1.08-.14,3.51,3.51,0,0,1,.9.26,4.78,4.78,0,0,0,1,.3,2.59,2.59,0,0,0,.48,0A3.05,3.05,0,0,0,45.47,6.15ZM42.39,7a3.85,3.85,0,0,1-.8-.25,4.86,4.86,0,0,0-1.12-.32,3.85,3.85,0,0,0-1.38.17c-.17,0-.34.09-.51.12a3,3,0,0,1-2.07-.56,7.91,7.91,0,0,0-1.24-.59,4.07,4.07,0,0,0-.67-.11l-.17,0a9.25,9.25,0,0,1,3.18-.27c.36,0,.71,0,1,0a4.56,4.56,0,0,1,1.18.09,5,5,0,0,1,1,.48c.18.11.39.21.6.32a2.94,2.94,0,0,1,1.34,1A2.43,2.43,0,0,1,42.39,7Zm-.6,2.45h0l0,0A.5.5,0,0,0,41,10a.51.51,0,0,0,.66.11.48.48,0,0,0,.16-.66Z"/><path class="cls-1" d="M7.29,14.47a5.9,5.9,0,0,0,.82.34l2.17.76a3.15,3.15,0,0,0,.8.21,7.41,7.41,0,0,0,1.05-.07,6.6,6.6,0,0,1,3.66,1.22h0a6.49,6.49,0,0,0-.9.84,5.27,5.27,0,0,0-1.29,3.43h0c-1.72-.49-3.56-1-5.26-.4A2.42,2.42,0,0,1,7,21.05c-.62-.16-.9-.88-1.39-1.3-.79-.69-2-.51-3-.86a3.4,3.4,0,0,1-2.15-3,4.07,4.07,0,0,1,1.3-3.21A8.35,8.35,0,0,1,4,11.38a9.5,9.5,0,0,1,4.47-1.15c1.14.08,2.26.58,3.39.41a14,14,0,0,1,3.66-.09,12.88,12.88,0,0,1,6.66,2.81l.07.14-.47.24-3.44,1.73-.58.29-.12-.22L15,14.26a5.84,5.84,0,0,0-1.22-.48,5.79,5.79,0,0,0-1.25-.06l-1.42,0a6.89,6.89,0,0,0-3.34.65ZM16.8,13a.23.23,0,0,0-.09-.3.22.22,0,0,0-.29.11.22.22,0,0,0,.09.3A.23.23,0,0,0,16.8,13ZM8.12,17.57a0,0,0,0,0,0,0,0,0,0,0,0,0,0s0,0,0,0S8.1,17.57,8.12,17.57Z"/><path class="cls-3" d="M31.57,13.62l-2.88-.75a5.05,5.05,0,0,0-2.53.08c-.68.11-1.13-.19-1.81-.13a6.47,6.47,0,0,0-2.13.68l-.47.24-3.44,1.73-.58.29a12.61,12.61,0,0,0-1.93,1.18,6.49,6.49,0,0,0-.9.84,5.27,5.27,0,0,0-1.29,3.43,4.22,4.22,0,0,0,.56,2.14A3.4,3.4,0,0,0,16.5,25a6.34,6.34,0,0,0,1.79-.07l2.33-.33a14.21,14.21,0,0,0,2.32-.46,13.3,13.3,0,0,0,2.78-1.37L30.43,20a5.82,5.82,0,0,0,1.43-1,6.09,6.09,0,0,0,1.21-2.84,2.21,2.21,0,0,0,0-1.68A2.27,2.27,0,0,0,31.57,13.62ZM17.22,22.48l0,0s0,0,0,0a.38.38,0,0,1,0,.08A0,0,0,0,0,17.22,22.48Zm4-6.75a.23.23,0,0,1,.29-.11.21.21,0,0,1,.09.3.22.22,0,0,1-.29.11A.23.23,0,0,1,21.17,15.73Zm-1.68,1s0,0,0,0a0,0,0,0,1,0,0s0,0,0,0S19.47,16.76,19.49,16.76ZM27.35,20a.22.22,0,0,1-.29.1.2.2,0,0,1-.09-.29.21.21,0,0,1,.29-.11A.22.22,0,0,1,27.35,20Zm-.55-2.49c-.6.23-1.27.18-1.86.44a5.78,5.78,0,0,0-1.34,1.08c-1.07.9-2.24.46-3.49.71-.24.05-1,.45-1.73.64v0c.6-1.71,2.51-2.33,4.06-2.86,1.19-.41,4.07-2,5.07-.57l.1.1A2.3,2.3,0,0,1,26.8,17.54ZM7,24.35a.8.8,0,0,0-.34,1.09A.83.83,0,1,0,7,24.35Zm30.55-8.59a.5.5,0,1,0-.58.82.52.52,0,0,0,.73-.11A.51.51,0,0,0,37.56,15.76Z"/><path class="cls-2" d="M5.71,15.55a.44.44,0,0,0-.58.19.4.4,0,0,1-.37.21.41.41,0,0,1-.33-.29.44.44,0,0,0-.52-.31.43.43,0,0,0-.31.52,1.24,1.24,0,0,0,1.06.92h.13a1.27,1.27,0,0,0,1.11-.68A.42.42,0,0,0,5.71,15.55Zm6.55,10.83a.88.88,0,1,0,1.23.32A.92.92,0,0,0,12.26,26.38Zm.24.87c-.12-.24.26-.42.4-.2S12.61,27.48,12.5,27.25Zm3.91-13.9a.48.48,0,0,0,.61-.21.48.48,0,0,0-.18-.65l-.05,0h-.06A.48.48,0,0,0,16.41,13.35ZM8.2,17.2a.29.29,0,0,0-.29.05.36.36,0,1,0,.29-.05Zm29.49-1.66a.76.76,0,1,0-.84,1.26.79.79,0,0,0,1.08-.2A.76.76,0,0,0,37.69,15.54Zm-.2.8c-.22.25-.6-.08-.43-.34S37.7,16.09,37.49,16.34Zm2.69.84a.36.36,0,0,0-.22.2s0,0,0,.05l0,.07a.6.6,0,0,0,.17.6.56.56,0,0,0,.76,0C41.26,17.7,40.69,17,40.18,17.18ZM6.84,24.05A1.13,1.13,0,1,0,8,26a1.13,1.13,0,1,0-1.11-2ZM7,25.27c-.27-.52.56-.95.86-.46S7.24,25.78,7,25.27Zm4.12-1.95a.57.57,0,0,0-.64-.07.52.52,0,0,0-.29.67.57.57,0,0,0,.69.3.54.54,0,0,0,.4-.42.37.37,0,0,0,0-.29A.38.38,0,0,0,11.08,23.32Zm-.65.27h0v0h0S10.43,23.57,10.43,23.59Zm1.31-5.65a.42.42,0,0,1-.43-.07.38.38,0,0,1-.08-.42.43.43,0,0,0-.79-.34,1.22,1.22,0,0,0,1.14,1.71,1.21,1.21,0,0,0,.53-.12.42.42,0,1,0-.37-.76Zm24.58.55a.3.3,0,0,0-.15.09h0a.31.31,0,0,0-.07.09h0a.24.24,0,0,0,0,.08.55.55,0,0,0,.09.61.52.52,0,0,0,.79,0,.59.59,0,0,0,0-.71A.5.5,0,0,0,36.32,18.49Zm-7.95-3.86a.43.43,0,0,0-.39.46,2,2,0,0,1-.39,1.32c-1.1-1-3.15-.18-4.54.4l-.75.3-.06,0c-1.56.52-3.48,1.18-4.21,2.93-.27.06-.4,0-.45,0a.43.43,0,0,1,0-.23.42.42,0,0,0-.37-.47.43.43,0,0,0-.48.36,1,1,0,0,0,.33,1,1.13,1.13,0,0,0,.69.2,5.87,5.87,0,0,0,2-.56c.18-.07.4-.17.46-.18a6.66,6.66,0,0,1,1.17-.09,3.57,3.57,0,0,0,2.52-.72l.41-.38a2.78,2.78,0,0,1,.82-.63,3.36,3.36,0,0,1,.87-.21,5,5,0,0,0,1-.22A2.92,2.92,0,0,0,28.83,15,.43.43,0,0,0,28.37,14.63Zm-1.73,2.52a3.67,3.67,0,0,1-.79.17,4,4,0,0,0-1.08.27,3.58,3.58,0,0,0-1.08.8l-.37.34a2.8,2.8,0,0,1-2,.52,6.88,6.88,0,0,0-1.33.11,3.13,3.13,0,0,0-.61.22l-.11,0a7.56,7.56,0,0,1,3.21-1.69l.06,0c.23-.08.5-.19.81-.32,1.08-.44,2.81-1.16,3.58-.6A3.18,3.18,0,0,1,26.64,17.15Zm.75,2.35h-.11a.48.48,0,1,0,.29.68A.49.49,0,0,0,27.39,19.5Zm5.74,1.58a.38.38,0,0,0-.15.09h0l-.06.09v0l0,.07A.57.57,0,0,0,33,22a.52.52,0,0,0,.78,0,.57.57,0,0,0,0-.71A.49.49,0,0,0,33.13,21.08Zm-2.67-5.29a.43.43,0,0,0-.08.6.38.38,0,0,1,0,.42A.39.39,0,0,1,30,17a.42.42,0,1,0-.18.83,1.1,1.1,0,0,0,.26,0,1.24,1.24,0,0,0,1-.56,1.22,1.22,0,0,0-.05-1.4A.44.44,0,0,0,30.46,15.79ZM21.2,21.55a.42.42,0,0,0-.49.35A.38.38,0,0,1,20,22a.43.43,0,1,0-.74.43,1.26,1.26,0,0,0,1.08.6.71.71,0,0,0,.2,0,1.24,1.24,0,0,0,1-1A.43.43,0,0,0,21.2,21.55Zm12.19-7.33a2.56,2.56,0,0,0-1.71-1l-2.88-.76a5.69,5.69,0,0,0-2.71.08,2.16,2.16,0,0,1-.8,0,3,3,0,0,0-1-.08,6.09,6.09,0,0,0-2,.57,13.33,13.33,0,0,0-6.81-2.84,14.16,14.16,0,0,0-3.77.09A5.18,5.18,0,0,1,9.84,10,11.86,11.86,0,0,0,8.47,9.8,10,10,0,0,0,3.79,11a8.59,8.59,0,0,0-2.34,1.36A4.47,4.47,0,0,0,0,15.89a3.85,3.85,0,0,0,2.44,3.4,6.88,6.88,0,0,0,1.26.26,3.08,3.08,0,0,1,1.61.52,3.29,3.29,0,0,1,.41.47,2.21,2.21,0,0,0,1.15.92,2.28,2.28,0,0,0,1.36-.18l.2-.07a8.18,8.18,0,0,1,4.76.34,4.54,4.54,0,0,0,.6,2,3.81,3.81,0,0,0,2.63,1.87,4.6,4.6,0,0,0,.64.05,10.3,10.3,0,0,0,1.28-.12L20.68,25a14.63,14.63,0,0,0,2.39-.47,13.7,13.7,0,0,0,2.87-1.42l4.71-2.77a6.54,6.54,0,0,0,1.52-1.12,6.51,6.51,0,0,0,1.32-3A2.65,2.65,0,0,0,33.39,14.22ZM13.24,20.45l0,.22a8.69,8.69,0,0,0-5-.27L8,20.48a1.65,1.65,0,0,1-.85.16A1.52,1.52,0,0,1,6.41,20a4.78,4.78,0,0,0-.52-.59,3.73,3.73,0,0,0-2.07-.72,6.77,6.77,0,0,1-1.09-.22A3,3,0,0,1,.86,15.84,3.65,3.65,0,0,1,2,13a7.58,7.58,0,0,1,2.11-1.21,9.28,9.28,0,0,1,4.27-1.12,9.89,9.89,0,0,1,1.25.21,6,6,0,0,0,2.24.2A13.28,13.28,0,0,1,15.44,11a12.51,12.51,0,0,1,6,2.42l-3.37,1.7-.25.12s0,0-.07-.05l-2.58-1.28a5.49,5.49,0,0,0-1.32-.51,5.63,5.63,0,0,0-1.35-.08l-1.42,0A7.34,7.34,0,0,0,7.58,14l-.07.07a1.8,1.8,0,0,1-.35-.24.79.79,0,0,1-.28-.79.43.43,0,0,0-.79-.32,1.6,1.6,0,0,0,.49,1.73A3.81,3.81,0,0,0,8,15.21l2.16.76a3.57,3.57,0,0,0,.91.24,4.21,4.21,0,0,0,.8,0l.32,0a5.39,5.39,0,0,1,2.91.88,5.78,5.78,0,0,0-.49.5A5.67,5.67,0,0,0,13.24,20.45ZM17,15.69c-.4.23-.8.47-1.18.74a6.58,6.58,0,0,0-3.68-1.15l-.37,0a2.6,2.6,0,0,1-.61,0,2.71,2.71,0,0,1-.7-.19l-1.86-.65a8.18,8.18,0,0,1,2.59-.35l1.42,0a4.79,4.79,0,0,1,1.15.06,4.86,4.86,0,0,1,1.12.45Zm15.7.33a5.79,5.79,0,0,1-1.12,2.66,5.65,5.65,0,0,1-1.33,1L25.5,22.41a13.78,13.78,0,0,1-2.69,1.34,13.16,13.16,0,0,1-2.25.44l-2.33.33a6.2,6.2,0,0,1-1.66.07,3,3,0,0,1-2-1.45,4,4,0,0,1-.46-2.57,4.91,4.91,0,0,1,1.15-2.51,10.42,10.42,0,0,1,3.28-2.21l3.43-1.73a7,7,0,0,1,2.45-.88,2.55,2.55,0,0,1,.73.07,3.15,3.15,0,0,0,1.14.06,4.54,4.54,0,0,1,2.32-.09l2.88.75a1.93,1.93,0,0,1,1.2.63A1.92,1.92,0,0,1,32.66,16ZM19.54,17.14a.36.36,0,0,0,0-.71.29.29,0,0,0-.29.05A.36.36,0,0,0,19.54,17.14Zm1.62-.88a.49.49,0,0,0,.62-.21.5.5,0,0,0-.18-.65l-.06,0h-.06A.48.48,0,0,0,21.16,16.26Zm-3.79,6h0l0,0a.23.23,0,0,0-.24,0,.29.29,0,0,0-.11.4h0v0a.26.26,0,0,0,.51,0,.68.68,0,0,0-.06-.32Z"/></g></g></svg>